<svg width="210" height="210" viewBox="0 0 210 210" fill="none" xmlns="http://www.w3.org/2000/svg">
    <defs>
        <filter id="filter0_d_1_3055" x="0" y="0" width="210" height="210"
            filterUnits="userSpaceOnUse" color-interpolation-filters="sRGB">
            <feFlood flood-opacity="0" result="BackgroundImageFix" />
            <feColorMatrix in="SourceAlpha" type="matrix"
                values="0 0 0 0 0 0 0 0 0 0 0 0 0 0 0 0 0 0 127 0" result="hardAlpha" />
            <feOffset dy="4" />
            <feGaussianBlur stdDeviation="27.5" />
            <feComposite in2="hardAlpha" operator="out" />
            <feColorMatrix type="matrix" values="0 0 0 0 0 0 0 0 0 0 0 0 0 0 0 0 0 0 0.55 0" />
            <feBlend mode="normal" in2="BackgroundImageFix" result="effect1_dropShadow_1_3055" />
            <feBlend mode="normal" in="SourceGraphic" in2="effect1_dropShadow_1_3055"
                result="shape" />
        </filter>
        <filter id="filter1_d_1_3055" x="10" y="10" width="190" height="190"
            filterUnits="userSpaceOnUse" color-interpolation-filters="sRGB">
            <feFlood flood-opacity="0" result="BackgroundImageFix" />
            <feColorMatrix in="SourceAlpha" type="matrix"
                values="0 0 0 0 0 0 0 0 0 0 0 0 0 0 0 0 0 0 127 0" result="hardAlpha" />
            <feOffset dy="4" />
            <feGaussianBlur stdDeviation="27.5" />
            <feComposite in2="hardAlpha" operator="out" />
            <feColorMatrix type="matrix" values="0 0 0 0 0 0 0 0 0 0 0 0 0 0 0 0 0 0 0.55 0" />
            <feBlend mode="normal" in2="BackgroundImageFix" result="effect1_dropShadow_1_3055" />
            <feBlend mode="normal" in="SourceGraphic" in2="effect1_dropShadow_1_3055"
                result="shape" />
        </filter>
        <linearGradient id="paint0_linear_1_3055" x1="105" y1="51" x2="105" y2="151"
            gradientUnits="userSpaceOnUse">
            <stop stop-color="#AEAEAE" />
            <stop offset="1" stop-color="#363636" />
        </linearGradient>
        <linearGradient id="paint1_linear_1_3055" x1="105" y1="61" x2="105" y2="141"
            gradientUnits="userSpaceOnUse">
            <stop stop-color="#F1F1F1" />
            <stop offset="1" stop-color="#716D6D" />
        </linearGradient>
    </defs>
    <g filter="url(#filter0_d_1_3055)">
        <path
            d="M105.006 51C104.939 51 104.874 51.0002 104.807 51.0004C91.4514 51.052 78.9155 56.3014 69.5083 65.7814C60.1011 75.2617 54.9488 87.838 55.0004 101.193C55.0519 114.548 60.3013 127.084 69.7814 136.492C79.214 145.852 91.7139 150.999 104.995 151C105.062 151 105.126 151 105.193 151C118.549 150.948 131.084 145.699 140.492 136.218C149.899 126.738 155.051 114.162 155 100.807C154.948 87.4514 149.699 74.9155 140.219 65.5083C130.786 56.1482 118.286 51 105.006 51Z"
            fill="url(#paint0_linear_1_3055)" />
    </g>
    <g filter="url(#filter1_d_1_3055)">
        <path
            d="M105.005 61C104.951 61 104.899 61.0002 104.845 61.0003C94.1611 61.0416 84.1324 65.2411 76.6067 72.8252C69.0809 80.4094 64.9591 90.4704 65.0003 101.155C65.0416 111.839 69.2411 121.868 76.8251 129.393C84.3712 136.881 94.3711 141 104.996 141C105.049 141 105.101 141 105.155 141C115.839 140.958 125.868 136.759 133.393 129.175C140.919 121.591 145.041 111.53 145 100.845C144.958 90.1611 140.759 80.1324 133.175 72.6067C125.629 65.1186 115.629 61 105.005 61Z"
            fill="url(#paint1_linear_1_3055)" fill-opacity="0.5" shape-rendering="crispEdges" />
    </g>
    <rect x="91.0002" y="87" width="30" height="30" rx="3" fill="#1A1A1A" />
</svg>
