<svg width="50" height="46" viewBox="0 0 50 46" fill="none" xmlns="http://www.w3.org/2000/svg">
<path fill-rule="evenodd" clip-rule="evenodd" d="M6.18557 4.34948C2.7835 6.74124 0 9.23711 0 9.89485C0 10.5515 2.9 13.1701 6.4433 15.7134L12.8866 20.3371V17.1835V14.0299H23.2474C38.135 14.0299 42.7835 17.1124 42.7835 26.9835C42.7835 31.0206 42.2526 32.2928 39.3598 35.1856C37.3268 37.2186 34.3948 38.899 32.1433 39.3206C28.8134 39.9454 28.3505 40.3959 28.3505 43.0103C28.3505 45.6392 28.7175 45.9887 31.4763 45.9887C41.7814 45.9887 50 37.301 50 26.4093C50 19.6711 48.1289 15.3165 43.4804 11.2351C38.633 6.97835 34.0732 5.79484 22.4876 5.78866L13.0175 5.78247L12.6938 2.89175L12.3711 0L6.18557 4.34948ZM0.515464 42.8959C0.515464 45.5072 0.916495 45.9887 3.09278 45.9887C5.26907 45.9887 5.6701 45.5072 5.6701 42.8959C5.6701 40.2845 5.26907 39.8031 3.09278 39.8031C0.916495 39.8031 0.515464 40.2845 0.515464 42.8959ZM8.76289 42.8959C8.76289 45.6454 9.10618 45.9887 11.8557 45.9887C14.6052 45.9887 14.9485 45.6454 14.9485 42.8959C14.9485 40.1464 14.6052 39.8031 11.8557 39.8031C9.10618 39.8031 8.76289 40.1464 8.76289 42.8959ZM18.0412 42.8959C18.0412 45.7433 18.3278 45.9887 21.6495 45.9887C24.9711 45.9887 25.2577 45.7433 25.2577 42.8959C25.2577 40.0485 24.9711 39.8031 21.6495 39.8031C18.3278 39.8031 18.0412 40.0485 18.0412 42.8959Z" fill="#F6F6F6"/>
</svg>
