<svg width="45" height="45" viewBox="0 0 45 45" fill="none" xmlns="http://www.w3.org/2000/svg">
<mask id="path-1-inside-1_1_2429" fill="white">
<path d="M0 10C0 4.47715 4.47715 0 10 0H35C40.5228 0 45 4.47715 45 10V35C45 40.5228 40.5228 45 35 45H10C4.47715 45 0 40.5228 0 35V10Z"/>
</mask>
<path d="M-2 10C-2 3.37258 3.37258 -2 10 -2H35C41.6274 -2 47 3.37258 47 10H43C43 5.58172 39.4183 2 35 2H10C5.58172 2 2 5.58172 2 10H-2ZM47 35C47 41.6274 41.6274 47 35 47H10C3.37258 47 -2 41.6274 -2 35H2C2 39.4183 5.58172 43 10 43H35C39.4183 43 43 39.4183 43 35H47ZM10 47C3.37258 47 -2 41.6274 -2 35V10C-2 3.37258 3.37258 -2 10 -2V2C5.58172 2 2 5.58172 2 10V35C2 39.4183 5.58172 43 10 43V47ZM35 -2C41.6274 -2 47 3.37258 47 10V35C47 41.6274 41.6274 47 35 47V43C39.4183 43 43 39.4183 43 35V10C43 5.58172 39.4183 2 35 2V-2Z" fill="#C4C4C4" mask="url(#path-1-inside-1_1_2429)"/>
<path d="M31 19.0321H29.5C29.5 19.0321 26.3599 19.0321 22.5 19.0321C18.6401 19.0321 17.25 19.0321 15.5 19.0321H14C13.7236 19.0321 13.5 19.2627 13.5 19.5477V32.4378C13.5 33.5752 14.397 34.5002 15.5 34.5002H29.5C30.603 34.5002 31.5 33.5752 31.5 32.4377V19.5477C31.5 19.2627 31.2764 19.0321 31 19.0321ZM23.9971 29.8028C24.0127 29.9483 23.9673 30.0944 23.8726 30.2037C23.7779 30.3129 23.6421 30.3754 23.5 30.3754H21.5C21.3579 30.3754 21.2222 30.3129 21.1275 30.2037C21.0327 30.0944 20.9873 29.9484 21.003 29.8028L21.3184 26.8779C20.8062 26.4937 20.5 25.886 20.5 25.2193C20.5 24.0819 21.397 23.1569 22.5 23.1569C23.6031 23.1569 24.5001 24.0818 24.5001 25.2193C24.5001 25.886 24.1939 26.4937 23.6817 26.8779L23.9971 29.8028ZM29.5 19.0321H15.5C15.5 19.0321 20.2944 19.0321 22.5 19.0321C24.7056 19.0321 29.5 19.0321 29.5 19.0321Z" fill="#C4C4C4"/>
<path d="M22.0001 9.75113C25.8538 9.69066 29.2501 12.0713 29.2501 15.1649H26.2501C26.2501 15.1649 25.5001 12.8447 22.0001 12.8447C19.7945 12.8447 18.0001 14.6951 18.0001 16.9695V19.032H15.0001V16.9695C15.0001 12.9893 18.1407 9.81168 22.0001 9.75113Z" fill="#C4C4C4"/>
</svg>
