<svg width="45" height="45" viewBox="0 0 45 45" fill="none" xmlns="http://www.w3.org/2000/svg">
<mask id="path-1-inside-1_1_2671" fill="white">
<path d="M0 10C0 4.47715 4.47715 0 10 0H35C40.5228 0 45 4.47715 45 10V35C45 40.5228 40.5228 45 35 45H10C4.47715 45 0 40.5228 0 35V10Z"/>
</mask>
<path d="M-2 10C-2 3.37258 3.37258 -2 10 -2H35C41.6274 -2 47 3.37258 47 10H43C43 5.58172 39.4183 2 35 2H10C5.58172 2 2 5.58172 2 10H-2ZM47 35C47 41.6274 41.6274 47 35 47H10C3.37258 47 -2 41.6274 -2 35H2C2 39.4183 5.58172 43 10 43H35C39.4183 43 43 39.4183 43 35H47ZM10 47C3.37258 47 -2 41.6274 -2 35V10C-2 3.37258 3.37258 -2 10 -2V2C5.58172 2 2 5.58172 2 10V35C2 39.4183 5.58172 43 10 43V47ZM35 -2C41.6274 -2 47 3.37258 47 10V35C47 41.6274 41.6274 47 35 47V43C39.4183 43 43 39.4183 43 35V10C43 5.58172 39.4183 2 35 2V-2Z" fill="#FD6200" mask="url(#path-1-inside-1_1_2671)"/>
<path d="M31.5 19.2812H30V17.2187C30 13.2383 26.8599 10 23 10C19.1401 10 16 13.2383 16 17.2187V19.2812H14.5C14.2236 19.2812 14 19.5119 14 19.7969V32.6875C14 33.825 14.897 34.75 16 34.75H30C31.103 34.75 32 33.825 32 32.6875V19.7969C32 19.5119 31.7764 19.2812 31.5 19.2812ZM24.4971 30.0525C24.5127 30.198 24.4673 30.344 24.3726 30.4533C24.2779 30.5626 24.1421 30.625 24 30.625H22C21.8579 30.625 21.7222 30.5626 21.6275 30.4533C21.5327 30.3441 21.4873 30.198 21.503 30.0525L21.8184 27.1274C21.3062 26.7432 21 26.1355 21 25.4688C21 24.3313 21.897 23.4062 23 23.4062C24.1031 23.4062 25.0001 24.3312 25.0001 25.4688C25.0001 26.1355 24.6939 26.7432 24.1817 27.1274L24.4971 30.0525ZM27 19.2812H19V17.2187C19 14.9442 20.7944 13.0938 23 13.0938C25.2056 13.0938 27 14.9442 27 17.2187V19.2812Z" fill="#FD6200"/>
</svg>
