<svg width="27" height="21" viewBox="0 0 27 21" fill="none" xmlns="http://www.w3.org/2000/svg">
<path d="M9.945 19.8178L9.94526 19.8179L10.3144 19.2904L10.5488 19.732C10.5489 19.732 10.5489 19.732 10.549 19.732C10.5815 19.7147 10.6052 19.6974 10.6117 19.6926L10.6118 19.6925C10.622 19.685 10.6303 19.6784 10.6355 19.6742C10.6459 19.6657 10.6554 19.6575 10.6622 19.6515C10.6764 19.639 10.6927 19.624 10.7095 19.6084C10.7437 19.5765 10.7901 19.5322 10.8471 19.4772C10.9615 19.3669 11.1246 19.2077 11.3303 19.0056C11.7421 18.6012 12.3283 18.0215 13.0453 17.3098C14.4796 15.8862 16.4391 13.9328 18.5778 11.7931C22.024 8.3451 23.97 6.39399 25.0542 5.28865C25.5951 4.73727 25.9273 4.39057 26.1252 4.17181C26.2228 4.06396 26.2974 3.97671 26.3499 3.90615C26.3757 3.87145 26.4054 3.82848 26.4307 3.78068C26.4496 3.74478 26.5 3.64518 26.5 3.51265C26.5 3.35777 26.4452 3.23177 26.3851 3.13363C26.3298 3.04338 26.2531 2.94988 26.1644 2.85043C25.984 2.64828 25.6756 2.33606 25.1666 1.82867C24.7166 1.38005 24.405 1.07641 24.1925 0.883932C24.0876 0.788864 23.9954 0.71047 23.9165 0.653369C23.8774 0.625043 23.8298 0.593373 23.7771 0.56697C23.7343 0.545521 23.6357 0.5 23.5079 0.5C23.3825 0.5 23.2893 0.547896 23.2705 0.557539L23.2688 0.558415C23.2351 0.575492 23.2076 0.593624 23.1902 0.605616C23.154 0.630526 23.1171 0.660071 23.0833 0.688303C23.0136 0.746581 22.9207 0.83034 22.8035 0.939664C22.5672 1.15997 22.2099 1.50524 21.6971 2.00885C20.6705 3.0172 19.0082 4.67281 16.4182 7.26254L11.2157 12.4646C10.6299 13.0503 9.68016 13.0503 9.09439 12.4645L7.25341 10.6235C5.7835 9.15364 4.96095 8.33475 4.48859 7.88392C4.25515 7.66112 4.09321 7.51458 3.97517 7.42246C3.88279 7.35037 3.71346 7.22202 3.48936 7.22202C3.20834 7.22202 3.00475 7.3917 2.83339 7.5433C2.63498 7.71882 2.32604 8.02445 1.813 8.53878C1.31902 9.03397 1.01586 9.34294 0.836779 9.54453C0.748618 9.64377 0.672791 9.73645 0.617857 9.82482C0.560833 9.91656 0.5 10.0448 0.5 10.2056C0.5 10.3786 0.584788 10.5092 0.611846 10.5508L0.612608 10.552C0.653806 10.6155 0.708128 10.6837 0.769693 10.7557C0.895097 10.9024 1.09791 11.1194 1.4132 11.4449C2.04708 12.0993 3.16949 13.2265 5.12292 15.1804L5.47651 14.8269L5.12292 15.1804C6.37073 16.4284 7.50361 17.5521 8.33293 18.3662C8.74738 18.7731 9.08709 19.1037 9.32779 19.3341C9.44778 19.449 9.54525 19.541 9.61585 19.6057C9.65059 19.6375 9.68244 19.6661 9.70877 19.6884C9.72128 19.699 9.73798 19.7129 9.7559 19.7262C9.76445 19.7326 9.77954 19.7436 9.79844 19.7554L9.79932 19.7559C9.80815 19.7615 9.86545 19.7979 9.945 19.8178Z" fill="#191919" stroke="black"/>
</svg>
