<svg width="20" height="25" viewBox="0 0 20 25" fill="none" xmlns="http://www.w3.org/2000/svg">
<path fill-rule="evenodd" clip-rule="evenodd" d="M17.8288 24.1479C17.9981 24.111 18.2645 24.0177 18.4207 23.9406C18.577 23.8635 18.8318 23.6979 18.9869 23.5726C19.1455 23.4445 19.3743 23.1895 19.5096 22.9901C19.642 22.7949 19.8027 22.4861 19.8668 22.3038L19.9834 21.9723L19.9959 12.2531C20.0067 3.88663 19.9988 2.48775 19.9394 2.20267C19.9014 2.0205 19.8064 1.73808 19.7283 1.57504C19.6502 1.412 19.4837 1.1517 19.3583 0.996567C19.2284 0.835894 18.9725 0.60722 18.7637 0.465206C18.5432 0.315187 18.2605 0.172935 18.0538 0.107965L17.7104 4.57764e-05H10.6783L3.64627 4.57764e-05L3.3029 0.107965C3.09625 0.172935 2.8135 0.315187 2.59297 0.465206C2.38418 0.60722 2.12833 0.835894 1.99844 0.996567C1.87304 1.1517 1.70655 1.412 1.62841 1.57504C1.55028 1.73808 1.45538 2.01998 1.41755 2.20144C1.36138 2.47079 1.35101 2.99614 1.361 5.06225L1.37327 7.59309L2.30851 6.78414L3.24376 5.97514V4.25244C3.24376 2.65543 3.25029 2.51692 3.33345 2.35402C3.38274 2.25742 3.46268 2.14363 3.51102 2.10119C3.55937 2.05872 3.67349 1.98414 3.76465 1.93546C3.92433 1.85008 4.17663 1.84686 10.6783 1.84686C17.1801 1.84686 17.4324 1.85008 17.592 1.93546C17.6832 1.98414 17.7973 2.05872 17.8457 2.10119C17.894 2.14363 17.974 2.25742 18.0233 2.35402C18.1104 2.52473 18.1129 2.80241 18.1129 12.0995C18.1129 20.8285 18.1062 21.6825 18.0362 21.8208C17.994 21.9042 17.9248 22.0119 17.8823 22.0602C17.8399 22.1086 17.7199 22.1938 17.6157 22.2497L17.4263 22.3512H10.6783L3.93039 22.3512L3.74097 22.2497C3.6368 22.1938 3.51685 22.1086 3.47442 22.0602C3.43194 22.0119 3.36271 21.9042 3.32052 21.8208C3.25394 21.6893 3.24376 21.4408 3.24376 19.9461V18.2229L2.30851 17.4139L1.37327 16.6049L1.361 19.1358C1.35101 21.2019 1.36138 21.7272 1.41755 21.9966C1.45538 22.1781 1.55028 22.46 1.62841 22.623C1.70655 22.786 1.87304 23.0463 1.99844 23.2015C2.128 23.3618 2.38404 23.5907 2.5915 23.7318C2.79233 23.8684 3.10113 24.0292 3.27776 24.0891L3.59891 24.198L10.56 24.2065C16.4142 24.2137 17.5699 24.2044 17.8288 24.1479ZM7.53309 18.1184C7.61331 18.0695 7.71985 17.947 7.76986 17.8463C7.85207 17.6807 7.8622 17.5305 7.87584 16.2791L7.89085 14.895L10.8389 14.8821L13.7871 14.8692L13.9884 14.736C14.1278 14.6437 14.2249 14.5271 14.3041 14.3571L14.4184 14.1116V12.099V10.0865L14.3041 9.84089C14.2249 9.67089 14.1278 9.55435 13.9884 9.46206L13.7871 9.3288L10.839 9.31592L7.89095 9.30304L7.87584 7.94265C7.8614 6.63578 7.85657 6.57441 7.75376 6.38201C7.6949 6.27181 7.58826 6.15144 7.51675 6.1145C7.4453 6.07752 7.32293 6.04286 7.24494 6.03746C7.16695 6.03206 7.06779 6.02993 7.0246 6.03267C6.98146 6.03542 5.38326 7.39231 3.47305 9.0479C1.56288 10.7035 0 12.0765 0 12.099C0 12.1215 1.55975 13.4917 3.46604 15.144C5.37237 16.7963 6.96702 18.1616 7.00964 18.178C7.0523 18.1943 7.15468 18.2076 7.23722 18.2075C7.31971 18.2074 7.45287 18.1673 7.53309 18.1184Z" fill="#FD6200"/>
</svg>
