<svg width="80" height="74" viewBox="0 0 80 74" fill="none" xmlns="http://www.w3.org/2000/svg">
    <defs>
        <linearGradient id="paint0_linear_1_2500" x1="0" y1="0" x2="79.9998" y2="73.8459"
            gradientUnits="userSpaceOnUse">
            <stop stop-color="white" />
            <stop offset="1" stop-color="#9E9E9E" />
        </linearGradient>
    </defs>
<path fill-rule="evenodd" clip-rule="evenodd"
        d="M11.9683 8.26438V16.5288H14.2628H16.5573V10.5505V4.57227H40.8674H65.1776V10.5505V16.5288H67.4568H69.7361L69.7513 14.5227C69.7597 13.4193 69.7665 9.70037 69.7665 6.2583L69.7666 0H40.8674H11.9683V8.26438ZM68.6537 18.7844C67.2665 18.8505 66.0556 19.0512 64.8105 19.4213C62.4302 20.129 59.9675 21.6381 58.3663 23.3704C56.8243 25.0386 55.7683 26.9047 55.1874 28.9882C54.6993 30.7387 54.5456 32.8188 54.7617 34.7501C55.1063 37.8313 56.348 40.4951 58.5205 42.8138C59.2877 43.6326 60.5169 44.5775 61.6785 45.2414C63.584 46.3304 65.539 46.929 67.931 47.1557C68.4687 47.2066 70.3719 47.2142 70.9482 47.1676C73.1729 46.988 74.8104 46.5576 76.5814 45.6871C77.5508 45.2107 78.4525 44.6436 79.2625 44.0012C79.6057 43.7289 80 43.3922 80 43.3713C80 43.3631 78.9529 42.3132 77.673 41.0381L75.3461 38.7197L75.0975 38.9539C73.9723 40.014 72.7423 40.6293 71.235 40.886C70.5471 41.0032 70.2902 41.0229 69.4339 41.0238C68.6164 41.0247 68.4584 41.0143 67.8621 40.9202C66.3787 40.686 65.0979 40.0394 64.0397 38.9906C63.1085 38.0677 62.3746 36.7695 62.0491 35.4694C61.8453 34.6553 61.7712 33.9935 61.7712 32.9889C61.7712 32.2301 61.7906 31.9514 61.887 31.3259C62.101 29.9382 62.6434 28.6902 63.4943 27.6279C63.7525 27.3057 64.3418 26.7161 64.6431 26.4786C65.8529 25.5252 67.3194 25.0408 69.1356 24.9948C70.5132 24.9599 71.7274 25.1662 72.7609 25.6108C73.5981 25.971 74.2707 26.4174 74.9014 27.0314L75.1835 27.306L77.5172 24.9792L79.8509 22.6525L79.7132 22.5271C78.9216 21.8063 77.8118 21.0417 76.7816 20.5075C74.7575 19.4578 72.6854 18.9129 70.2599 18.7926C69.8444 18.772 69.0043 18.7677 68.6537 18.7844ZM5.36509 32.9717C2.42259 40.5317 0.00859803 46.7352 0.000636141 46.7572C-0.0131079 46.7952 0.165794 46.7972 3.55288 46.7972H7.1196L7.97019 44.391L8.82078 41.9849L13.9682 41.9793L19.1157 41.9736L19.9051 44.2654C20.3394 45.5258 20.7144 46.6111 20.7385 46.6772L20.7825 46.7972H24.4201H28.0577L28.044 46.7457C28.0364 46.7175 25.6512 40.5166 22.7434 32.9661L17.4566 19.2378L14.0859 19.232L10.7151 19.2262L5.36509 32.9717ZM30.6684 33.0118V46.7972L36.8693 46.797C40.673 46.7968 43.2653 46.7879 43.5749 46.7738C45.5758 46.6826 47.187 46.2284 48.6776 45.3351C49.2859 44.9706 49.7567 44.6053 50.2542 44.1117C51.645 42.7323 52.3585 41.036 52.4133 38.9786C52.4505 37.5856 52.1864 36.3662 51.609 35.2639C50.9551 34.0158 49.8649 32.9479 48.4745 32.1937L48.3033 32.1008L48.3803 32.0591C48.5712 31.9556 49.1105 31.5838 49.327 31.4065C49.5963 31.1858 50.0038 30.7806 50.2302 30.5085C50.7953 29.8292 51.2629 28.8675 51.4419 28.0166C51.5651 27.4304 51.5823 27.243 51.5822 26.4849C51.5821 25.8586 51.5759 25.735 51.5285 25.4218C51.1825 23.1357 49.8754 21.3595 47.71 20.2327C46.5292 19.6182 45.2688 19.3124 43.6553 19.2489C43.3587 19.2372 40.3153 19.2274 36.8922 19.227L30.6684 19.2264V33.0118ZM41.8471 24.416C42.6809 24.476 43.2544 24.6912 43.8452 25.1659C44.2385 25.4819 44.4893 25.9364 44.611 26.5535C44.6679 26.8416 44.6681 27.5668 44.6114 27.8566C44.3853 29.0126 43.6613 29.6809 42.3534 29.941C42.1716 29.9771 41.9308 29.9817 39.8407 29.9884L37.529 29.9957V27.1944V24.3931L39.5309 24.3933C40.632 24.3934 41.6743 24.4036 41.8471 24.416ZM15.6261 31.8672C16.4916 34.3749 17.1998 36.435 17.1998 36.4452C17.1998 36.4686 10.8041 36.4701 10.7919 36.4467C10.778 36.4199 14.02 27.2743 14.0372 27.2921C14.0456 27.3008 14.7606 29.3596 15.6261 31.8672ZM42.6427 35.0587C43.2936 35.1524 43.9522 35.4302 44.4294 35.8124C44.9259 36.2099 45.3028 36.8564 45.4487 37.5604C45.5151 37.8809 45.5314 38.5423 45.4813 38.8818C45.2894 40.1815 44.4215 41.1553 43.1653 41.4805C42.6337 41.6181 42.6945 41.6153 40.0013 41.6246L37.529 41.6331V38.3284V35.0236H39.9639C42.0321 35.0236 42.4356 35.0289 42.6427 35.0587ZM11.8765 53.8956V60.3997H40.4544H69.0323V54.8901V49.3805H66.7378H64.4433V52.604V55.8274H40.4544H16.4655V51.6095V47.3916H14.171H11.8765V53.8956ZM68.2866 66.3673C67.4585 66.4613 66.7588 66.7728 66.2176 67.2883C65.7602 67.724 65.4383 68.2784 65.2691 68.9221C65.0528 69.7447 65.0753 70.7508 65.3267 71.5025C65.6962 72.6072 66.571 73.3143 67.8398 73.5336C68.442 73.6377 69.2268 73.6194 69.8665 73.4864C70.1101 73.4357 70.3995 73.3439 70.4296 73.3078C70.45 73.2833 70.4316 73.1391 70.3504 72.6846C70.2922 72.3594 70.2353 72.0836 70.2237 72.0717C70.2107 72.0582 70.1143 72.0728 69.9675 72.1105C69.5554 72.2162 69.2526 72.2486 68.8029 72.2354C68.3632 72.2224 68.1699 72.1864 67.866 72.0609C67.4113 71.8731 67.0295 71.4877 66.8413 71.0265C66.598 70.4296 66.6034 69.532 66.8541 68.9081C67.0732 68.3628 67.5671 67.9137 68.1136 67.7629C68.6318 67.6198 69.2952 67.6704 69.8893 67.8983C70.1053 67.9812 70.1474 67.9835 70.1651 67.9137C70.2086 67.7406 70.409 66.7531 70.409 66.7113C70.409 66.6742 70.3836 66.65 70.3115 66.6183C70.1674 66.5551 69.719 66.4407 69.4568 66.4002C69.1766 66.357 68.5363 66.3389 68.2866 66.3673ZM16.6953 66.4506C16.6388 66.4564 16.5847 66.4732 16.5752 66.4881C16.5658 66.503 16.5578 68.0707 16.5576 69.9721C16.5573 73.4144 16.5575 73.4292 16.6035 73.4537C16.6585 73.483 17.9653 73.4757 17.9952 73.4459C18.0057 73.4354 18.0195 72.8233 18.0258 72.0857L18.0372 70.7445L18.1398 70.7372C18.3654 70.7212 18.5603 70.827 18.7092 71.0464C18.7586 71.1192 19.0752 71.6897 19.4127 72.3141C19.8773 73.1737 20.0383 73.4525 20.0758 73.4625C20.103 73.4698 20.4769 73.4759 20.9067 73.4761C21.502 73.4763 21.6977 73.4695 21.728 73.4474C21.7643 73.4209 21.7458 73.3802 21.5132 72.9752C20.9187 71.94 20.3272 71.0519 20.0004 70.7038C19.9219 70.6202 19.8638 70.5419 19.8713 70.5298C19.8787 70.5178 19.9389 70.4904 20.005 70.469C20.3272 70.3648 20.6482 70.1487 20.8589 69.8942C21.4489 69.1815 21.4796 67.9305 20.9238 67.2475C20.5834 66.829 20.0601 66.575 19.3451 66.481C19.1406 66.4542 16.9112 66.4286 16.6953 66.4506ZM35.9113 66.4542L35.7966 66.4694L35.7908 69.9492C35.785 73.419 35.7851 73.429 35.8313 73.4537C35.8864 73.483 37.1931 73.4758 37.2231 73.4459C37.2336 73.4354 37.2473 72.8748 37.2536 72.2L37.2651 70.9731L37.7699 70.9587C38.5 70.9378 38.8448 70.8638 39.2799 70.6343C40.097 70.2035 40.5306 69.3434 40.4417 68.33C40.353 67.3202 39.6958 66.6625 38.6052 66.4923C38.4138 66.4624 38.1345 66.4534 37.1963 66.447C36.5527 66.4426 35.9744 66.4459 35.9113 66.4542ZM0.327716 66.4731C0.319226 66.4815 0.312297 68.0501 0.312297 69.9587C0.312297 73.3663 0.3131 73.4295 0.356672 73.4527C0.384367 73.4675 0.652593 73.4764 1.06948 73.4764C1.48637 73.4764 1.75459 73.4675 1.78229 73.4527C1.82538 73.4297 1.82666 73.3904 1.82666 72.0838C1.82666 70.987 1.83235 70.7339 1.85743 70.7132C1.87886 70.6955 2.22528 70.686 2.99894 70.6818L4.10968 70.6759L4.11578 70.0488C4.12053 69.5623 4.11539 69.4175 4.09284 69.4033C4.07687 69.3932 3.56671 69.3848 2.95915 69.3845C1.97323 69.3842 1.85303 69.3803 1.84059 69.348C1.83293 69.3281 1.82666 68.9745 1.82666 68.5621C1.82666 67.9626 1.83283 67.8073 1.85748 67.7869C1.87916 67.769 2.28808 67.7597 3.23991 67.7555L4.59152 67.7496V67.1095V66.4694L2.46733 66.4636C1.29902 66.4604 0.336183 66.4646 0.327716 66.4731ZM9.69737 66.5026C9.66811 66.557 9.67506 73.4166 9.70439 73.4459C9.7149 73.4564 10.0416 73.4679 10.4303 73.4716C11.0556 73.4775 11.1414 73.474 11.1741 73.4414C11.2078 73.4078 11.2111 73.0988 11.2111 69.9755C11.2111 67.6554 11.2034 66.5321 11.1874 66.5022C11.1647 66.4599 11.132 66.4579 10.4425 66.4579C9.75069 66.4579 9.72036 66.4598 9.69737 66.5026ZM26.3702 66.4731C26.3617 66.4815 26.3548 68.0501 26.3548 69.9587C26.3548 73.3663 26.3556 73.4295 26.3992 73.4527C26.4288 73.4685 27.1228 73.4764 28.4887 73.4764C29.8545 73.4764 30.5485 73.4685 30.5782 73.4527C30.6204 73.4302 30.6225 73.3986 30.6225 72.8036C30.6225 72.2544 30.6181 72.1765 30.5862 72.1643C30.5663 72.1567 29.954 72.1504 29.2256 72.1504C28.2262 72.1504 27.8945 72.1437 27.8737 72.123C27.8315 72.0809 27.8345 70.5197 27.877 70.4846C27.8984 70.4669 28.2448 70.4573 29.0185 70.4532L30.1292 70.4473L30.1353 69.8316C30.1401 69.3543 30.1349 69.2118 30.1124 69.1975C30.0964 69.1874 29.5863 69.179 28.9787 69.1788C27.9928 69.1785 27.8726 69.1746 27.8601 69.1423C27.8525 69.1224 27.8462 68.815 27.8462 68.4593C27.8462 67.9458 27.8526 67.8071 27.877 67.7869C27.8987 67.769 28.3076 67.7597 29.2594 67.7555L30.6111 67.7496V67.1095V66.4694L28.4983 66.4636C27.3363 66.4603 26.3787 66.4646 26.3702 66.4731ZM45.4147 66.4729C45.4061 66.4814 45.3991 68.0501 45.3991 69.9587C45.3991 73.3663 45.3999 73.4295 45.4434 73.4527C45.473 73.4685 46.135 73.4764 47.4297 73.4764C48.7244 73.4764 49.3863 73.4685 49.4159 73.4527C49.4582 73.4302 49.4603 73.3986 49.4603 72.8036C49.4603 72.2544 49.4559 72.1765 49.424 72.1643C49.4041 72.1567 48.842 72.1504 48.1749 72.1504C47.2298 72.1504 46.9579 72.1441 46.9435 72.1218C46.9333 72.1061 46.9197 70.8279 46.9134 69.2813L46.902 66.4694L46.1661 66.4633C45.7614 66.46 45.4232 66.4643 45.4147 66.4729ZM56.4864 66.4865C56.4589 66.5198 53.9346 73.3788 53.9346 73.4203C53.9346 73.4356 53.9578 73.4544 53.9862 73.462C54.0706 73.4845 55.3493 73.4782 55.4106 73.455C55.4608 73.436 55.4958 73.3478 55.7239 72.666C55.9063 72.1206 55.9929 71.8919 56.023 71.8758C56.0496 71.8617 56.5628 71.8532 57.3952 71.8532C58.629 71.8532 58.7283 71.8561 58.7707 71.8932C58.7991 71.9182 58.9134 72.2091 59.0737 72.6648C59.2369 73.1284 59.3481 73.411 59.3773 73.4364C59.4191 73.4726 59.4899 73.4764 60.1279 73.4764C60.6566 73.4764 60.8421 73.4692 60.8716 73.4477C60.9077 73.4214 60.8525 73.2619 60.2132 71.5445C59.8295 70.5135 59.2554 68.9704 58.9375 68.1154C58.6195 67.2604 58.3445 66.5377 58.3262 66.5094L58.2931 66.4579H57.4015C56.7162 66.4579 56.5046 66.4646 56.4864 66.4865ZM75.564 66.4732C75.5556 66.4816 75.5487 68.0544 75.5487 69.9683V73.4482L75.6003 73.462C75.6949 73.4872 79.7241 73.4783 79.7721 73.4527C79.8142 73.4302 79.8164 73.3987 79.8164 72.8154C79.8164 72.3298 79.81 72.1964 79.7856 72.1763C79.7639 72.1583 79.355 72.1491 78.4032 72.1449L77.0516 72.139V71.3046V70.4701L78.1874 70.4581C78.812 70.4516 79.3257 70.4439 79.3289 70.441C79.332 70.4382 79.3346 70.1638 79.3346 69.8313C79.3346 69.3729 79.3277 69.2224 79.3059 69.2084C79.2902 69.1982 78.7765 69.1847 78.1644 69.1785L77.0516 69.167L77.0455 68.4954C77.0412 68.0189 77.047 67.8146 77.0655 67.7924C77.0871 67.7665 77.3259 67.761 78.4401 67.761C79.6486 67.761 79.79 67.7573 79.8025 67.7249C79.8207 67.6777 79.8207 66.5413 79.8025 66.4941C79.79 66.4615 79.5819 66.4579 77.6839 66.4579C76.5264 66.4579 75.5724 66.4648 75.564 66.4732ZM19.1382 67.7042C19.5771 67.7968 19.8157 68.0491 19.8544 68.4614C19.8828 68.7651 19.7763 69.0539 19.56 69.2595C19.3025 69.5043 19.055 69.5713 18.4435 69.5619L18.0372 69.5557L18.0312 68.6413C18.0279 68.1383 18.0302 67.714 18.0363 67.6982C18.053 67.6548 18.9268 67.6596 19.1382 67.7042ZM38.3473 67.7229C38.6528 67.8079 38.8424 67.9743 38.9319 68.2361C39.0023 68.4417 39.0033 68.8005 38.9341 69.0127C38.8109 69.3906 38.5226 69.6379 38.129 69.7034C38.0451 69.7174 37.8163 69.7259 37.6207 69.7223L37.2651 69.7157L37.2591 68.7212C37.2534 67.7942 37.2558 67.7247 37.2935 67.6959C37.3486 67.6538 38.1752 67.675 38.3473 67.7229ZM57.4099 67.9655C57.4173 67.9774 57.6244 68.555 57.8702 69.2491C58.2131 70.2177 58.311 70.5184 58.2913 70.5421C58.2705 70.567 58.0989 70.573 57.3983 70.573C56.9214 70.573 56.5148 70.5668 56.4948 70.5591C56.4749 70.5515 56.4585 70.5354 56.4585 70.5235C56.4585 70.5062 56.8158 69.4538 57.2895 68.0754C57.3312 67.954 57.3769 67.9123 57.4099 67.9655Z"
        fill="url(#paint0_linear_1_2500)" />
</svg>
