<svg width="30" height="30" viewBox="0 0 30 30" fill="none" xmlns="http://www.w3.org/2000/svg">
<path fill-rule="evenodd" clip-rule="evenodd" d="M7.48708 7.36755C3.38858 11.4195 0.0195089 14.7725 0.000302035 14.8189C-0.0190097 14.8651 0.890218 14.903 2.02069 14.903C3.59418 14.903 4.07635 14.9338 4.0775 15.0342C4.07824 15.1064 4.07761 18.3416 4.07603 22.2237L4.0732 29.2819H15.0425H26.0117V22.0925V14.903H28.0058C29.1026 14.903 30 14.8743 30 14.839C30 14.8038 28.7956 13.5945 27.3236 12.1517L24.6473 9.52858V6.2333V2.93812H22.9183H21.1893L21.1603 4.47068L21.1313 6.00334L18.0714 3.0013C16.3884 1.35025 14.9952 -0.000314811 14.9752 5.50439e-08C14.9553 0.000314921 11.5856 3.31575 7.48708 7.36755ZM17.4578 10.7569C19.6897 11.2268 21.5524 12.176 23.4697 13.8205L23.8139 14.1159L23.1295 14.7941L22.4451 15.4723L22.0506 15.1009C20.2468 13.4025 17.6006 12.3841 14.9914 12.3841C12.3815 12.3841 9.73585 13.4025 7.93115 15.1018L7.53557 15.4743L6.85409 14.7929L6.17272 14.1116L6.96451 13.4456C8.72461 11.9653 10.7657 11.0409 13.1547 10.6418C14.2186 10.464 16.3361 10.5207 17.4578 10.7569ZM17.1115 14.5251C18.5117 14.8803 20.2193 15.8002 20.9156 16.5745L21.1198 16.8016L20.4822 17.4392L19.8447 18.0767L19.281 17.6278C18.6087 17.0923 17.2549 16.4398 16.4819 16.2785C16.1759 16.2147 15.5052 16.1625 14.9914 16.1625C14.4775 16.1625 13.8069 16.2147 13.5009 16.2785C12.7279 16.4398 11.3741 17.0923 10.7018 17.6278L10.138 18.0767L9.50054 17.4392L8.86294 16.8016L9.06718 16.5745C9.3831 16.2232 10.4589 15.4886 11.2059 15.1142C12.8969 14.2665 15.1903 14.0377 17.1115 14.5251ZM15.9542 18.0988C16.7548 18.2685 17.6058 18.6592 18.14 19.1023L18.5074 19.407L17.8578 20.06L17.2084 20.713L16.7923 20.4247C15.703 19.6699 14.4283 19.656 13.2772 20.3866L12.77 20.7086L12.1226 20.0564L11.4754 19.4042L11.7902 19.1418C12.5254 18.5289 13.9934 17.9764 14.9389 17.9569C15.1121 17.9533 15.569 18.0172 15.9542 18.0988ZM15.6122 21.9829C16.3075 22.3425 16.4134 23.3851 15.8118 23.9471C15.5546 24.1875 15.3982 24.2441 14.9914 24.2441C14.5846 24.2441 14.4282 24.1875 14.171 23.9471C13.1112 22.9572 14.3173 21.3133 15.6122 21.9829Z" fill="#E7E7E7"/>
</svg>
