<svg width="30" height="20" viewBox="0 0 30 20" fill="none" xmlns="http://www.w3.org/2000/svg">
<path fill-rule="evenodd" clip-rule="evenodd" d="M13.412 0.0618796C11.6821 0.356313 10.254 1.051 9.03985 2.18858C7.92299 3.23514 7.12834 4.60622 6.82178 6.01566C6.73659 6.40735 6.62268 7.34347 6.61711 7.69774C6.61524 7.81635 6.59198 7.82285 6.17022 7.82285C5.28141 7.82285 3.98397 8.17778 3.18985 8.63826C1.49496 9.62098 0.388832 11.1596 0.08057 12.9633C-0.193883 14.5692 0.238773 16.2165 1.28772 17.5597C1.63676 18.0067 2.36936 18.6778 2.80653 18.951C3.58155 19.4355 4.58608 19.8132 5.44325 19.9423C5.6925 19.9799 8.821 19.9998 14.496 19.9999C24.1104 20.0001 23.6951 20.0147 24.8964 19.6338C27.3131 18.8674 29.2065 16.9071 29.7786 14.579C30.2196 12.7846 29.9465 10.9884 28.9928 9.41007C28.598 8.75653 28.3947 8.50586 27.7805 7.91516C26.5529 6.73448 25.0093 6.04652 23.1966 5.87231L22.5222 5.80747L22.3314 5.24429C21.9345 4.07284 21.2214 3.00032 20.2529 2.11819C19.1293 1.0947 17.8999 0.468637 16.371 0.14134C15.6886 -0.00473625 14.0602 -0.0484425 13.412 0.0618796ZM13.1776 9.37409C13.6012 9.50104 14.0558 9.77067 14.3808 10.0878C14.6315 10.3323 14.7905 10.5985 14.7207 10.6568C14.6418 10.7226 13.6468 11.3816 13.6263 11.3816C13.6161 11.3816 13.5263 11.2741 13.4269 11.1428C13.1563 10.7851 12.7347 10.5894 12.1682 10.5583C11.7481 10.5352 11.6811 10.547 11.3456 10.7038C10.9407 10.8931 10.614 11.2412 10.4436 11.665C10.2916 12.0432 10.3069 12.879 10.4733 13.2804C10.6382 13.6783 10.9725 14.0404 11.3391 14.218C11.5754 14.3326 11.706 14.3561 12.0936 14.3538C12.7672 14.3499 13.2556 14.1098 13.4992 13.6627L13.5875 13.5007L14.1882 13.8371C14.5187 14.0221 14.8083 14.1906 14.832 14.2114C14.8557 14.2322 14.783 14.3791 14.6704 14.5378C14.1664 15.2479 13.162 15.6846 12.035 15.6837C11.3278 15.6832 10.8864 15.5561 10.2933 15.1821C9.7885 14.8638 9.42246 14.4669 9.13659 13.9277C8.71576 13.1338 8.62676 12.2963 8.87725 11.4869C9.20461 10.4292 10.1991 9.53562 11.3188 9.29335C11.8082 9.18742 12.6813 9.22534 13.1776 9.37409ZM19.589 9.37642C20.5985 9.71145 21.369 10.4673 21.7136 11.4607C21.9241 12.0676 21.9338 12.8963 21.7366 13.439C21.5428 13.9726 21.2846 14.3706 20.886 14.7499C19.0462 16.5008 16.052 15.7218 15.3129 13.3C15.067 12.4945 15.2507 11.4079 15.7563 10.6766C16.2158 10.012 17.0346 9.46389 17.8227 9.29329C18.3121 9.18736 19.1361 9.22618 19.589 9.37642ZM17.9427 10.6386C16.7536 11.0385 16.394 12.855 17.3043 13.8641C17.6997 14.3026 18.411 14.4841 19.0463 14.3088C20.3808 13.9407 20.7503 11.8656 19.6457 10.943C19.1955 10.5669 18.5167 10.4456 17.9427 10.6386ZM23.6493 14.4772C23.8891 14.5852 24.0755 14.8448 24.0758 15.071C24.0762 15.3767 23.9163 15.5749 23.4154 15.8892L22.9335 16.1915L23.5341 16.2074L24.1347 16.2232V16.5271V16.831H23.0214H21.9081L21.9125 16.6781C21.9247 16.26 22.1588 15.9692 22.7446 15.6445C23.2418 15.369 23.3442 15.264 23.2605 15.1156C23.1382 14.8988 22.8632 14.9009 22.5335 15.1214L22.3679 15.2321L22.1673 15.0475C21.9281 14.8275 21.9183 14.7507 22.1137 14.6291C22.5176 14.378 23.2648 14.3041 23.6493 14.4772Z" fill="#585455"/>
</svg>
