<svg width="18" height="14" viewBox="0 0 18 14" fill="none" xmlns="http://www.w3.org/2000/svg">
<path fill-rule="evenodd" clip-rule="evenodd" d="M1.13432 0.0522173C1.03307 0.0794634 0.874863 0.140249 0.782754 0.187253C0.690609 0.234257 0.538629 0.349358 0.444973 0.442979C0.351352 0.536635 0.236496 0.688124 0.189809 0.779635C0.143086 0.871147 0.0812813 1.03666 0.0524531 1.14737C0.00706641 1.3216 0 2.07546 0 6.74801C0 11.4206 0.00706641 12.1744 0.0524531 12.3486C0.0812813 12.4594 0.143086 12.6249 0.189809 12.7164C0.236496 12.8079 0.351352 12.9594 0.444973 13.053C0.538629 13.1467 0.690117 13.2615 0.781629 13.3082C0.873141 13.3549 1.03866 13.4167 1.14936 13.4456C1.32486 13.4913 2.33304 13.498 9 13.498C15.667 13.498 16.6751 13.4913 16.8506 13.4456C16.9613 13.4167 17.1269 13.3549 17.2184 13.3082C17.3099 13.2615 17.4614 13.1467 17.555 13.053C17.6486 12.9594 17.7635 12.8079 17.8102 12.7164C17.8569 12.6249 17.9187 12.4594 17.9475 12.3486C17.9929 12.1744 18 11.4206 18 6.74801C18 2.07546 17.9929 1.3216 17.9475 1.14737C17.9187 1.03666 17.8569 0.871147 17.8102 0.779635C17.7635 0.688124 17.6486 0.536635 17.555 0.442979C17.4614 0.349358 17.3099 0.234503 17.2184 0.187815C17.1269 0.141092 16.9613 0.0792876 16.8506 0.0504594C16.675 0.00472115 15.6703 -0.00171227 8.98383 0.000326797C2.50337 0.00226039 1.28992 0.0103111 1.13432 0.0522173ZM16.5476 0.763885C16.5739 0.78062 15.2738 1.85911 13.0202 3.69008C11.0573 5.28494 9.39695 6.61916 9.33061 6.65502C9.25407 6.6964 9.13465 6.72094 9.00373 6.72217C8.86423 6.72347 8.75749 6.70237 8.67393 6.65695C8.60597 6.62004 6.94403 5.28487 4.98073 3.69001C2.73618 1.86663 1.4265 0.780374 1.45262 0.76378C1.47544 0.74926 4.87178 0.737377 9 0.737377C13.1282 0.737377 16.5246 0.749296 16.5476 0.763885ZM4.47191 4.24414C6.46931 5.86407 8.15639 7.22673 8.22101 7.27226C8.28562 7.31778 8.43335 7.38458 8.54933 7.42065C8.66714 7.45732 8.86454 7.48629 8.99677 7.48629C9.12688 7.48629 9.31925 7.46105 9.42426 7.43021C9.52931 7.39935 9.67061 7.34035 9.73828 7.29908C9.80596 7.25781 11.5034 5.89083 13.5105 4.2614C15.5175 2.63195 17.1735 1.29879 17.1906 1.29879C17.2076 1.29879 17.2314 1.38183 17.2434 1.48336C17.2555 1.58489 17.2606 4.03307 17.2547 6.92379C17.2446 11.9763 17.2416 12.1844 17.1785 12.3027C17.1424 12.3704 17.0791 12.4629 17.0379 12.5083C16.9966 12.5536 16.8996 12.6248 16.8223 12.6665L16.6816 12.7421H9C1.56818 12.7421 1.31435 12.74 1.19531 12.6765C1.12764 12.6404 1.03514 12.5771 0.989754 12.5359C0.944367 12.4946 0.873176 12.3976 0.831551 12.3203L0.755859 12.1796L0.745277 6.92379C0.739441 4.03307 0.744539 1.58489 0.756598 1.48336C0.768621 1.38183 0.792422 1.29879 0.809402 1.29879C0.826418 1.29879 2.47454 2.62418 4.47191 4.24414Z" fill="white"/>
</svg>
