<svg width="15" height="20" viewBox="0 0 15 20" fill="none" xmlns="http://www.w3.org/2000/svg">
<path fill-rule="evenodd" clip-rule="evenodd" d="M8.35325 0.932898C7.14728 2.23399 7.36294 2.852 9.39041 3.90632L11.1096 4.80042L11.8031 3.95603C12.6946 2.8706 12.6861 1.59239 11.7812 0.687557C10.7816 -0.312049 9.41651 -0.214413 8.35325 0.932898ZM3.69677 8.78704C2.14389 11.4854 0.684361 14.1867 0.453325 14.79C-0.155379 16.3805 -0.149657 19.6425 0.461909 19.6425C0.984422 19.6425 3.4736 17.9333 4.15097 17.1093C4.99465 16.0833 10.3507 6.58934 10.3507 6.12012C10.3507 4.94849 9.35429 6.24458 6.46669 11.1721C4.5805 14.3909 2.90281 16.8157 2.15999 17.3969L0.94365 18.3486L1.12855 16.7074C1.26338 15.5125 2.0999 13.71 4.20319 10.081C7.31073 4.72031 7.5203 4.25252 6.91553 4.02792C6.69809 3.94709 5.24964 6.089 3.69677 8.78704ZM4.27078 19.2466C4.27078 19.4222 4.52542 19.6636 4.83657 19.7831C5.57152 20.0652 11.1958 20.0652 11.9307 19.7831C13.3849 19.2251 12.15 18.9272 8.38365 18.9272C6.12157 18.9272 4.27078 19.071 4.27078 19.2466ZM14.2847 19.2849C14.2847 19.4816 14.4457 19.6425 14.6424 19.6425C14.8391 19.6425 15 19.4816 15 19.2849C15 19.0882 14.8391 18.9272 14.6424 18.9272C14.4457 18.9272 14.2847 19.0882 14.2847 19.2849Z" fill="white"/>
</svg>
