<svg width="75" height="109" viewBox="0 0 75 109" fill="none" xmlns="http://www.w3.org/2000/svg"><path d="M30.8037 81.6597C30.8037 85.2556 33.8077 88.1871 37.5001 88.1871C41.1907 88.1871 44.1934 85.2582 44.1965 81.6575C44.1394 79.6526 41.3559 73.9603 37.5014 67.6245C33.6439 73.9668 30.8581 79.6618 30.8037 81.6597Z" fill="#FD8500"/>
    <defs>
        <linearGradient id="paint0_linear_1_2660" x1="37.5" y1="15.7266" x2="37.5" y2="108.819" gradientUnits="userSpaceOnUse">
            <stop stop-color="#F5F5F5"/>
            <stop offset="1" stop-color="#515151"/>
        </linearGradient>
    </defs>
<path d="M75 45.0753C75 44.2883 74.6963 43.531 74.1506 42.9578L49.1506 16.6985C48.56 16.0783 47.7367 15.7266 46.875 15.7266H15.625C14.7325 15.7266 13.8825 16.1039 13.2894 16.7633L0.789375 30.6654C0.281042 31.2309 0 31.9612 0 32.7179V87.1932C0 89.5646 0.905625 91.731 2.39292 93.3719C0.905625 95.0127 0 97.1792 0 99.5505C0 104.661 4.20563 108.819 9.375 108.819H65.625C70.7944 108.819 75 104.661 75 99.5505C75 97.1792 74.0944 95.0127 72.6071 93.3719C74.0946 91.731 75 89.5646 75 87.1932V45.0753ZM37.5 90.2817C32.3306 90.2817 28.125 86.1241 28.125 81.0137C28.125 79.7413 28.4927 77.4231 31.6719 72.0052C33.2777 69.2685 34.8621 66.9959 34.9287 66.9006C35.5123 66.0656 36.4733 65.567 37.5 65.567C38.5267 65.567 39.4877 66.0654 40.0713 66.9006C40.1379 66.9959 41.7223 69.2685 43.3281 72.0052C46.5073 77.4233 46.875 79.7413 46.875 81.0137C46.875 86.1241 42.6694 90.2817 37.5 90.2817ZM60.5369 53.8343C59.3283 54.9597 57.7902 55.5147 56.2523 55.5147C54.5892 55.5147 52.9319 54.8631 51.7021 53.5718L37.3496 38.4962C34.9815 36.0103 35.1035 32.1002 37.615 29.7622C40.1327 27.424 44.0908 27.5418 46.4498 30.0246L60.8023 45.1002C63.1704 47.5863 63.0483 51.4961 60.5369 53.8343Z" fill="url(#paint0_linear_1_2660)"/>
<path d="M40.8749 0H22.1249C20.3991 0 18.9999 1.3832 18.9999 3.08934V11.5933H43.9999V3.08934C43.9999 1.3832 42.6008 0 40.8749 0Z" fill="white"/>
</svg>
