<svg width="20" height="20" viewBox="0 0 20 20" fill="none" xmlns="http://www.w3.org/2000/svg">
<mask id="path-1-outside-1_1_3647" maskUnits="userSpaceOnUse" x="0" y="0" width="20" height="20" fill="black">
<rect fill="white" width="20" height="20"/>
<path fill-rule="evenodd" clip-rule="evenodd" d="M8.70324 1.25697L8.71436 1.51395L9.18341 1.53842C9.44135 1.55189 9.85147 1.59125 10.0948 1.62588C10.3381 1.66048 10.7882 1.75262 11.0951 1.83059C11.402 1.9086 11.8121 2.03057 12.0065 2.1017C12.2009 2.17279 12.5117 2.29811 12.6972 2.38021C12.8827 2.46231 13.1924 2.61676 13.3854 2.72345C13.5784 2.83014 13.8953 3.02131 14.0897 3.14827C14.284 3.27519 14.6181 3.51993 14.832 3.69212C15.0458 3.86432 15.3975 4.18118 15.6134 4.39634C15.8293 4.61147 16.1454 4.96259 16.3158 5.17657C16.4862 5.39057 16.7312 5.72537 16.8604 5.92055C16.9896 6.11578 17.1781 6.42613 17.2793 6.61027C17.3806 6.79441 17.5351 7.10409 17.6228 7.29846C17.7104 7.49283 17.8454 7.82822 17.9227 8.04379C17.9999 8.25936 18.1228 8.67785 18.1958 8.97377C18.2687 9.26969 18.3549 9.69596 18.3873 9.92102C18.4197 10.1461 18.4561 10.552 18.4684 10.8231L18.4907 11.316H18.7453H19V11.0249C19 10.8647 18.9819 10.5509 18.9599 10.3274C18.9378 10.1039 18.8796 9.70202 18.8306 9.43437C18.7816 9.16673 18.6832 8.74537 18.612 8.49795C18.5408 8.25058 18.4218 7.88368 18.3476 7.68262C18.2733 7.48155 18.0884 7.06429 17.9364 6.75535C17.7845 6.44644 17.5127 5.96936 17.3323 5.69516C17.1519 5.421 16.8529 5.01255 16.6679 4.7875C16.4828 4.56244 16.1241 4.17702 15.8708 3.93098C15.6175 3.68494 15.2763 3.37663 15.1127 3.24584C14.949 3.11505 14.6182 2.87772 14.3775 2.71846C14.1369 2.55921 13.7682 2.33672 13.5581 2.22408C13.3481 2.11144 12.9842 1.93698 12.7495 1.83643C12.5148 1.73584 12.1135 1.58597 11.8577 1.50331C11.602 1.42065 11.2002 1.31065 10.9649 1.2588C10.7296 1.20698 10.3614 1.13834 10.1465 1.10628C9.93171 1.07425 9.51657 1.03724 9.22403 1.02403L8.69208 1L8.70324 1.25697ZM8.70324 4.60503L8.71436 4.8619L9.12355 4.88901C9.34861 4.90389 9.71279 4.95047 9.93283 4.99247C10.1529 5.03446 10.4849 5.11846 10.6706 5.17913C10.8563 5.23984 11.1449 5.34958 11.312 5.42305C11.4791 5.49652 11.7693 5.64695 11.9569 5.75736C12.1445 5.86777 12.4295 6.05719 12.5902 6.17831C12.7509 6.29943 13.0399 6.55499 13.2323 6.7462C13.4248 6.9374 13.7031 7.25609 13.8509 7.45436C13.9988 7.65263 14.2044 7.96515 14.3079 8.14884C14.4115 8.33253 14.5633 8.64404 14.6453 8.84112C14.7273 9.0382 14.8275 9.31158 14.8679 9.44862C14.9084 9.58566 14.9765 9.87139 15.0194 10.0835C15.0622 10.2957 15.1075 10.6597 15.12 10.8926L15.1426 11.316H15.403H15.6634L15.6403 10.8789C15.6275 10.6385 15.5919 10.302 15.5612 10.131C15.5305 9.96011 15.4631 9.66516 15.4115 9.47559C15.3598 9.28599 15.2744 9.01573 15.2216 8.87497C15.1688 8.73421 15.0448 8.45164 14.946 8.24704C14.8473 8.04245 14.6788 7.74113 14.5717 7.57745C14.4646 7.41378 14.3001 7.17942 14.2061 7.05666C14.1121 6.9339 13.8927 6.68504 13.7184 6.50362C13.5441 6.3222 13.2759 6.06965 13.1225 5.94239C12.969 5.81517 12.7158 5.62549 12.5598 5.52092C12.4038 5.41635 12.1192 5.24791 11.9274 5.14658C11.7356 5.04525 11.4272 4.90255 11.242 4.82949C11.0568 4.75647 10.744 4.65373 10.5468 4.60124C10.3496 4.54875 10.0491 4.48082 9.87911 4.45025C9.70907 4.41967 9.37242 4.38422 9.13103 4.37142L8.69211 4.34817L8.70324 4.60503ZM3.19396 5.34813C3.0426 5.39972 2.83335 5.4986 2.72897 5.56794C2.62463 5.63724 2.25062 5.98569 1.89782 6.34221C1.39061 6.85482 1.2375 7.03315 1.16611 7.19452C1.11649 7.30679 1.05533 7.50294 1.03026 7.63046C1.00132 7.77755 0.992613 8.00748 1.00641 8.25928C1.01973 8.50231 1.06582 8.79975 1.12523 9.02637C1.17861 9.22993 1.28809 9.56472 1.36848 9.77036C1.44886 9.97596 1.62095 10.3535 1.75085 10.6093C1.88075 10.8651 2.12415 11.2952 2.29177 11.565C2.45939 11.8348 2.7408 12.2532 2.9172 12.4948C3.09356 12.7365 3.33945 13.0597 3.46366 13.2132C3.58783 13.3666 3.83971 13.6679 4.0234 13.8828C4.20709 14.0976 4.68488 14.5998 5.08511 14.9987C5.48534 15.3977 6.00717 15.8883 6.24473 16.0889C6.48232 16.2894 6.85896 16.5957 7.08171 16.7695C7.3045 16.9433 7.72113 17.2422 8.00757 17.4337C8.29401 17.6252 8.7125 17.8874 8.93756 18.0162C9.16261 18.1451 9.54071 18.3374 9.77778 18.4436C10.0149 18.5499 10.358 18.6877 10.5404 18.75C10.7227 18.8123 11.042 18.8977 11.2498 18.9398C11.472 18.9848 11.7717 19.0163 11.9777 19.0163C12.1911 19.0163 12.4067 18.9929 12.5298 18.9564C12.641 18.9234 12.7989 18.8629 12.8807 18.8219C12.9625 18.7808 13.3203 18.4605 13.6758 18.1099C14.0312 17.7593 14.3872 17.3733 14.4668 17.252C14.5464 17.1307 14.6457 16.9215 14.6874 16.787C14.7397 16.6182 14.7632 16.4389 14.7635 16.2077C14.7638 15.9739 14.7409 15.7992 14.6877 15.6285C14.6458 15.494 14.5465 15.2847 14.4671 15.1635C14.3876 15.0422 13.9814 14.6066 13.5644 14.1956C12.9809 13.6204 12.758 13.4249 12.5968 13.3471C12.4816 13.2915 12.2975 13.2221 12.1876 13.1928C12.0778 13.1636 11.8617 13.1394 11.7074 13.1392C11.5532 13.139 11.3285 13.1644 11.2083 13.1957C11.088 13.227 10.8907 13.3054 10.7698 13.3698C10.649 13.4342 10.4111 13.6161 10.2411 13.7739C10.0502 13.9512 9.88744 14.0707 9.81531 14.0866C9.75107 14.1007 9.62775 14.1006 9.54123 14.0865C9.45474 14.0723 9.2584 14.0127 9.10495 13.9539C8.95151 13.8952 8.6753 13.7495 8.49116 13.6302C8.30702 13.5109 8.00571 13.2868 7.82157 13.1321C7.63743 12.9774 7.3664 12.7241 7.21928 12.5692C7.07215 12.4143 6.85268 12.1629 6.73159 12.0105C6.61051 11.8581 6.43362 11.6086 6.33854 11.4561C6.24346 11.3035 6.12372 11.0754 6.07242 10.9492C6.02116 10.8231 5.96104 10.6352 5.93887 10.5317C5.91666 10.4282 5.90948 10.2851 5.92291 10.2135C5.94021 10.1213 6.03128 9.99307 6.23606 9.77255C6.3949 9.60151 6.57755 9.36273 6.64194 9.24191C6.70637 9.12104 6.78471 8.92378 6.81603 8.80347C6.84736 8.68321 6.87299 8.45822 6.87299 8.30351C6.87299 8.14378 6.84315 7.91467 6.80398 7.77335C6.766 7.63642 6.67851 7.43126 6.6095 7.31743C6.5325 7.19039 6.1819 6.81211 5.70202 6.3383C5.18718 5.82997 4.85551 5.53208 4.73123 5.46635C4.62741 5.41144 4.44394 5.34088 4.32352 5.30952C4.20311 5.27816 3.96165 5.25294 3.78692 5.25346C3.54687 5.25416 3.40198 5.2773 3.19396 5.34813ZM4.28603 5.83537C4.36701 5.86379 4.51038 5.93651 4.60464 5.997C4.69894 6.05752 5.07748 6.41274 5.44591 6.78644C5.96915 7.31717 6.1396 7.5147 6.22468 7.68905C6.324 7.89261 6.3336 7.94662 6.3336 8.30284C6.3336 8.6456 6.32177 8.71862 6.2371 8.89919C6.17885 9.02332 6.01335 9.2412 5.81987 9.44847C5.56513 9.72133 5.48738 9.83152 5.44207 9.98415C5.41068 10.0898 5.38527 10.2444 5.38557 10.3277C5.38587 10.4109 5.4115 10.5878 5.44248 10.7208C5.47351 10.8538 5.58038 11.13 5.67996 11.3346C5.77958 11.5392 5.95903 11.8433 6.07874 12.0104C6.19845 12.1776 6.44438 12.4816 6.62524 12.686C6.80614 12.8904 7.12137 13.2056 7.32578 13.3865C7.53019 13.5674 7.83418 13.8133 8.00132 13.933C8.16842 14.0527 8.47334 14.2329 8.67887 14.3333C8.88942 14.4362 9.1737 14.5416 9.32986 14.5746C9.5025 14.6111 9.68188 14.6247 9.80519 14.6108C9.91411 14.5984 10.0612 14.564 10.132 14.5345C10.2028 14.5048 10.402 14.3454 10.5746 14.1801C10.7736 13.9895 10.9669 13.8428 11.1033 13.7789C11.2943 13.6894 11.362 13.6782 11.7089 13.6782C12.0632 13.6782 12.1202 13.6881 12.3227 13.7856C12.503 13.8724 12.6861 14.0332 13.2753 14.6226C13.8394 15.1867 14.0271 15.3987 14.1033 15.5577C14.1575 15.6708 14.2147 15.8633 14.2305 15.9855C14.2462 16.1077 14.2463 16.304 14.2307 16.4217C14.2151 16.5393 14.1532 16.7318 14.0933 16.8494C14.0114 17.01 13.8235 17.2224 13.3395 17.7014C12.9192 18.1172 12.6429 18.3613 12.5459 18.4023C12.4641 18.4369 12.2593 18.4744 12.0908 18.4856C11.9207 18.4969 11.6562 18.4857 11.4956 18.4605C11.3367 18.4356 10.9975 18.3463 10.7417 18.2622C10.4843 18.1775 10.0028 17.9721 9.66294 17.8021C9.32536 17.6331 8.77295 17.3125 8.43536 17.0895C8.09778 16.8665 7.66016 16.5602 7.4629 16.4087C7.26563 16.2572 6.88913 15.9492 6.62624 15.7241C6.36336 15.4991 5.90722 15.0806 5.61263 14.7941C5.31801 14.5077 4.86757 14.039 4.61167 13.7526C4.35574 13.4661 4.00238 13.0507 3.82639 12.8295C3.65044 12.6082 3.36902 12.2315 3.20103 11.9925C3.03308 11.7534 2.76974 11.3474 2.61585 11.0903C2.46195 10.8331 2.23675 10.4147 2.1154 10.1603C1.99402 9.90591 1.83514 9.52585 1.76227 9.31571C1.6894 9.10553 1.60239 8.79826 1.56887 8.63288C1.52776 8.42999 1.513 8.21542 1.52349 7.9734C1.53494 7.70936 1.5608 7.56555 1.62147 7.42866C1.68452 7.28648 1.84887 7.10078 2.31922 6.64033C2.65762 6.30906 3.00972 5.99395 3.1016 5.94008C3.19348 5.88626 3.37237 5.8193 3.49915 5.79136C3.63388 5.76164 3.81464 5.74947 3.93423 5.76208C4.04676 5.77399 4.20508 5.80695 4.28603 5.83537ZM8.70324 7.95313L8.71436 8.20984L9.02605 8.23808C9.20238 8.25404 9.48513 8.3153 9.67704 8.37914C9.86367 8.44119 10.1486 8.57075 10.3103 8.6671C10.4778 8.76687 10.726 8.96388 10.8869 9.12484C11.0479 9.2858 11.2449 9.53399 11.3447 9.70143C11.441 9.86314 11.5716 10.1512 11.6349 10.3415C11.7085 10.5627 11.758 10.801 11.7722 11.0018L11.7944 11.316H12.0548H12.3151L12.2929 10.9905C12.2806 10.8115 12.2351 10.5316 12.1917 10.3685C12.1483 10.2054 12.0567 9.95055 11.9881 9.80209C11.9195 9.65359 11.778 9.40863 11.6736 9.25768C11.5693 9.10672 11.363 8.8666 11.2151 8.72405C11.0673 8.5815 10.8396 8.39286 10.7091 8.30485C10.5786 8.2168 10.3521 8.0895 10.2058 8.02188C10.0595 7.95428 9.80631 7.86344 9.64323 7.82007C9.48018 7.77666 9.19944 7.73109 9.01943 7.71877L8.69211 7.69642L8.70324 7.95313Z"/>
</mask>
<path fill-rule="evenodd" clip-rule="evenodd" d="M8.70324 1.25697L8.71436 1.51395L9.18341 1.53842C9.44135 1.55189 9.85147 1.59125 10.0948 1.62588C10.3381 1.66048 10.7882 1.75262 11.0951 1.83059C11.402 1.9086 11.8121 2.03057 12.0065 2.1017C12.2009 2.17279 12.5117 2.29811 12.6972 2.38021C12.8827 2.46231 13.1924 2.61676 13.3854 2.72345C13.5784 2.83014 13.8953 3.02131 14.0897 3.14827C14.284 3.27519 14.6181 3.51993 14.832 3.69212C15.0458 3.86432 15.3975 4.18118 15.6134 4.39634C15.8293 4.61147 16.1454 4.96259 16.3158 5.17657C16.4862 5.39057 16.7312 5.72537 16.8604 5.92055C16.9896 6.11578 17.1781 6.42613 17.2793 6.61027C17.3806 6.79441 17.5351 7.10409 17.6228 7.29846C17.7104 7.49283 17.8454 7.82822 17.9227 8.04379C17.9999 8.25936 18.1228 8.67785 18.1958 8.97377C18.2687 9.26969 18.3549 9.69596 18.3873 9.92102C18.4197 10.1461 18.4561 10.552 18.4684 10.8231L18.4907 11.316H18.7453H19V11.0249C19 10.8647 18.9819 10.5509 18.9599 10.3274C18.9378 10.1039 18.8796 9.70202 18.8306 9.43437C18.7816 9.16673 18.6832 8.74537 18.612 8.49795C18.5408 8.25058 18.4218 7.88368 18.3476 7.68262C18.2733 7.48155 18.0884 7.06429 17.9364 6.75535C17.7845 6.44644 17.5127 5.96936 17.3323 5.69516C17.1519 5.421 16.8529 5.01255 16.6679 4.7875C16.4828 4.56244 16.1241 4.17702 15.8708 3.93098C15.6175 3.68494 15.2763 3.37663 15.1127 3.24584C14.949 3.11505 14.6182 2.87772 14.3775 2.71846C14.1369 2.55921 13.7682 2.33672 13.5581 2.22408C13.3481 2.11144 12.9842 1.93698 12.7495 1.83643C12.5148 1.73584 12.1135 1.58597 11.8577 1.50331C11.602 1.42065 11.2002 1.31065 10.9649 1.2588C10.7296 1.20698 10.3614 1.13834 10.1465 1.10628C9.93171 1.07425 9.51657 1.03724 9.22403 1.02403L8.69208 1L8.70324 1.25697ZM8.70324 4.60503L8.71436 4.8619L9.12355 4.88901C9.34861 4.90389 9.71279 4.95047 9.93283 4.99247C10.1529 5.03446 10.4849 5.11846 10.6706 5.17913C10.8563 5.23984 11.1449 5.34958 11.312 5.42305C11.4791 5.49652 11.7693 5.64695 11.9569 5.75736C12.1445 5.86777 12.4295 6.05719 12.5902 6.17831C12.7509 6.29943 13.0399 6.55499 13.2323 6.7462C13.4248 6.9374 13.7031 7.25609 13.8509 7.45436C13.9988 7.65263 14.2044 7.96515 14.3079 8.14884C14.4115 8.33253 14.5633 8.64404 14.6453 8.84112C14.7273 9.0382 14.8275 9.31158 14.8679 9.44862C14.9084 9.58566 14.9765 9.87139 15.0194 10.0835C15.0622 10.2957 15.1075 10.6597 15.12 10.8926L15.1426 11.316H15.403H15.6634L15.6403 10.8789C15.6275 10.6385 15.5919 10.302 15.5612 10.131C15.5305 9.96011 15.4631 9.66516 15.4115 9.47559C15.3598 9.28599 15.2744 9.01573 15.2216 8.87497C15.1688 8.73421 15.0448 8.45164 14.946 8.24704C14.8473 8.04245 14.6788 7.74113 14.5717 7.57745C14.4646 7.41378 14.3001 7.17942 14.2061 7.05666C14.1121 6.9339 13.8927 6.68504 13.7184 6.50362C13.5441 6.3222 13.2759 6.06965 13.1225 5.94239C12.969 5.81517 12.7158 5.62549 12.5598 5.52092C12.4038 5.41635 12.1192 5.24791 11.9274 5.14658C11.7356 5.04525 11.4272 4.90255 11.242 4.82949C11.0568 4.75647 10.744 4.65373 10.5468 4.60124C10.3496 4.54875 10.0491 4.48082 9.87911 4.45025C9.70907 4.41967 9.37242 4.38422 9.13103 4.37142L8.69211 4.34817L8.70324 4.60503ZM3.19396 5.34813C3.0426 5.39972 2.83335 5.4986 2.72897 5.56794C2.62463 5.63724 2.25062 5.98569 1.89782 6.34221C1.39061 6.85482 1.2375 7.03315 1.16611 7.19452C1.11649 7.30679 1.05533 7.50294 1.03026 7.63046C1.00132 7.77755 0.992613 8.00748 1.00641 8.25928C1.01973 8.50231 1.06582 8.79975 1.12523 9.02637C1.17861 9.22993 1.28809 9.56472 1.36848 9.77036C1.44886 9.97596 1.62095 10.3535 1.75085 10.6093C1.88075 10.8651 2.12415 11.2952 2.29177 11.565C2.45939 11.8348 2.7408 12.2532 2.9172 12.4948C3.09356 12.7365 3.33945 13.0597 3.46366 13.2132C3.58783 13.3666 3.83971 13.6679 4.0234 13.8828C4.20709 14.0976 4.68488 14.5998 5.08511 14.9987C5.48534 15.3977 6.00717 15.8883 6.24473 16.0889C6.48232 16.2894 6.85896 16.5957 7.08171 16.7695C7.3045 16.9433 7.72113 17.2422 8.00757 17.4337C8.29401 17.6252 8.7125 17.8874 8.93756 18.0162C9.16261 18.1451 9.54071 18.3374 9.77778 18.4436C10.0149 18.5499 10.358 18.6877 10.5404 18.75C10.7227 18.8123 11.042 18.8977 11.2498 18.9398C11.472 18.9848 11.7717 19.0163 11.9777 19.0163C12.1911 19.0163 12.4067 18.9929 12.5298 18.9564C12.641 18.9234 12.7989 18.8629 12.8807 18.8219C12.9625 18.7808 13.3203 18.4605 13.6758 18.1099C14.0312 17.7593 14.3872 17.3733 14.4668 17.252C14.5464 17.1307 14.6457 16.9215 14.6874 16.787C14.7397 16.6182 14.7632 16.4389 14.7635 16.2077C14.7638 15.9739 14.7409 15.7992 14.6877 15.6285C14.6458 15.494 14.5465 15.2847 14.4671 15.1635C14.3876 15.0422 13.9814 14.6066 13.5644 14.1956C12.9809 13.6204 12.758 13.4249 12.5968 13.3471C12.4816 13.2915 12.2975 13.2221 12.1876 13.1928C12.0778 13.1636 11.8617 13.1394 11.7074 13.1392C11.5532 13.139 11.3285 13.1644 11.2083 13.1957C11.088 13.227 10.8907 13.3054 10.7698 13.3698C10.649 13.4342 10.4111 13.6161 10.2411 13.7739C10.0502 13.9512 9.88744 14.0707 9.81531 14.0866C9.75107 14.1007 9.62775 14.1006 9.54123 14.0865C9.45474 14.0723 9.2584 14.0127 9.10495 13.9539C8.95151 13.8952 8.6753 13.7495 8.49116 13.6302C8.30702 13.5109 8.00571 13.2868 7.82157 13.1321C7.63743 12.9774 7.3664 12.7241 7.21928 12.5692C7.07215 12.4143 6.85268 12.1629 6.73159 12.0105C6.61051 11.8581 6.43362 11.6086 6.33854 11.4561C6.24346 11.3035 6.12372 11.0754 6.07242 10.9492C6.02116 10.8231 5.96104 10.6352 5.93887 10.5317C5.91666 10.4282 5.90948 10.2851 5.92291 10.2135C5.94021 10.1213 6.03128 9.99307 6.23606 9.77255C6.3949 9.60151 6.57755 9.36273 6.64194 9.24191C6.70637 9.12104 6.78471 8.92378 6.81603 8.80347C6.84736 8.68321 6.87299 8.45822 6.87299 8.30351C6.87299 8.14378 6.84315 7.91467 6.80398 7.77335C6.766 7.63642 6.67851 7.43126 6.6095 7.31743C6.5325 7.19039 6.1819 6.81211 5.70202 6.3383C5.18718 5.82997 4.85551 5.53208 4.73123 5.46635C4.62741 5.41144 4.44394 5.34088 4.32352 5.30952C4.20311 5.27816 3.96165 5.25294 3.78692 5.25346C3.54687 5.25416 3.40198 5.2773 3.19396 5.34813ZM4.28603 5.83537C4.36701 5.86379 4.51038 5.93651 4.60464 5.997C4.69894 6.05752 5.07748 6.41274 5.44591 6.78644C5.96915 7.31717 6.1396 7.5147 6.22468 7.68905C6.324 7.89261 6.3336 7.94662 6.3336 8.30284C6.3336 8.6456 6.32177 8.71862 6.2371 8.89919C6.17885 9.02332 6.01335 9.2412 5.81987 9.44847C5.56513 9.72133 5.48738 9.83152 5.44207 9.98415C5.41068 10.0898 5.38527 10.2444 5.38557 10.3277C5.38587 10.4109 5.4115 10.5878 5.44248 10.7208C5.47351 10.8538 5.58038 11.13 5.67996 11.3346C5.77958 11.5392 5.95903 11.8433 6.07874 12.0104C6.19845 12.1776 6.44438 12.4816 6.62524 12.686C6.80614 12.8904 7.12137 13.2056 7.32578 13.3865C7.53019 13.5674 7.83418 13.8133 8.00132 13.933C8.16842 14.0527 8.47334 14.2329 8.67887 14.3333C8.88942 14.4362 9.1737 14.5416 9.32986 14.5746C9.5025 14.6111 9.68188 14.6247 9.80519 14.6108C9.91411 14.5984 10.0612 14.564 10.132 14.5345C10.2028 14.5048 10.402 14.3454 10.5746 14.1801C10.7736 13.9895 10.9669 13.8428 11.1033 13.7789C11.2943 13.6894 11.362 13.6782 11.7089 13.6782C12.0632 13.6782 12.1202 13.6881 12.3227 13.7856C12.503 13.8724 12.6861 14.0332 13.2753 14.6226C13.8394 15.1867 14.0271 15.3987 14.1033 15.5577C14.1575 15.6708 14.2147 15.8633 14.2305 15.9855C14.2462 16.1077 14.2463 16.304 14.2307 16.4217C14.2151 16.5393 14.1532 16.7318 14.0933 16.8494C14.0114 17.01 13.8235 17.2224 13.3395 17.7014C12.9192 18.1172 12.6429 18.3613 12.5459 18.4023C12.4641 18.4369 12.2593 18.4744 12.0908 18.4856C11.9207 18.4969 11.6562 18.4857 11.4956 18.4605C11.3367 18.4356 10.9975 18.3463 10.7417 18.2622C10.4843 18.1775 10.0028 17.9721 9.66294 17.8021C9.32536 17.6331 8.77295 17.3125 8.43536 17.0895C8.09778 16.8665 7.66016 16.5602 7.4629 16.4087C7.26563 16.2572 6.88913 15.9492 6.62624 15.7241C6.36336 15.4991 5.90722 15.0806 5.61263 14.7941C5.31801 14.5077 4.86757 14.039 4.61167 13.7526C4.35574 13.4661 4.00238 13.0507 3.82639 12.8295C3.65044 12.6082 3.36902 12.2315 3.20103 11.9925C3.03308 11.7534 2.76974 11.3474 2.61585 11.0903C2.46195 10.8331 2.23675 10.4147 2.1154 10.1603C1.99402 9.90591 1.83514 9.52585 1.76227 9.31571C1.6894 9.10553 1.60239 8.79826 1.56887 8.63288C1.52776 8.42999 1.513 8.21542 1.52349 7.9734C1.53494 7.70936 1.5608 7.56555 1.62147 7.42866C1.68452 7.28648 1.84887 7.10078 2.31922 6.64033C2.65762 6.30906 3.00972 5.99395 3.1016 5.94008C3.19348 5.88626 3.37237 5.8193 3.49915 5.79136C3.63388 5.76164 3.81464 5.74947 3.93423 5.76208C4.04676 5.77399 4.20508 5.80695 4.28603 5.83537ZM8.70324 7.95313L8.71436 8.20984L9.02605 8.23808C9.20238 8.25404 9.48513 8.3153 9.67704 8.37914C9.86367 8.44119 10.1486 8.57075 10.3103 8.6671C10.4778 8.76687 10.726 8.96388 10.8869 9.12484C11.0479 9.2858 11.2449 9.53399 11.3447 9.70143C11.441 9.86314 11.5716 10.1512 11.6349 10.3415C11.7085 10.5627 11.758 10.801 11.7722 11.0018L11.7944 11.316H12.0548H12.3151L12.2929 10.9905C12.2806 10.8115 12.2351 10.5316 12.1917 10.3685C12.1483 10.2054 12.0567 9.95055 11.9881 9.80209C11.9195 9.65359 11.778 9.40863 11.6736 9.25768C11.5693 9.10672 11.363 8.8666 11.2151 8.72405C11.0673 8.5815 10.8396 8.39286 10.7091 8.30485C10.5786 8.2168 10.3521 8.0895 10.2058 8.02188C10.0595 7.95428 9.80631 7.86344 9.64323 7.82007C9.48018 7.77666 9.19944 7.73109 9.01943 7.71877L8.69211 7.69642L8.70324 7.95313Z" fill="white"/>
<path fill-rule="evenodd" clip-rule="evenodd" d="M8.70324 1.25697L8.71436 1.51395L9.18341 1.53842C9.44135 1.55189 9.85147 1.59125 10.0948 1.62588C10.3381 1.66048 10.7882 1.75262 11.0951 1.83059C11.402 1.9086 11.8121 2.03057 12.0065 2.1017C12.2009 2.17279 12.5117 2.29811 12.6972 2.38021C12.8827 2.46231 13.1924 2.61676 13.3854 2.72345C13.5784 2.83014 13.8953 3.02131 14.0897 3.14827C14.284 3.27519 14.6181 3.51993 14.832 3.69212C15.0458 3.86432 15.3975 4.18118 15.6134 4.39634C15.8293 4.61147 16.1454 4.96259 16.3158 5.17657C16.4862 5.39057 16.7312 5.72537 16.8604 5.92055C16.9896 6.11578 17.1781 6.42613 17.2793 6.61027C17.3806 6.79441 17.5351 7.10409 17.6228 7.29846C17.7104 7.49283 17.8454 7.82822 17.9227 8.04379C17.9999 8.25936 18.1228 8.67785 18.1958 8.97377C18.2687 9.26969 18.3549 9.69596 18.3873 9.92102C18.4197 10.1461 18.4561 10.552 18.4684 10.8231L18.4907 11.316H18.7453H19V11.0249C19 10.8647 18.9819 10.5509 18.9599 10.3274C18.9378 10.1039 18.8796 9.70202 18.8306 9.43437C18.7816 9.16673 18.6832 8.74537 18.612 8.49795C18.5408 8.25058 18.4218 7.88368 18.3476 7.68262C18.2733 7.48155 18.0884 7.06429 17.9364 6.75535C17.7845 6.44644 17.5127 5.96936 17.3323 5.69516C17.1519 5.421 16.8529 5.01255 16.6679 4.7875C16.4828 4.56244 16.1241 4.17702 15.8708 3.93098C15.6175 3.68494 15.2763 3.37663 15.1127 3.24584C14.949 3.11505 14.6182 2.87772 14.3775 2.71846C14.1369 2.55921 13.7682 2.33672 13.5581 2.22408C13.3481 2.11144 12.9842 1.93698 12.7495 1.83643C12.5148 1.73584 12.1135 1.58597 11.8577 1.50331C11.602 1.42065 11.2002 1.31065 10.9649 1.2588C10.7296 1.20698 10.3614 1.13834 10.1465 1.10628C9.93171 1.07425 9.51657 1.03724 9.22403 1.02403L8.69208 1L8.70324 1.25697ZM8.70324 4.60503L8.71436 4.8619L9.12355 4.88901C9.34861 4.90389 9.71279 4.95047 9.93283 4.99247C10.1529 5.03446 10.4849 5.11846 10.6706 5.17913C10.8563 5.23984 11.1449 5.34958 11.312 5.42305C11.4791 5.49652 11.7693 5.64695 11.9569 5.75736C12.1445 5.86777 12.4295 6.05719 12.5902 6.17831C12.7509 6.29943 13.0399 6.55499 13.2323 6.7462C13.4248 6.9374 13.7031 7.25609 13.8509 7.45436C13.9988 7.65263 14.2044 7.96515 14.3079 8.14884C14.4115 8.33253 14.5633 8.64404 14.6453 8.84112C14.7273 9.0382 14.8275 9.31158 14.8679 9.44862C14.9084 9.58566 14.9765 9.87139 15.0194 10.0835C15.0622 10.2957 15.1075 10.6597 15.12 10.8926L15.1426 11.316H15.403H15.6634L15.6403 10.8789C15.6275 10.6385 15.5919 10.302 15.5612 10.131C15.5305 9.96011 15.4631 9.66516 15.4115 9.47559C15.3598 9.28599 15.2744 9.01573 15.2216 8.87497C15.1688 8.73421 15.0448 8.45164 14.946 8.24704C14.8473 8.04245 14.6788 7.74113 14.5717 7.57745C14.4646 7.41378 14.3001 7.17942 14.2061 7.05666C14.1121 6.9339 13.8927 6.68504 13.7184 6.50362C13.5441 6.3222 13.2759 6.06965 13.1225 5.94239C12.969 5.81517 12.7158 5.62549 12.5598 5.52092C12.4038 5.41635 12.1192 5.24791 11.9274 5.14658C11.7356 5.04525 11.4272 4.90255 11.242 4.82949C11.0568 4.75647 10.744 4.65373 10.5468 4.60124C10.3496 4.54875 10.0491 4.48082 9.87911 4.45025C9.70907 4.41967 9.37242 4.38422 9.13103 4.37142L8.69211 4.34817L8.70324 4.60503ZM3.19396 5.34813C3.0426 5.39972 2.83335 5.4986 2.72897 5.56794C2.62463 5.63724 2.25062 5.98569 1.89782 6.34221C1.39061 6.85482 1.2375 7.03315 1.16611 7.19452C1.11649 7.30679 1.05533 7.50294 1.03026 7.63046C1.00132 7.77755 0.992613 8.00748 1.00641 8.25928C1.01973 8.50231 1.06582 8.79975 1.12523 9.02637C1.17861 9.22993 1.28809 9.56472 1.36848 9.77036C1.44886 9.97596 1.62095 10.3535 1.75085 10.6093C1.88075 10.8651 2.12415 11.2952 2.29177 11.565C2.45939 11.8348 2.7408 12.2532 2.9172 12.4948C3.09356 12.7365 3.33945 13.0597 3.46366 13.2132C3.58783 13.3666 3.83971 13.6679 4.0234 13.8828C4.20709 14.0976 4.68488 14.5998 5.08511 14.9987C5.48534 15.3977 6.00717 15.8883 6.24473 16.0889C6.48232 16.2894 6.85896 16.5957 7.08171 16.7695C7.3045 16.9433 7.72113 17.2422 8.00757 17.4337C8.29401 17.6252 8.7125 17.8874 8.93756 18.0162C9.16261 18.1451 9.54071 18.3374 9.77778 18.4436C10.0149 18.5499 10.358 18.6877 10.5404 18.75C10.7227 18.8123 11.042 18.8977 11.2498 18.9398C11.472 18.9848 11.7717 19.0163 11.9777 19.0163C12.1911 19.0163 12.4067 18.9929 12.5298 18.9564C12.641 18.9234 12.7989 18.8629 12.8807 18.8219C12.9625 18.7808 13.3203 18.4605 13.6758 18.1099C14.0312 17.7593 14.3872 17.3733 14.4668 17.252C14.5464 17.1307 14.6457 16.9215 14.6874 16.787C14.7397 16.6182 14.7632 16.4389 14.7635 16.2077C14.7638 15.9739 14.7409 15.7992 14.6877 15.6285C14.6458 15.494 14.5465 15.2847 14.4671 15.1635C14.3876 15.0422 13.9814 14.6066 13.5644 14.1956C12.9809 13.6204 12.758 13.4249 12.5968 13.3471C12.4816 13.2915 12.2975 13.2221 12.1876 13.1928C12.0778 13.1636 11.8617 13.1394 11.7074 13.1392C11.5532 13.139 11.3285 13.1644 11.2083 13.1957C11.088 13.227 10.8907 13.3054 10.7698 13.3698C10.649 13.4342 10.4111 13.6161 10.2411 13.7739C10.0502 13.9512 9.88744 14.0707 9.81531 14.0866C9.75107 14.1007 9.62775 14.1006 9.54123 14.0865C9.45474 14.0723 9.2584 14.0127 9.10495 13.9539C8.95151 13.8952 8.6753 13.7495 8.49116 13.6302C8.30702 13.5109 8.00571 13.2868 7.82157 13.1321C7.63743 12.9774 7.3664 12.7241 7.21928 12.5692C7.07215 12.4143 6.85268 12.1629 6.73159 12.0105C6.61051 11.8581 6.43362 11.6086 6.33854 11.4561C6.24346 11.3035 6.12372 11.0754 6.07242 10.9492C6.02116 10.8231 5.96104 10.6352 5.93887 10.5317C5.91666 10.4282 5.90948 10.2851 5.92291 10.2135C5.94021 10.1213 6.03128 9.99307 6.23606 9.77255C6.3949 9.60151 6.57755 9.36273 6.64194 9.24191C6.70637 9.12104 6.78471 8.92378 6.81603 8.80347C6.84736 8.68321 6.87299 8.45822 6.87299 8.30351C6.87299 8.14378 6.84315 7.91467 6.80398 7.77335C6.766 7.63642 6.67851 7.43126 6.6095 7.31743C6.5325 7.19039 6.1819 6.81211 5.70202 6.3383C5.18718 5.82997 4.85551 5.53208 4.73123 5.46635C4.62741 5.41144 4.44394 5.34088 4.32352 5.30952C4.20311 5.27816 3.96165 5.25294 3.78692 5.25346C3.54687 5.25416 3.40198 5.2773 3.19396 5.34813ZM4.28603 5.83537C4.36701 5.86379 4.51038 5.93651 4.60464 5.997C4.69894 6.05752 5.07748 6.41274 5.44591 6.78644C5.96915 7.31717 6.1396 7.5147 6.22468 7.68905C6.324 7.89261 6.3336 7.94662 6.3336 8.30284C6.3336 8.6456 6.32177 8.71862 6.2371 8.89919C6.17885 9.02332 6.01335 9.2412 5.81987 9.44847C5.56513 9.72133 5.48738 9.83152 5.44207 9.98415C5.41068 10.0898 5.38527 10.2444 5.38557 10.3277C5.38587 10.4109 5.4115 10.5878 5.44248 10.7208C5.47351 10.8538 5.58038 11.13 5.67996 11.3346C5.77958 11.5392 5.95903 11.8433 6.07874 12.0104C6.19845 12.1776 6.44438 12.4816 6.62524 12.686C6.80614 12.8904 7.12137 13.2056 7.32578 13.3865C7.53019 13.5674 7.83418 13.8133 8.00132 13.933C8.16842 14.0527 8.47334 14.2329 8.67887 14.3333C8.88942 14.4362 9.1737 14.5416 9.32986 14.5746C9.5025 14.6111 9.68188 14.6247 9.80519 14.6108C9.91411 14.5984 10.0612 14.564 10.132 14.5345C10.2028 14.5048 10.402 14.3454 10.5746 14.1801C10.7736 13.9895 10.9669 13.8428 11.1033 13.7789C11.2943 13.6894 11.362 13.6782 11.7089 13.6782C12.0632 13.6782 12.1202 13.6881 12.3227 13.7856C12.503 13.8724 12.6861 14.0332 13.2753 14.6226C13.8394 15.1867 14.0271 15.3987 14.1033 15.5577C14.1575 15.6708 14.2147 15.8633 14.2305 15.9855C14.2462 16.1077 14.2463 16.304 14.2307 16.4217C14.2151 16.5393 14.1532 16.7318 14.0933 16.8494C14.0114 17.01 13.8235 17.2224 13.3395 17.7014C12.9192 18.1172 12.6429 18.3613 12.5459 18.4023C12.4641 18.4369 12.2593 18.4744 12.0908 18.4856C11.9207 18.4969 11.6562 18.4857 11.4956 18.4605C11.3367 18.4356 10.9975 18.3463 10.7417 18.2622C10.4843 18.1775 10.0028 17.9721 9.66294 17.8021C9.32536 17.6331 8.77295 17.3125 8.43536 17.0895C8.09778 16.8665 7.66016 16.5602 7.4629 16.4087C7.26563 16.2572 6.88913 15.9492 6.62624 15.7241C6.36336 15.4991 5.90722 15.0806 5.61263 14.7941C5.31801 14.5077 4.86757 14.039 4.61167 13.7526C4.35574 13.4661 4.00238 13.0507 3.82639 12.8295C3.65044 12.6082 3.36902 12.2315 3.20103 11.9925C3.03308 11.7534 2.76974 11.3474 2.61585 11.0903C2.46195 10.8331 2.23675 10.4147 2.1154 10.1603C1.99402 9.90591 1.83514 9.52585 1.76227 9.31571C1.6894 9.10553 1.60239 8.79826 1.56887 8.63288C1.52776 8.42999 1.513 8.21542 1.52349 7.9734C1.53494 7.70936 1.5608 7.56555 1.62147 7.42866C1.68452 7.28648 1.84887 7.10078 2.31922 6.64033C2.65762 6.30906 3.00972 5.99395 3.1016 5.94008C3.19348 5.88626 3.37237 5.8193 3.49915 5.79136C3.63388 5.76164 3.81464 5.74947 3.93423 5.76208C4.04676 5.77399 4.20508 5.80695 4.28603 5.83537ZM8.70324 7.95313L8.71436 8.20984L9.02605 8.23808C9.20238 8.25404 9.48513 8.3153 9.67704 8.37914C9.86367 8.44119 10.1486 8.57075 10.3103 8.6671C10.4778 8.76687 10.726 8.96388 10.8869 9.12484C11.0479 9.2858 11.2449 9.53399 11.3447 9.70143C11.441 9.86314 11.5716 10.1512 11.6349 10.3415C11.7085 10.5627 11.758 10.801 11.7722 11.0018L11.7944 11.316H12.0548H12.3151L12.2929 10.9905C12.2806 10.8115 12.2351 10.5316 12.1917 10.3685C12.1483 10.2054 12.0567 9.95055 11.9881 9.80209C11.9195 9.65359 11.778 9.40863 11.6736 9.25768C11.5693 9.10672 11.363 8.8666 11.2151 8.72405C11.0673 8.5815 10.8396 8.39286 10.7091 8.30485C10.5786 8.2168 10.3521 8.0895 10.2058 8.02188C10.0595 7.95428 9.80631 7.86344 9.64323 7.82007C9.48018 7.77666 9.19944 7.73109 9.01943 7.71877L8.69211 7.69642L8.70324 7.95313Z" stroke="white" stroke-width="0.4" mask="url(#path-1-outside-1_1_3647)"/>
</svg>
