<svg width="20" height="20" viewBox="0 0 20 20" fill="none" xmlns="http://www.w3.org/2000/svg">
<mask id="path-1-outside-1_1_4449" maskUnits="userSpaceOnUse" x="0" y="0" width="20" height="20" fill="black">
<rect fill="white" width="20" height="20"/>
<path fill-rule="evenodd" clip-rule="evenodd" d="M9.25805 1.00753C9.17084 1.0155 8.933 1.04594 8.72951 1.07519C8.52603 1.1044 8.18009 1.16853 7.96078 1.21764C7.74144 1.2668 7.35808 1.37684 7.10885 1.46218C6.85963 1.54755 6.49206 1.69086 6.29202 1.78067C6.09196 1.87045 5.7618 2.0393 5.55832 2.1559C5.35483 2.27253 5.06149 2.45603 4.90646 2.56375C4.75142 2.67146 4.51358 2.84729 4.37792 2.95447C4.24227 3.06166 3.95112 3.32441 3.73093 3.5384C3.51074 3.75235 3.21579 4.0639 3.07551 4.23067C2.93521 4.39748 2.71699 4.68288 2.59053 4.86491C2.46407 5.04697 2.26513 5.3624 2.14847 5.56589C2.0318 5.76937 1.86288 6.09953 1.7731 6.29959C1.68329 6.49963 1.53998 6.8672 1.45461 7.11643C1.36927 7.36565 1.25849 7.75211 1.20845 7.97522C1.15838 8.1983 1.09105 8.55217 1.05874 8.76157C1.01589 9.03937 1 9.37566 1 10.0056C1 10.6355 1.01589 10.9718 1.05874 11.2496C1.09105 11.459 1.15838 11.8128 1.20845 12.0359C1.25849 12.259 1.36927 12.6455 1.45461 12.8947C1.53998 13.1439 1.68329 13.5115 1.7731 13.7115C1.86288 13.9116 2.03173 14.2418 2.14833 14.4452C2.26496 14.6487 2.44846 14.9421 2.55618 15.0971C2.66389 15.2521 2.83873 15.49 2.94468 15.6256C3.05064 15.7613 3.37681 16.1102 3.66951 16.401C3.96225 16.6919 4.35703 17.0461 4.54677 17.1883C4.73655 17.3304 5.04071 17.5403 5.22263 17.6547C5.40455 17.769 5.74274 17.9577 5.97416 18.0739C6.20556 18.1901 6.53621 18.3397 6.70893 18.4064C6.88166 18.4731 7.21033 18.5845 7.43936 18.6539C7.66836 18.7233 8.06423 18.8184 8.31905 18.8653C8.57388 18.9121 8.98057 18.9695 9.22281 18.9928C9.49539 19.0191 9.89828 19.0272 10.2799 19.0141C10.619 19.0025 11.0551 18.9696 11.2489 18.941C11.4426 18.9124 11.7598 18.8549 11.9536 18.8132C12.1474 18.7715 12.5358 18.6616 12.8168 18.569C13.0978 18.4764 13.4784 18.3327 13.6625 18.2498C13.8466 18.1668 14.1399 18.0201 14.3143 17.9237C14.4888 17.8274 14.7425 17.677 14.8781 17.5896C15.0138 17.5022 15.2754 17.3183 15.4595 17.181C15.6436 17.0436 16.0484 16.6772 16.359 16.3666C16.6696 16.0559 17.0397 15.6465 17.1815 15.4568C17.3232 15.267 17.5335 14.9617 17.6488 14.7782C17.764 14.5948 17.9532 14.2554 18.0691 14.0238C18.185 13.7923 18.3339 13.4628 18.4 13.2917C18.4661 13.1206 18.5751 12.7988 18.6422 12.5766C18.7094 12.3544 18.7972 12.0061 18.8374 11.8026C18.8776 11.5991 18.9307 11.2899 18.9553 11.1155C18.981 10.9342 19.0001 10.4588 19 10.0056C18.9999 9.54014 18.9806 9.07453 18.9531 8.87803C18.9275 8.69392 18.8668 8.35302 18.8185 8.12046C18.7701 7.88791 18.6546 7.46772 18.5618 7.18672C18.469 6.90572 18.3252 6.52517 18.2422 6.34107C18.1592 6.15696 18.0125 5.86363 17.9162 5.68921C17.8198 5.51479 17.6694 5.2611 17.5821 5.12544C17.4946 4.98978 17.3104 4.7289 17.1725 4.54568C17.0346 4.36245 16.7319 4.0158 16.4998 3.77539C16.2676 3.53494 15.9409 3.22343 15.7737 3.08312C15.6064 2.94281 15.3207 2.72456 15.1386 2.5981C14.9566 2.47164 14.6412 2.2727 14.4377 2.15604C14.2342 2.03937 13.9053 1.87102 13.7068 1.78194C13.5084 1.69287 13.1595 1.55538 12.9316 1.47641C12.7038 1.39749 12.3271 1.28734 12.0945 1.23167C11.862 1.17603 11.4893 1.10412 11.2665 1.07187C11.024 1.03682 10.5712 1.00923 10.1389 1.00317C9.74165 0.997598 9.34525 0.999572 9.25805 1.00753ZM11.3017 1.46045C11.5052 1.4928 11.8801 1.57264 12.1348 1.63786C12.3895 1.70312 12.7542 1.81383 12.9452 1.88391C13.1362 1.95403 13.5145 2.1202 13.7858 2.25318C14.0571 2.3862 14.4204 2.5844 14.5931 2.6937C14.7659 2.80296 15.0592 3.0062 15.245 3.14534C15.4308 3.28449 15.8129 3.62839 16.094 3.90953C16.3752 4.19068 16.7191 4.57277 16.8582 4.75857C16.9974 4.94437 17.2006 5.2377 17.3099 5.41043C17.4192 5.58315 17.6174 5.94643 17.7504 6.21774C17.8834 6.48906 18.0495 6.86734 18.1196 7.05836C18.1897 7.24937 18.3003 7.61406 18.3654 7.86877C18.4305 8.12349 18.5126 8.51422 18.5478 8.73708C18.597 9.04818 18.6119 9.34282 18.6119 10.0056C18.6119 10.6683 18.597 10.9629 18.5478 11.274C18.5126 11.4969 18.4305 11.8876 18.3654 12.1424C18.3003 12.3971 18.1896 12.7618 18.1193 12.9528C18.049 13.1438 17.8747 13.5379 17.7319 13.8286C17.5892 14.1193 17.3546 14.5341 17.2108 14.7503C17.067 14.9665 16.8482 15.2677 16.7246 15.4197C16.601 15.5718 16.3575 15.8439 16.1835 16.0246C16.0094 16.2053 15.7109 16.4827 15.52 16.6412C15.3291 16.7997 14.9877 17.0531 14.7612 17.2044C14.5348 17.3557 14.1117 17.5967 13.821 17.74C13.5304 17.8833 13.1362 18.0577 12.9452 18.1276C12.7542 18.1975 12.3895 18.3079 12.1348 18.3729C11.8801 18.438 11.4893 18.5201 11.2665 18.5554C10.9554 18.6046 10.6607 18.6195 9.99799 18.6195C9.33525 18.6195 9.04061 18.6046 8.72951 18.5554C8.50665 18.5201 8.11592 18.438 7.8612 18.3729C7.60649 18.3079 7.2418 18.1973 7.05079 18.1272C6.85977 18.0571 6.48149 17.8909 6.21017 17.7579C5.93886 17.6249 5.57558 17.4267 5.40286 17.3174C5.23013 17.2082 4.9368 17.0049 4.751 16.8658C4.5652 16.7266 4.18311 16.3827 3.90196 16.1016C3.62082 15.8204 3.27692 15.4384 3.13777 15.2526C2.99863 15.0668 2.79539 14.7734 2.68613 14.6007C2.57683 14.428 2.37863 14.0647 2.24561 13.7934C2.11263 13.5221 1.94646 13.1438 1.87634 12.9528C1.80626 12.7618 1.69534 12.3965 1.62991 12.1411C1.56444 11.8857 1.4822 11.495 1.44714 11.2728C1.39837 10.9637 1.3834 10.6661 1.3834 10.0056C1.3834 9.34504 1.39837 9.0474 1.44714 8.73835C1.4822 8.51616 1.56444 8.12543 1.62991 7.87001C1.69534 7.61462 1.80626 7.24937 1.87634 7.05836C1.94646 6.86734 2.11242 6.48906 2.24515 6.21774C2.37789 5.94643 2.57348 5.58667 2.67975 5.41825C2.78602 5.24986 2.98947 4.95652 3.13189 4.76639C3.27428 4.5763 3.62082 4.19068 3.90196 3.90953C4.18311 3.62839 4.56872 3.28185 4.75882 3.13946C4.94895 2.99704 5.23972 2.79567 5.40497 2.6919C5.57026 2.58813 5.87452 2.41682 6.08114 2.31118C6.28776 2.20554 6.62331 2.05276 6.82679 1.97172C7.03028 1.89068 7.37911 1.772 7.60198 1.70805C7.82484 1.64406 8.14196 1.56443 8.30669 1.53103C8.47141 1.49763 8.77268 1.44911 8.97616 1.42321C9.22196 1.39195 9.61223 1.38043 10.1389 1.38892C10.6472 1.3971 11.0645 1.42279 11.3017 1.46045ZM9.94715 2.01495C9.89933 2.08321 9.89229 2.31174 9.89229 3.79435V5.49541H8.5879H7.28352L7.30677 5.39852C7.31953 5.3452 7.39003 5.08756 7.46339 4.82594C7.53676 4.56432 7.65166 4.19963 7.71875 4.01552C7.7858 3.83142 7.90683 3.53131 7.98766 3.34862C8.06849 3.16592 8.22882 2.85525 8.34397 2.65825C8.45912 2.46125 8.55334 2.28285 8.55334 2.26185C8.55334 2.24081 8.51352 2.19229 8.46482 2.15399C8.41109 2.11175 8.34714 2.09201 8.30207 2.10378C8.26127 2.11446 8.16546 2.21995 8.08918 2.33824C8.01293 2.45649 7.85754 2.74352 7.74387 2.97607C7.63023 3.20863 7.46424 3.60175 7.37506 3.8497C7.28584 4.09766 7.15096 4.52577 7.07535 4.80106C6.9997 5.07636 6.92841 5.3452 6.91689 5.39852L6.89593 5.49541H5.73382C5.09465 5.49541 4.57172 5.4872 4.57172 5.47716C4.57172 5.46712 4.65223 5.29848 4.75061 5.10243C4.84899 4.90638 5.01428 4.60938 5.11794 4.4424C5.2216 4.27545 5.41068 3.99787 5.53809 3.82557C5.6655 3.65327 5.76973 3.49795 5.76973 3.48043C5.76973 3.46289 5.73079 3.40965 5.68323 3.36208C5.63566 3.31451 5.57773 3.27558 5.55447 3.27558C5.53118 3.27558 5.45113 3.33974 5.3765 3.41817C5.30191 3.49661 5.09743 3.77726 4.92214 4.04184C4.74684 4.30643 4.49716 4.74109 4.36735 5.00779L4.13128 5.49263L3.71807 5.49404C3.31994 5.49538 3.30282 5.49855 3.2487 5.58114C3.20529 5.64739 3.20127 5.68322 3.23108 5.73889C3.25229 5.7785 3.29993 5.82712 3.33696 5.84696C3.37399 5.8668 3.53389 5.88301 3.69228 5.88301C3.9526 5.88301 3.97786 5.88892 3.95517 5.94467C3.94136 5.9786 3.89287 6.11383 3.84742 6.24519C3.802 6.37659 3.71701 6.65406 3.65859 6.86181C3.60017 7.0696 3.51272 7.43777 3.46427 7.68002C3.41582 7.92226 3.35299 8.31073 3.32466 8.54329C3.29633 8.77584 3.26191 9.1524 3.24817 9.38013L3.22319 9.79415H2.65445C2.1967 9.79415 2.07038 9.80486 2.00738 9.84901C1.95879 9.88301 1.92906 9.94055 1.92906 10.0005C1.92906 10.0537 1.94808 10.1162 1.97134 10.1395C2.00094 10.1691 2.19494 10.1817 2.61819 10.1817H3.2228L3.24775 10.6134C3.26145 10.8508 3.29538 11.2294 3.32311 11.4547C3.35084 11.6801 3.3982 11.9972 3.42829 12.1594C3.45838 12.3217 3.5445 12.6926 3.61959 12.9837C3.69471 13.2748 3.80489 13.6465 3.86444 13.8097C3.92399 13.9729 3.97272 14.1113 3.97272 14.1172C3.97272 14.1232 3.83001 14.1281 3.6556 14.1281C3.38545 14.1281 3.32805 14.1385 3.26801 14.1986C3.22925 14.2373 3.19753 14.2928 3.19753 14.3219C3.19753 14.351 3.22925 14.4065 3.26801 14.4452C3.33016 14.5074 3.38545 14.5157 3.73667 14.5157H4.13487L4.38582 15.0192C4.52387 15.2961 4.75121 15.6965 4.89106 15.9089C5.03091 16.1213 5.21681 16.3863 5.30416 16.4977C5.42632 16.6535 5.4846 16.7003 5.55648 16.7003C5.60786 16.7003 5.66895 16.6813 5.69221 16.658C5.71547 16.6348 5.73449 16.5741 5.73449 16.5233C5.73449 16.4678 5.67304 16.3516 5.58122 16.2334C5.49693 16.1248 5.33027 15.8852 5.21089 15.7009C5.09151 15.5166 4.89888 15.185 4.78278 14.964C4.66672 14.743 4.57172 14.5517 4.57172 14.5389C4.57172 14.5262 5.09437 14.5157 5.73312 14.5157H6.89455L6.92848 14.6478C6.94712 14.7205 7.01122 14.9657 7.07087 15.1926C7.13052 15.4195 7.24863 15.8001 7.3333 16.0382C7.41798 16.2764 7.55226 16.6177 7.63171 16.7965C7.71117 16.9755 7.83714 17.2292 7.91166 17.3603C7.98618 17.4915 8.08572 17.6586 8.13287 17.7317C8.18002 17.8047 8.25422 17.8738 8.29781 17.8852C8.34136 17.8966 8.40094 17.8967 8.43022 17.8855C8.4595 17.8743 8.50126 17.826 8.523 17.7783C8.5576 17.7024 8.54481 17.6634 8.42085 17.4671C8.34291 17.3437 8.20398 17.093 8.11208 16.9101C8.02019 16.7272 7.87801 16.403 7.79609 16.1896C7.7142 15.9763 7.59796 15.6353 7.53778 15.4318C7.47759 15.2283 7.39768 14.939 7.36019 14.7888L7.29204 14.5157H8.59216H9.89229V16.2168C9.89229 17.6994 9.89933 17.9279 9.94715 17.9962C9.97731 18.0393 10.0383 18.0745 10.0826 18.0745C10.127 18.0745 10.1895 18.0455 10.2216 18.0101C10.2741 17.952 10.2799 17.777 10.2799 16.2307V14.5157H10.7664C11.1153 14.5157 11.2711 14.5025 11.317 14.4689C11.3529 14.4427 11.381 14.3781 11.381 14.3219C11.381 14.2657 11.3529 14.2011 11.317 14.1749C11.2711 14.1414 11.1153 14.1281 10.7664 14.1281H10.2799V13.2825V12.4368H10.9439C11.5424 12.4368 11.6136 12.4305 11.6662 12.3724C11.6983 12.3369 11.7245 12.2814 11.7245 12.249C11.7245 12.2167 11.6928 12.1585 11.6541 12.1197C11.5847 12.0504 11.5364 12.0492 8.615 12.0489L5.6464 12.0485L5.46825 11.9656C5.36963 11.9197 5.23143 11.8141 5.15864 11.729C5.08468 11.6426 5.00392 11.4954 4.974 11.3925C4.92992 11.2408 4.9226 10.9874 4.93126 9.91166L4.94169 8.61376L5.05036 8.41996C5.12108 8.29386 5.21762 8.18632 5.32671 8.11215C5.41892 8.04943 5.55497 7.98177 5.62903 7.96183C5.71881 7.93766 7.20064 7.92867 10.0743 7.93491L14.3848 7.94428L14.5758 8.04999C14.6891 8.11267 14.8137 8.22025 14.8821 8.31426C14.9454 8.40146 15.0141 8.53931 15.0346 8.62056C15.0574 8.71069 15.0719 9.25434 15.0719 10.0149C15.0719 11.0499 15.0626 11.2888 15.0172 11.4222C14.987 11.5106 14.9046 11.6504 14.8341 11.7328C14.7636 11.8152 14.6257 11.92 14.5277 11.9656C14.3615 12.043 14.3071 12.0486 13.7144 12.0489C13.1969 12.0492 13.0646 12.0594 13.0009 12.1041C12.9574 12.1345 12.9225 12.1961 12.9225 12.2425C12.9225 12.2885 12.9486 12.3521 12.9804 12.384C13.0311 12.4347 13.1268 12.4405 13.7468 12.4305C14.4431 12.4194 14.4591 12.4174 14.6766 12.317C14.8279 12.2471 14.958 12.1499 15.0877 12.0099C15.2049 11.8833 15.3079 11.7272 15.3573 11.6012C15.4267 11.4245 15.4392 11.3165 15.4519 10.7896L15.4665 10.1817H15.9262H16.3859L16.361 10.631C16.3473 10.8781 16.3123 11.2626 16.2832 11.4855C16.2541 11.7083 16.1907 12.0809 16.1422 12.3135C16.0938 12.546 16.0087 12.8949 15.9532 13.0887C15.8977 13.2825 15.7987 13.5917 15.7332 13.7758L15.6143 14.1105L15.4464 14.13C15.354 14.1407 15.2639 14.1724 15.2462 14.2005C15.2284 14.2285 15.2137 14.2873 15.2134 14.3313C15.213 14.3825 15.2507 14.434 15.3186 14.4753L15.4243 14.5396L15.2538 14.8744C15.1601 15.0586 15.0057 15.3399 14.9107 15.4995C14.8157 15.6591 14.623 15.9431 14.4823 16.1305C14.3418 16.3179 14.2266 16.4876 14.2265 16.5075C14.2264 16.5274 14.251 16.5789 14.2811 16.622C14.3128 16.6673 14.373 16.7003 14.4237 16.7003C14.472 16.7003 14.5464 16.6626 14.5891 16.6166C14.6318 16.5705 14.7563 16.408 14.8658 16.2554C14.9753 16.1028 15.1564 15.8274 15.2683 15.6432C15.3803 15.4591 15.5577 15.1301 15.6626 14.9121L15.8534 14.5157H16.2487C16.5217 14.5157 16.6638 14.5012 16.708 14.4689C16.7439 14.4427 16.772 14.3781 16.772 14.3219C16.772 14.2657 16.7439 14.2011 16.708 14.1749C16.6663 14.1444 16.536 14.1281 16.3337 14.1281C16.1629 14.1281 16.0233 14.1233 16.0233 14.1174C16.0233 14.1116 16.0793 13.9411 16.1479 13.7386C16.2164 13.5362 16.3187 13.1961 16.3752 12.983C16.4317 12.7698 16.5102 12.4251 16.5497 12.217C16.5891 12.009 16.6444 11.6443 16.6724 11.4066C16.7005 11.169 16.7342 10.7962 16.7472 10.5781L16.7709 10.1817H17.3766C17.8008 10.1817 17.995 10.1691 18.0246 10.1395C18.0479 10.1162 18.0669 10.0559 18.0669 10.0056C18.0669 9.95518 18.0479 9.89492 18.0246 9.87167C17.995 9.84207 17.801 9.82938 17.3778 9.82938H16.7732L16.7482 9.39775C16.7345 9.16037 16.7 8.77584 16.6716 8.54329C16.6431 8.31073 16.5803 7.92226 16.5319 7.68002C16.4836 7.43777 16.3886 7.04454 16.3208 6.80618C16.253 6.56781 16.1583 6.26862 16.1104 6.14132C16.0625 6.01401 16.0233 5.90379 16.0233 5.89643C16.0233 5.88903 16.166 5.88301 16.3404 5.88301C16.6105 5.88301 16.6679 5.87258 16.728 5.81253C16.7667 5.77377 16.7984 5.71828 16.7984 5.68921C16.7984 5.66014 16.7667 5.60464 16.728 5.56589C16.6659 5.50377 16.6105 5.49541 16.2604 5.49541H15.8633L15.6579 5.0814C15.5449 4.85367 15.363 4.51675 15.2537 4.33264C15.1443 4.14854 14.9398 3.84329 14.7993 3.65436C14.5756 3.35373 14.5306 3.31081 14.4387 3.31081C14.366 3.31081 14.3161 3.33748 14.2769 3.39735C14.2457 3.44495 14.232 3.5044 14.2465 3.52948C14.261 3.55457 14.3734 3.71327 14.4962 3.88215C14.6191 4.05104 14.8075 4.33419 14.9149 4.51139C15.0224 4.68859 15.1809 4.97425 15.2673 5.14616C15.3536 5.31811 15.4243 5.46701 15.4243 5.47709C15.4243 5.48717 14.9016 5.49541 14.2629 5.49541H13.1014L13.0648 5.34566C13.0446 5.26328 12.9859 5.03735 12.9344 4.84356C12.8829 4.64976 12.7728 4.29131 12.6898 4.04702C12.6067 3.8027 12.4666 3.43791 12.3783 3.23636C12.29 3.03485 12.1187 2.70353 11.9976 2.50018C11.7982 2.16541 11.7667 2.1294 11.6651 2.11953C11.5771 2.11101 11.5401 2.12792 11.4946 2.19737C11.4379 2.28394 11.4415 2.29486 11.6432 2.6487C11.757 2.84813 11.9171 3.15697 11.9989 3.33498C12.0808 3.51303 12.2112 3.83568 12.2888 4.05203C12.3662 4.26837 12.493 4.67633 12.5704 4.95864C12.6478 5.24094 12.7111 5.4772 12.7111 5.48368C12.7111 5.49013 12.1641 5.49541 11.4955 5.49541H10.2799V3.78417C10.2799 2.67196 10.2671 2.04906 10.2434 2.00477C10.2202 1.9614 10.1697 1.93663 10.1045 1.93663C10.0385 1.93663 9.98245 1.96453 9.94715 2.01495ZM6.81439 5.90978C6.8053 5.92451 6.75661 6.18075 6.70625 6.47919C6.62275 6.97362 6.61943 7.02908 6.66866 7.10423C6.69966 7.15152 6.75763 7.18672 6.80453 7.18672C6.84952 7.18672 6.91058 7.15899 6.94025 7.12506C6.97196 7.08877 7.0337 6.83151 7.09029 6.49963C7.14314 6.18955 7.19363 5.92395 7.20248 5.90943C7.21132 5.89492 7.82012 5.88301 8.55541 5.88301H9.89229V6.3763C9.89229 6.82263 9.89898 6.87629 9.96276 6.94007C10.0015 6.97883 10.0535 7.01054 10.0782 7.01054C10.103 7.01054 10.1585 6.98584 10.2015 6.95568C10.2764 6.90332 10.2799 6.87788 10.2799 6.39149V5.88212L11.538 5.89136L12.7961 5.90062L12.8215 6.02395C12.8354 6.09178 12.8874 6.41682 12.9371 6.74628C12.9868 7.07573 13.0345 7.39655 13.0432 7.45916L13.0589 7.57308L9.28215 7.58249L5.50546 7.59193L5.30398 7.69087C5.1932 7.74527 5.02964 7.86063 4.94057 7.94721C4.84659 8.03854 4.7318 8.20411 4.6671 8.34156C4.55731 8.57489 4.55541 8.58807 4.54212 9.20395L4.52863 9.82938H4.07448H3.62036L3.62047 9.62678C3.62054 9.51537 3.63713 9.24183 3.65732 9.01897C3.67751 8.7961 3.72653 8.40908 3.7662 8.1589C3.80591 7.90877 3.88382 7.51793 3.93938 7.29038C3.99495 7.06283 4.10562 6.68158 4.18533 6.44314C4.26506 6.20471 4.34551 5.9811 4.36415 5.94629C4.39575 5.88727 4.48004 5.88301 5.61448 5.88301C6.28353 5.88301 6.82352 5.89506 6.81439 5.90978ZM15.8182 6.49963C15.9283 6.82908 16.0658 7.32854 16.1238 7.60955C16.1817 7.89055 16.2538 8.31866 16.284 8.56091C16.3142 8.80315 16.3495 9.18764 16.3624 9.41537L16.386 9.82938H15.9227H15.4595V9.3202C15.4595 9.04014 15.4417 8.72701 15.4199 8.62429C15.3981 8.52162 15.3415 8.36059 15.2941 8.26648C15.2467 8.1724 15.1371 8.02663 15.0507 7.94259C14.9642 7.85856 14.8028 7.74527 14.692 7.69087C14.5037 7.59841 14.4564 7.59115 13.9707 7.57988C13.4711 7.56832 13.4502 7.56487 13.4351 7.49179C13.4266 7.44997 13.3861 7.16998 13.3452 6.8696C13.3043 6.56922 13.2499 6.22416 13.2243 6.10277L13.1778 5.88209L14.3979 5.89136L15.6181 5.90062L15.8182 6.49963ZM5.91296 9.04247C5.87159 9.07143 5.8402 9.13243 5.8402 9.1838C5.8402 9.23352 5.95975 9.64003 6.10584 10.0872C6.25193 10.5343 6.38868 10.9209 6.40964 10.9462C6.43064 10.9715 6.49893 10.9922 6.56136 10.9922C6.62785 10.9922 6.69984 10.9646 6.73501 10.9258C6.76806 10.8892 6.87056 10.6201 6.9628 10.3276C7.05501 10.0351 7.1387 9.78763 7.14874 9.77759C7.15875 9.76755 7.2425 10.0011 7.33479 10.2965C7.4271 10.5919 7.52534 10.8693 7.5531 10.9129C7.5889 10.969 7.6377 10.9922 7.72065 10.9922C7.78802 10.9922 7.86068 10.966 7.89186 10.9305C7.92163 10.8966 8.06677 10.5022 8.21444 10.0542C8.36208 9.60613 8.48286 9.20892 8.48286 9.17154C8.48286 9.13412 8.46384 9.08451 8.44058 9.06125C8.41733 9.03799 8.35788 9.01921 8.30845 9.0195C8.25905 9.01981 8.19763 9.03334 8.17202 9.04959C8.1464 9.06583 8.03928 9.36163 7.934 9.70694C7.82872 10.0522 7.73809 10.3392 7.73266 10.3447C7.7272 10.3501 7.63721 10.0695 7.53267 9.72104C7.42812 9.37259 7.32161 9.07009 7.29599 9.04881C7.27037 9.02757 7.20825 9.01016 7.15801 9.01016C7.10773 9.01016 7.03845 9.0399 7.00406 9.07623C6.96964 9.11255 6.87401 9.36428 6.79149 9.63559C6.70897 9.9069 6.62588 10.1841 6.60689 10.2516C6.57391 10.3686 6.56323 10.3446 6.37906 9.7407C6.27279 9.39222 6.17099 9.08895 6.15281 9.06682C6.13463 9.04469 6.0896 9.01869 6.05274 9.00907C6.01588 8.99941 5.95295 9.01446 5.91296 9.04247ZM8.69023 9.10191C8.65865 9.17115 8.6996 9.32735 8.93885 10.05C9.09635 10.5257 9.24853 10.9344 9.27697 10.958C9.30544 10.9816 9.36988 11.001 9.42013 11.001C9.47041 11.001 9.54046 10.9712 9.57576 10.9349C9.61111 10.8986 9.71452 10.631 9.80564 10.3403C9.89672 10.0496 9.98157 9.80031 9.99422 9.78633C10.0068 9.77234 10.0956 10.0148 10.1915 10.3252C10.2873 10.6355 10.3935 10.9146 10.4273 10.9452C10.4612 10.9759 10.5306 11.001 10.5816 11.001C10.6326 11.001 10.7029 10.9712 10.7378 10.9349C10.7726 10.8986 10.9231 10.4896 11.0721 10.0261C11.2964 9.3283 11.3365 9.16932 11.3054 9.10121C11.2766 9.03789 11.2397 9.01897 11.1448 9.01897C11.0455 9.01897 11.0124 9.03775 10.9739 9.11586C10.9477 9.16914 10.8497 9.47055 10.7561 9.78562C10.6624 10.1007 10.5821 10.3544 10.5775 10.3494C10.5729 10.3444 10.4866 10.0707 10.3858 9.7413C10.2849 9.41184 10.1777 9.11456 10.1476 9.08063C10.1174 9.0467 10.0501 9.01897 9.99799 9.01897C9.94584 9.01897 9.87854 9.0467 9.84842 9.08063C9.81826 9.11456 9.71107 9.41184 9.61022 9.7413C9.50935 10.0707 9.42309 10.3444 9.41851 10.3494C9.41389 10.3544 9.33356 10.1007 9.23993 9.78562C9.14631 9.47055 9.04829 9.16914 9.02204 9.11586C8.9836 9.03775 8.95051 9.01897 8.85118 9.01897C8.75605 9.01897 8.7194 9.03782 8.69023 9.10191ZM11.5442 9.10209C11.5126 9.17147 11.551 9.32157 11.7765 10.0094C11.9251 10.4627 12.0697 10.8693 12.0979 10.9129C12.134 10.9689 12.1833 10.9922 12.266 10.9922C12.3332 10.9922 12.4064 10.9659 12.4378 10.9305C12.4679 10.8966 12.5682 10.627 12.6608 10.3315C12.7534 10.036 12.8396 9.79415 12.8524 9.79415C12.8652 9.79415 12.9526 10.0401 13.0466 10.3408C13.1406 10.6414 13.2423 10.9095 13.2726 10.9366C13.3029 10.9637 13.3515 10.9891 13.3806 10.9931C13.4097 10.9972 13.4608 10.9986 13.4943 10.9963C13.5278 10.994 13.578 10.9565 13.606 10.9129C13.6339 10.8693 13.7778 10.4635 13.9258 10.0111C14.1812 9.23038 14.192 9.18436 14.1393 9.10382C14.1021 9.04698 14.0505 9.01897 13.9831 9.01897C13.9278 9.01897 13.8666 9.03881 13.8471 9.06301C13.8275 9.08725 13.7283 9.38454 13.6265 9.72368C13.5248 10.0628 13.4383 10.3444 13.4343 10.3494C13.4303 10.3544 13.3434 10.0848 13.2411 9.75035C13.1388 9.41593 13.0307 9.11456 13.001 9.08063C12.9712 9.0467 12.911 9.01897 12.8671 9.01897C12.8232 9.01897 12.7623 9.02859 12.7317 9.04032C12.6965 9.05385 12.6169 9.25117 12.5151 9.57766C12.4265 9.86145 12.3345 10.1558 12.3104 10.2317L12.2667 10.3698L12.0761 9.74218C11.9714 9.39701 11.8641 9.09307 11.8378 9.06678C11.8115 9.0405 11.7432 9.01897 11.686 9.01897C11.611 9.01897 11.5715 9.04208 11.5442 9.10209ZM4.54212 10.8072C4.55541 11.4231 4.55731 11.4362 4.6671 11.6696C4.7318 11.807 4.84659 11.9726 4.94057 12.0639C5.02964 12.1505 5.1932 12.2659 5.30398 12.3203L5.50546 12.4192L7.69887 12.429L9.89229 12.4389V13.2835V14.1281H8.55541C7.82012 14.1281 7.21143 14.1162 7.20272 14.1017C7.19402 14.0871 7.14405 13.8216 7.09166 13.5115C7.03366 13.1682 6.97489 12.9236 6.94138 12.8861C6.91111 12.8522 6.84952 12.8244 6.80453 12.8244C6.75763 12.8244 6.69966 12.8596 6.66866 12.9069C6.61943 12.982 6.62275 13.0375 6.70625 13.5319C6.75661 13.8304 6.80541 14.0868 6.81467 14.1018C6.82394 14.1168 6.28004 14.1249 5.60602 14.1198L4.38053 14.1105L4.26327 13.7934C4.19879 13.619 4.08395 13.2503 4.00809 12.974C3.93223 12.6978 3.83029 12.23 3.7816 11.9346C3.7329 11.6391 3.67674 11.215 3.65683 10.9922C3.63689 10.7693 3.62054 10.4958 3.62047 10.3843L3.62036 10.1817H4.07448H4.52863L4.54212 10.8072ZM12.123 12.4724C12.0805 12.4895 12.019 12.5444 11.9863 12.5943C11.9404 12.6644 11.8959 12.9996 11.7909 14.0672C11.7162 14.8275 11.6548 15.5022 11.6546 15.5667C11.6542 15.6497 11.6842 15.714 11.7571 15.7869C11.8381 15.868 11.8915 15.8899 12.0078 15.8899C12.1442 15.8899 12.177 15.869 12.4381 15.6168C12.5935 15.4666 12.7273 15.3596 12.7354 15.379C12.7435 15.3984 12.8246 15.579 12.9156 15.7804C13.0205 16.0126 13.1166 16.1731 13.1781 16.219C13.2338 16.2605 13.324 16.2898 13.3896 16.2876C13.4524 16.2855 13.6414 16.2203 13.8095 16.1426C13.9893 16.0594 14.1321 15.9695 14.1565 15.9238C14.1794 15.8811 14.1981 15.7965 14.1981 15.7357C14.1981 15.675 14.1251 15.4608 14.036 15.2598C13.9468 15.0587 13.8739 14.8825 13.8739 14.8681C13.8739 14.8538 14.0408 14.8347 14.2448 14.8256C14.5906 14.8102 14.6224 14.8025 14.7169 14.712C14.7727 14.6586 14.8261 14.5742 14.8356 14.5244C14.8451 14.4747 14.837 14.3883 14.8175 14.3325C14.7913 14.2572 14.491 14.011 13.6498 13.3749C13.0269 12.9039 12.4827 12.5002 12.4404 12.4777C12.398 12.4552 12.3267 12.4378 12.2818 12.439C12.2369 12.4403 12.1655 12.4553 12.123 12.4724ZM13.9584 14.4452C13.6411 14.4574 13.4786 14.478 13.4387 14.5112C13.4067 14.5378 13.3806 14.595 13.3806 14.6384C13.3806 14.6817 13.4757 14.9344 13.592 15.1999C13.7083 15.4654 13.8034 15.6947 13.8034 15.7093C13.8034 15.724 13.7151 15.7726 13.607 15.8174C13.4986 15.8623 13.3987 15.885 13.3841 15.8679C13.3695 15.8509 13.2578 15.6115 13.1357 15.3359C12.9881 15.0026 12.8917 14.8278 12.8477 14.8138C12.8114 14.8023 12.7526 14.8021 12.7171 14.8133C12.6816 14.8246 12.5212 14.9771 12.3606 15.1522C12.2 15.3273 12.0623 15.4642 12.0546 15.4565C12.0469 15.4488 12.0963 14.8784 12.1644 14.1888C12.2326 13.4993 12.2883 12.9101 12.2883 12.8793C12.2883 12.8448 12.6953 13.1298 13.3542 13.6256L14.4201 14.4276L13.9584 14.4452ZM12.2248 16.2687C12.1856 16.3026 12.0967 16.4637 12.0274 16.6266C11.958 16.7896 11.7969 17.1025 11.6694 17.3221C11.5022 17.6102 11.4441 17.7416 11.4608 17.7942C11.4735 17.8343 11.5232 17.8821 11.5713 17.9003C11.6278 17.9218 11.6825 17.9208 11.7262 17.8974C11.7634 17.8775 11.8841 17.7078 11.9945 17.5201C12.1049 17.3325 12.2715 17.0119 12.3646 16.8075C12.4706 16.5751 12.5262 16.4097 12.5132 16.3656C12.5019 16.3268 12.4674 16.2753 12.4366 16.2511C12.4057 16.2269 12.3616 16.207 12.3383 16.207C12.3151 16.207 12.264 16.2348 12.2248 16.2687Z"/>
</mask>
<path fill-rule="evenodd" clip-rule="evenodd" d="M9.25805 1.00753C9.17084 1.0155 8.933 1.04594 8.72951 1.07519C8.52603 1.1044 8.18009 1.16853 7.96078 1.21764C7.74144 1.2668 7.35808 1.37684 7.10885 1.46218C6.85963 1.54755 6.49206 1.69086 6.29202 1.78067C6.09196 1.87045 5.7618 2.0393 5.55832 2.1559C5.35483 2.27253 5.06149 2.45603 4.90646 2.56375C4.75142 2.67146 4.51358 2.84729 4.37792 2.95447C4.24227 3.06166 3.95112 3.32441 3.73093 3.5384C3.51074 3.75235 3.21579 4.0639 3.07551 4.23067C2.93521 4.39748 2.71699 4.68288 2.59053 4.86491C2.46407 5.04697 2.26513 5.3624 2.14847 5.56589C2.0318 5.76937 1.86288 6.09953 1.7731 6.29959C1.68329 6.49963 1.53998 6.8672 1.45461 7.11643C1.36927 7.36565 1.25849 7.75211 1.20845 7.97522C1.15838 8.1983 1.09105 8.55217 1.05874 8.76157C1.01589 9.03937 1 9.37566 1 10.0056C1 10.6355 1.01589 10.9718 1.05874 11.2496C1.09105 11.459 1.15838 11.8128 1.20845 12.0359C1.25849 12.259 1.36927 12.6455 1.45461 12.8947C1.53998 13.1439 1.68329 13.5115 1.7731 13.7115C1.86288 13.9116 2.03173 14.2418 2.14833 14.4452C2.26496 14.6487 2.44846 14.9421 2.55618 15.0971C2.66389 15.2521 2.83873 15.49 2.94468 15.6256C3.05064 15.7613 3.37681 16.1102 3.66951 16.401C3.96225 16.6919 4.35703 17.0461 4.54677 17.1883C4.73655 17.3304 5.04071 17.5403 5.22263 17.6547C5.40455 17.769 5.74274 17.9577 5.97416 18.0739C6.20556 18.1901 6.53621 18.3397 6.70893 18.4064C6.88166 18.4731 7.21033 18.5845 7.43936 18.6539C7.66836 18.7233 8.06423 18.8184 8.31905 18.8653C8.57388 18.9121 8.98057 18.9695 9.22281 18.9928C9.49539 19.0191 9.89828 19.0272 10.2799 19.0141C10.619 19.0025 11.0551 18.9696 11.2489 18.941C11.4426 18.9124 11.7598 18.8549 11.9536 18.8132C12.1474 18.7715 12.5358 18.6616 12.8168 18.569C13.0978 18.4764 13.4784 18.3327 13.6625 18.2498C13.8466 18.1668 14.1399 18.0201 14.3143 17.9237C14.4888 17.8274 14.7425 17.677 14.8781 17.5896C15.0138 17.5022 15.2754 17.3183 15.4595 17.181C15.6436 17.0436 16.0484 16.6772 16.359 16.3666C16.6696 16.0559 17.0397 15.6465 17.1815 15.4568C17.3232 15.267 17.5335 14.9617 17.6488 14.7782C17.764 14.5948 17.9532 14.2554 18.0691 14.0238C18.185 13.7923 18.3339 13.4628 18.4 13.2917C18.4661 13.1206 18.5751 12.7988 18.6422 12.5766C18.7094 12.3544 18.7972 12.0061 18.8374 11.8026C18.8776 11.5991 18.9307 11.2899 18.9553 11.1155C18.981 10.9342 19.0001 10.4588 19 10.0056C18.9999 9.54014 18.9806 9.07453 18.9531 8.87803C18.9275 8.69392 18.8668 8.35302 18.8185 8.12046C18.7701 7.88791 18.6546 7.46772 18.5618 7.18672C18.469 6.90572 18.3252 6.52517 18.2422 6.34107C18.1592 6.15696 18.0125 5.86363 17.9162 5.68921C17.8198 5.51479 17.6694 5.2611 17.5821 5.12544C17.4946 4.98978 17.3104 4.7289 17.1725 4.54568C17.0346 4.36245 16.7319 4.0158 16.4998 3.77539C16.2676 3.53494 15.9409 3.22343 15.7737 3.08312C15.6064 2.94281 15.3207 2.72456 15.1386 2.5981C14.9566 2.47164 14.6412 2.2727 14.4377 2.15604C14.2342 2.03937 13.9053 1.87102 13.7068 1.78194C13.5084 1.69287 13.1595 1.55538 12.9316 1.47641C12.7038 1.39749 12.3271 1.28734 12.0945 1.23167C11.862 1.17603 11.4893 1.10412 11.2665 1.07187C11.024 1.03682 10.5712 1.00923 10.1389 1.00317C9.74165 0.997598 9.34525 0.999572 9.25805 1.00753ZM11.3017 1.46045C11.5052 1.4928 11.8801 1.57264 12.1348 1.63786C12.3895 1.70312 12.7542 1.81383 12.9452 1.88391C13.1362 1.95403 13.5145 2.1202 13.7858 2.25318C14.0571 2.3862 14.4204 2.5844 14.5931 2.6937C14.7659 2.80296 15.0592 3.0062 15.245 3.14534C15.4308 3.28449 15.8129 3.62839 16.094 3.90953C16.3752 4.19068 16.7191 4.57277 16.8582 4.75857C16.9974 4.94437 17.2006 5.2377 17.3099 5.41043C17.4192 5.58315 17.6174 5.94643 17.7504 6.21774C17.8834 6.48906 18.0495 6.86734 18.1196 7.05836C18.1897 7.24937 18.3003 7.61406 18.3654 7.86877C18.4305 8.12349 18.5126 8.51422 18.5478 8.73708C18.597 9.04818 18.6119 9.34282 18.6119 10.0056C18.6119 10.6683 18.597 10.9629 18.5478 11.274C18.5126 11.4969 18.4305 11.8876 18.3654 12.1424C18.3003 12.3971 18.1896 12.7618 18.1193 12.9528C18.049 13.1438 17.8747 13.5379 17.7319 13.8286C17.5892 14.1193 17.3546 14.5341 17.2108 14.7503C17.067 14.9665 16.8482 15.2677 16.7246 15.4197C16.601 15.5718 16.3575 15.8439 16.1835 16.0246C16.0094 16.2053 15.7109 16.4827 15.52 16.6412C15.3291 16.7997 14.9877 17.0531 14.7612 17.2044C14.5348 17.3557 14.1117 17.5967 13.821 17.74C13.5304 17.8833 13.1362 18.0577 12.9452 18.1276C12.7542 18.1975 12.3895 18.3079 12.1348 18.3729C11.8801 18.438 11.4893 18.5201 11.2665 18.5554C10.9554 18.6046 10.6607 18.6195 9.99799 18.6195C9.33525 18.6195 9.04061 18.6046 8.72951 18.5554C8.50665 18.5201 8.11592 18.438 7.8612 18.3729C7.60649 18.3079 7.2418 18.1973 7.05079 18.1272C6.85977 18.0571 6.48149 17.8909 6.21017 17.7579C5.93886 17.6249 5.57558 17.4267 5.40286 17.3174C5.23013 17.2082 4.9368 17.0049 4.751 16.8658C4.5652 16.7266 4.18311 16.3827 3.90196 16.1016C3.62082 15.8204 3.27692 15.4384 3.13777 15.2526C2.99863 15.0668 2.79539 14.7734 2.68613 14.6007C2.57683 14.428 2.37863 14.0647 2.24561 13.7934C2.11263 13.5221 1.94646 13.1438 1.87634 12.9528C1.80626 12.7618 1.69534 12.3965 1.62991 12.1411C1.56444 11.8857 1.4822 11.495 1.44714 11.2728C1.39837 10.9637 1.3834 10.6661 1.3834 10.0056C1.3834 9.34504 1.39837 9.0474 1.44714 8.73835C1.4822 8.51616 1.56444 8.12543 1.62991 7.87001C1.69534 7.61462 1.80626 7.24937 1.87634 7.05836C1.94646 6.86734 2.11242 6.48906 2.24515 6.21774C2.37789 5.94643 2.57348 5.58667 2.67975 5.41825C2.78602 5.24986 2.98947 4.95652 3.13189 4.76639C3.27428 4.5763 3.62082 4.19068 3.90196 3.90953C4.18311 3.62839 4.56872 3.28185 4.75882 3.13946C4.94895 2.99704 5.23972 2.79567 5.40497 2.6919C5.57026 2.58813 5.87452 2.41682 6.08114 2.31118C6.28776 2.20554 6.62331 2.05276 6.82679 1.97172C7.03028 1.89068 7.37911 1.772 7.60198 1.70805C7.82484 1.64406 8.14196 1.56443 8.30669 1.53103C8.47141 1.49763 8.77268 1.44911 8.97616 1.42321C9.22196 1.39195 9.61223 1.38043 10.1389 1.38892C10.6472 1.3971 11.0645 1.42279 11.3017 1.46045ZM9.94715 2.01495C9.89933 2.08321 9.89229 2.31174 9.89229 3.79435V5.49541H8.5879H7.28352L7.30677 5.39852C7.31953 5.3452 7.39003 5.08756 7.46339 4.82594C7.53676 4.56432 7.65166 4.19963 7.71875 4.01552C7.7858 3.83142 7.90683 3.53131 7.98766 3.34862C8.06849 3.16592 8.22882 2.85525 8.34397 2.65825C8.45912 2.46125 8.55334 2.28285 8.55334 2.26185C8.55334 2.24081 8.51352 2.19229 8.46482 2.15399C8.41109 2.11175 8.34714 2.09201 8.30207 2.10378C8.26127 2.11446 8.16546 2.21995 8.08918 2.33824C8.01293 2.45649 7.85754 2.74352 7.74387 2.97607C7.63023 3.20863 7.46424 3.60175 7.37506 3.8497C7.28584 4.09766 7.15096 4.52577 7.07535 4.80106C6.9997 5.07636 6.92841 5.3452 6.91689 5.39852L6.89593 5.49541H5.73382C5.09465 5.49541 4.57172 5.4872 4.57172 5.47716C4.57172 5.46712 4.65223 5.29848 4.75061 5.10243C4.84899 4.90638 5.01428 4.60938 5.11794 4.4424C5.2216 4.27545 5.41068 3.99787 5.53809 3.82557C5.6655 3.65327 5.76973 3.49795 5.76973 3.48043C5.76973 3.46289 5.73079 3.40965 5.68323 3.36208C5.63566 3.31451 5.57773 3.27558 5.55447 3.27558C5.53118 3.27558 5.45113 3.33974 5.3765 3.41817C5.30191 3.49661 5.09743 3.77726 4.92214 4.04184C4.74684 4.30643 4.49716 4.74109 4.36735 5.00779L4.13128 5.49263L3.71807 5.49404C3.31994 5.49538 3.30282 5.49855 3.2487 5.58114C3.20529 5.64739 3.20127 5.68322 3.23108 5.73889C3.25229 5.7785 3.29993 5.82712 3.33696 5.84696C3.37399 5.8668 3.53389 5.88301 3.69228 5.88301C3.9526 5.88301 3.97786 5.88892 3.95517 5.94467C3.94136 5.9786 3.89287 6.11383 3.84742 6.24519C3.802 6.37659 3.71701 6.65406 3.65859 6.86181C3.60017 7.0696 3.51272 7.43777 3.46427 7.68002C3.41582 7.92226 3.35299 8.31073 3.32466 8.54329C3.29633 8.77584 3.26191 9.1524 3.24817 9.38013L3.22319 9.79415H2.65445C2.1967 9.79415 2.07038 9.80486 2.00738 9.84901C1.95879 9.88301 1.92906 9.94055 1.92906 10.0005C1.92906 10.0537 1.94808 10.1162 1.97134 10.1395C2.00094 10.1691 2.19494 10.1817 2.61819 10.1817H3.2228L3.24775 10.6134C3.26145 10.8508 3.29538 11.2294 3.32311 11.4547C3.35084 11.6801 3.3982 11.9972 3.42829 12.1594C3.45838 12.3217 3.5445 12.6926 3.61959 12.9837C3.69471 13.2748 3.80489 13.6465 3.86444 13.8097C3.92399 13.9729 3.97272 14.1113 3.97272 14.1172C3.97272 14.1232 3.83001 14.1281 3.6556 14.1281C3.38545 14.1281 3.32805 14.1385 3.26801 14.1986C3.22925 14.2373 3.19753 14.2928 3.19753 14.3219C3.19753 14.351 3.22925 14.4065 3.26801 14.4452C3.33016 14.5074 3.38545 14.5157 3.73667 14.5157H4.13487L4.38582 15.0192C4.52387 15.2961 4.75121 15.6965 4.89106 15.9089C5.03091 16.1213 5.21681 16.3863 5.30416 16.4977C5.42632 16.6535 5.4846 16.7003 5.55648 16.7003C5.60786 16.7003 5.66895 16.6813 5.69221 16.658C5.71547 16.6348 5.73449 16.5741 5.73449 16.5233C5.73449 16.4678 5.67304 16.3516 5.58122 16.2334C5.49693 16.1248 5.33027 15.8852 5.21089 15.7009C5.09151 15.5166 4.89888 15.185 4.78278 14.964C4.66672 14.743 4.57172 14.5517 4.57172 14.5389C4.57172 14.5262 5.09437 14.5157 5.73312 14.5157H6.89455L6.92848 14.6478C6.94712 14.7205 7.01122 14.9657 7.07087 15.1926C7.13052 15.4195 7.24863 15.8001 7.3333 16.0382C7.41798 16.2764 7.55226 16.6177 7.63171 16.7965C7.71117 16.9755 7.83714 17.2292 7.91166 17.3603C7.98618 17.4915 8.08572 17.6586 8.13287 17.7317C8.18002 17.8047 8.25422 17.8738 8.29781 17.8852C8.34136 17.8966 8.40094 17.8967 8.43022 17.8855C8.4595 17.8743 8.50126 17.826 8.523 17.7783C8.5576 17.7024 8.54481 17.6634 8.42085 17.4671C8.34291 17.3437 8.20398 17.093 8.11208 16.9101C8.02019 16.7272 7.87801 16.403 7.79609 16.1896C7.7142 15.9763 7.59796 15.6353 7.53778 15.4318C7.47759 15.2283 7.39768 14.939 7.36019 14.7888L7.29204 14.5157H8.59216H9.89229V16.2168C9.89229 17.6994 9.89933 17.9279 9.94715 17.9962C9.97731 18.0393 10.0383 18.0745 10.0826 18.0745C10.127 18.0745 10.1895 18.0455 10.2216 18.0101C10.2741 17.952 10.2799 17.777 10.2799 16.2307V14.5157H10.7664C11.1153 14.5157 11.2711 14.5025 11.317 14.4689C11.3529 14.4427 11.381 14.3781 11.381 14.3219C11.381 14.2657 11.3529 14.2011 11.317 14.1749C11.2711 14.1414 11.1153 14.1281 10.7664 14.1281H10.2799V13.2825V12.4368H10.9439C11.5424 12.4368 11.6136 12.4305 11.6662 12.3724C11.6983 12.3369 11.7245 12.2814 11.7245 12.249C11.7245 12.2167 11.6928 12.1585 11.6541 12.1197C11.5847 12.0504 11.5364 12.0492 8.615 12.0489L5.6464 12.0485L5.46825 11.9656C5.36963 11.9197 5.23143 11.8141 5.15864 11.729C5.08468 11.6426 5.00392 11.4954 4.974 11.3925C4.92992 11.2408 4.9226 10.9874 4.93126 9.91166L4.94169 8.61376L5.05036 8.41996C5.12108 8.29386 5.21762 8.18632 5.32671 8.11215C5.41892 8.04943 5.55497 7.98177 5.62903 7.96183C5.71881 7.93766 7.20064 7.92867 10.0743 7.93491L14.3848 7.94428L14.5758 8.04999C14.6891 8.11267 14.8137 8.22025 14.8821 8.31426C14.9454 8.40146 15.0141 8.53931 15.0346 8.62056C15.0574 8.71069 15.0719 9.25434 15.0719 10.0149C15.0719 11.0499 15.0626 11.2888 15.0172 11.4222C14.987 11.5106 14.9046 11.6504 14.8341 11.7328C14.7636 11.8152 14.6257 11.92 14.5277 11.9656C14.3615 12.043 14.3071 12.0486 13.7144 12.0489C13.1969 12.0492 13.0646 12.0594 13.0009 12.1041C12.9574 12.1345 12.9225 12.1961 12.9225 12.2425C12.9225 12.2885 12.9486 12.3521 12.9804 12.384C13.0311 12.4347 13.1268 12.4405 13.7468 12.4305C14.4431 12.4194 14.4591 12.4174 14.6766 12.317C14.8279 12.2471 14.958 12.1499 15.0877 12.0099C15.2049 11.8833 15.3079 11.7272 15.3573 11.6012C15.4267 11.4245 15.4392 11.3165 15.4519 10.7896L15.4665 10.1817H15.9262H16.3859L16.361 10.631C16.3473 10.8781 16.3123 11.2626 16.2832 11.4855C16.2541 11.7083 16.1907 12.0809 16.1422 12.3135C16.0938 12.546 16.0087 12.8949 15.9532 13.0887C15.8977 13.2825 15.7987 13.5917 15.7332 13.7758L15.6143 14.1105L15.4464 14.13C15.354 14.1407 15.2639 14.1724 15.2462 14.2005C15.2284 14.2285 15.2137 14.2873 15.2134 14.3313C15.213 14.3825 15.2507 14.434 15.3186 14.4753L15.4243 14.5396L15.2538 14.8744C15.1601 15.0586 15.0057 15.3399 14.9107 15.4995C14.8157 15.6591 14.623 15.9431 14.4823 16.1305C14.3418 16.3179 14.2266 16.4876 14.2265 16.5075C14.2264 16.5274 14.251 16.5789 14.2811 16.622C14.3128 16.6673 14.373 16.7003 14.4237 16.7003C14.472 16.7003 14.5464 16.6626 14.5891 16.6166C14.6318 16.5705 14.7563 16.408 14.8658 16.2554C14.9753 16.1028 15.1564 15.8274 15.2683 15.6432C15.3803 15.4591 15.5577 15.1301 15.6626 14.9121L15.8534 14.5157H16.2487C16.5217 14.5157 16.6638 14.5012 16.708 14.4689C16.7439 14.4427 16.772 14.3781 16.772 14.3219C16.772 14.2657 16.7439 14.2011 16.708 14.1749C16.6663 14.1444 16.536 14.1281 16.3337 14.1281C16.1629 14.1281 16.0233 14.1233 16.0233 14.1174C16.0233 14.1116 16.0793 13.9411 16.1479 13.7386C16.2164 13.5362 16.3187 13.1961 16.3752 12.983C16.4317 12.7698 16.5102 12.4251 16.5497 12.217C16.5891 12.009 16.6444 11.6443 16.6724 11.4066C16.7005 11.169 16.7342 10.7962 16.7472 10.5781L16.7709 10.1817H17.3766C17.8008 10.1817 17.995 10.1691 18.0246 10.1395C18.0479 10.1162 18.0669 10.0559 18.0669 10.0056C18.0669 9.95518 18.0479 9.89492 18.0246 9.87167C17.995 9.84207 17.801 9.82938 17.3778 9.82938H16.7732L16.7482 9.39775C16.7345 9.16037 16.7 8.77584 16.6716 8.54329C16.6431 8.31073 16.5803 7.92226 16.5319 7.68002C16.4836 7.43777 16.3886 7.04454 16.3208 6.80618C16.253 6.56781 16.1583 6.26862 16.1104 6.14132C16.0625 6.01401 16.0233 5.90379 16.0233 5.89643C16.0233 5.88903 16.166 5.88301 16.3404 5.88301C16.6105 5.88301 16.6679 5.87258 16.728 5.81253C16.7667 5.77377 16.7984 5.71828 16.7984 5.68921C16.7984 5.66014 16.7667 5.60464 16.728 5.56589C16.6659 5.50377 16.6105 5.49541 16.2604 5.49541H15.8633L15.6579 5.0814C15.5449 4.85367 15.363 4.51675 15.2537 4.33264C15.1443 4.14854 14.9398 3.84329 14.7993 3.65436C14.5756 3.35373 14.5306 3.31081 14.4387 3.31081C14.366 3.31081 14.3161 3.33748 14.2769 3.39735C14.2457 3.44495 14.232 3.5044 14.2465 3.52948C14.261 3.55457 14.3734 3.71327 14.4962 3.88215C14.6191 4.05104 14.8075 4.33419 14.9149 4.51139C15.0224 4.68859 15.1809 4.97425 15.2673 5.14616C15.3536 5.31811 15.4243 5.46701 15.4243 5.47709C15.4243 5.48717 14.9016 5.49541 14.2629 5.49541H13.1014L13.0648 5.34566C13.0446 5.26328 12.9859 5.03735 12.9344 4.84356C12.8829 4.64976 12.7728 4.29131 12.6898 4.04702C12.6067 3.8027 12.4666 3.43791 12.3783 3.23636C12.29 3.03485 12.1187 2.70353 11.9976 2.50018C11.7982 2.16541 11.7667 2.1294 11.6651 2.11953C11.5771 2.11101 11.5401 2.12792 11.4946 2.19737C11.4379 2.28394 11.4415 2.29486 11.6432 2.6487C11.757 2.84813 11.9171 3.15697 11.9989 3.33498C12.0808 3.51303 12.2112 3.83568 12.2888 4.05203C12.3662 4.26837 12.493 4.67633 12.5704 4.95864C12.6478 5.24094 12.7111 5.4772 12.7111 5.48368C12.7111 5.49013 12.1641 5.49541 11.4955 5.49541H10.2799V3.78417C10.2799 2.67196 10.2671 2.04906 10.2434 2.00477C10.2202 1.9614 10.1697 1.93663 10.1045 1.93663C10.0385 1.93663 9.98245 1.96453 9.94715 2.01495ZM6.81439 5.90978C6.8053 5.92451 6.75661 6.18075 6.70625 6.47919C6.62275 6.97362 6.61943 7.02908 6.66866 7.10423C6.69966 7.15152 6.75763 7.18672 6.80453 7.18672C6.84952 7.18672 6.91058 7.15899 6.94025 7.12506C6.97196 7.08877 7.0337 6.83151 7.09029 6.49963C7.14314 6.18955 7.19363 5.92395 7.20248 5.90943C7.21132 5.89492 7.82012 5.88301 8.55541 5.88301H9.89229V6.3763C9.89229 6.82263 9.89898 6.87629 9.96276 6.94007C10.0015 6.97883 10.0535 7.01054 10.0782 7.01054C10.103 7.01054 10.1585 6.98584 10.2015 6.95568C10.2764 6.90332 10.2799 6.87788 10.2799 6.39149V5.88212L11.538 5.89136L12.7961 5.90062L12.8215 6.02395C12.8354 6.09178 12.8874 6.41682 12.9371 6.74628C12.9868 7.07573 13.0345 7.39655 13.0432 7.45916L13.0589 7.57308L9.28215 7.58249L5.50546 7.59193L5.30398 7.69087C5.1932 7.74527 5.02964 7.86063 4.94057 7.94721C4.84659 8.03854 4.7318 8.20411 4.6671 8.34156C4.55731 8.57489 4.55541 8.58807 4.54212 9.20395L4.52863 9.82938H4.07448H3.62036L3.62047 9.62678C3.62054 9.51537 3.63713 9.24183 3.65732 9.01897C3.67751 8.7961 3.72653 8.40908 3.7662 8.1589C3.80591 7.90877 3.88382 7.51793 3.93938 7.29038C3.99495 7.06283 4.10562 6.68158 4.18533 6.44314C4.26506 6.20471 4.34551 5.9811 4.36415 5.94629C4.39575 5.88727 4.48004 5.88301 5.61448 5.88301C6.28353 5.88301 6.82352 5.89506 6.81439 5.90978ZM15.8182 6.49963C15.9283 6.82908 16.0658 7.32854 16.1238 7.60955C16.1817 7.89055 16.2538 8.31866 16.284 8.56091C16.3142 8.80315 16.3495 9.18764 16.3624 9.41537L16.386 9.82938H15.9227H15.4595V9.3202C15.4595 9.04014 15.4417 8.72701 15.4199 8.62429C15.3981 8.52162 15.3415 8.36059 15.2941 8.26648C15.2467 8.1724 15.1371 8.02663 15.0507 7.94259C14.9642 7.85856 14.8028 7.74527 14.692 7.69087C14.5037 7.59841 14.4564 7.59115 13.9707 7.57988C13.4711 7.56832 13.4502 7.56487 13.4351 7.49179C13.4266 7.44997 13.3861 7.16998 13.3452 6.8696C13.3043 6.56922 13.2499 6.22416 13.2243 6.10277L13.1778 5.88209L14.3979 5.89136L15.6181 5.90062L15.8182 6.49963ZM5.91296 9.04247C5.87159 9.07143 5.8402 9.13243 5.8402 9.1838C5.8402 9.23352 5.95975 9.64003 6.10584 10.0872C6.25193 10.5343 6.38868 10.9209 6.40964 10.9462C6.43064 10.9715 6.49893 10.9922 6.56136 10.9922C6.62785 10.9922 6.69984 10.9646 6.73501 10.9258C6.76806 10.8892 6.87056 10.6201 6.9628 10.3276C7.05501 10.0351 7.1387 9.78763 7.14874 9.77759C7.15875 9.76755 7.2425 10.0011 7.33479 10.2965C7.4271 10.5919 7.52534 10.8693 7.5531 10.9129C7.5889 10.969 7.6377 10.9922 7.72065 10.9922C7.78802 10.9922 7.86068 10.966 7.89186 10.9305C7.92163 10.8966 8.06677 10.5022 8.21444 10.0542C8.36208 9.60613 8.48286 9.20892 8.48286 9.17154C8.48286 9.13412 8.46384 9.08451 8.44058 9.06125C8.41733 9.03799 8.35788 9.01921 8.30845 9.0195C8.25905 9.01981 8.19763 9.03334 8.17202 9.04959C8.1464 9.06583 8.03928 9.36163 7.934 9.70694C7.82872 10.0522 7.73809 10.3392 7.73266 10.3447C7.7272 10.3501 7.63721 10.0695 7.53267 9.72104C7.42812 9.37259 7.32161 9.07009 7.29599 9.04881C7.27037 9.02757 7.20825 9.01016 7.15801 9.01016C7.10773 9.01016 7.03845 9.0399 7.00406 9.07623C6.96964 9.11255 6.87401 9.36428 6.79149 9.63559C6.70897 9.9069 6.62588 10.1841 6.60689 10.2516C6.57391 10.3686 6.56323 10.3446 6.37906 9.7407C6.27279 9.39222 6.17099 9.08895 6.15281 9.06682C6.13463 9.04469 6.0896 9.01869 6.05274 9.00907C6.01588 8.99941 5.95295 9.01446 5.91296 9.04247ZM8.69023 9.10191C8.65865 9.17115 8.6996 9.32735 8.93885 10.05C9.09635 10.5257 9.24853 10.9344 9.27697 10.958C9.30544 10.9816 9.36988 11.001 9.42013 11.001C9.47041 11.001 9.54046 10.9712 9.57576 10.9349C9.61111 10.8986 9.71452 10.631 9.80564 10.3403C9.89672 10.0496 9.98157 9.80031 9.99422 9.78633C10.0068 9.77234 10.0956 10.0148 10.1915 10.3252C10.2873 10.6355 10.3935 10.9146 10.4273 10.9452C10.4612 10.9759 10.5306 11.001 10.5816 11.001C10.6326 11.001 10.7029 10.9712 10.7378 10.9349C10.7726 10.8986 10.9231 10.4896 11.0721 10.0261C11.2964 9.3283 11.3365 9.16932 11.3054 9.10121C11.2766 9.03789 11.2397 9.01897 11.1448 9.01897C11.0455 9.01897 11.0124 9.03775 10.9739 9.11586C10.9477 9.16914 10.8497 9.47055 10.7561 9.78562C10.6624 10.1007 10.5821 10.3544 10.5775 10.3494C10.5729 10.3444 10.4866 10.0707 10.3858 9.7413C10.2849 9.41184 10.1777 9.11456 10.1476 9.08063C10.1174 9.0467 10.0501 9.01897 9.99799 9.01897C9.94584 9.01897 9.87854 9.0467 9.84842 9.08063C9.81826 9.11456 9.71107 9.41184 9.61022 9.7413C9.50935 10.0707 9.42309 10.3444 9.41851 10.3494C9.41389 10.3544 9.33356 10.1007 9.23993 9.78562C9.14631 9.47055 9.04829 9.16914 9.02204 9.11586C8.9836 9.03775 8.95051 9.01897 8.85118 9.01897C8.75605 9.01897 8.7194 9.03782 8.69023 9.10191ZM11.5442 9.10209C11.5126 9.17147 11.551 9.32157 11.7765 10.0094C11.9251 10.4627 12.0697 10.8693 12.0979 10.9129C12.134 10.9689 12.1833 10.9922 12.266 10.9922C12.3332 10.9922 12.4064 10.9659 12.4378 10.9305C12.4679 10.8966 12.5682 10.627 12.6608 10.3315C12.7534 10.036 12.8396 9.79415 12.8524 9.79415C12.8652 9.79415 12.9526 10.0401 13.0466 10.3408C13.1406 10.6414 13.2423 10.9095 13.2726 10.9366C13.3029 10.9637 13.3515 10.9891 13.3806 10.9931C13.4097 10.9972 13.4608 10.9986 13.4943 10.9963C13.5278 10.994 13.578 10.9565 13.606 10.9129C13.6339 10.8693 13.7778 10.4635 13.9258 10.0111C14.1812 9.23038 14.192 9.18436 14.1393 9.10382C14.1021 9.04698 14.0505 9.01897 13.9831 9.01897C13.9278 9.01897 13.8666 9.03881 13.8471 9.06301C13.8275 9.08725 13.7283 9.38454 13.6265 9.72368C13.5248 10.0628 13.4383 10.3444 13.4343 10.3494C13.4303 10.3544 13.3434 10.0848 13.2411 9.75035C13.1388 9.41593 13.0307 9.11456 13.001 9.08063C12.9712 9.0467 12.911 9.01897 12.8671 9.01897C12.8232 9.01897 12.7623 9.02859 12.7317 9.04032C12.6965 9.05385 12.6169 9.25117 12.5151 9.57766C12.4265 9.86145 12.3345 10.1558 12.3104 10.2317L12.2667 10.3698L12.0761 9.74218C11.9714 9.39701 11.8641 9.09307 11.8378 9.06678C11.8115 9.0405 11.7432 9.01897 11.686 9.01897C11.611 9.01897 11.5715 9.04208 11.5442 9.10209ZM4.54212 10.8072C4.55541 11.4231 4.55731 11.4362 4.6671 11.6696C4.7318 11.807 4.84659 11.9726 4.94057 12.0639C5.02964 12.1505 5.1932 12.2659 5.30398 12.3203L5.50546 12.4192L7.69887 12.429L9.89229 12.4389V13.2835V14.1281H8.55541C7.82012 14.1281 7.21143 14.1162 7.20272 14.1017C7.19402 14.0871 7.14405 13.8216 7.09166 13.5115C7.03366 13.1682 6.97489 12.9236 6.94138 12.8861C6.91111 12.8522 6.84952 12.8244 6.80453 12.8244C6.75763 12.8244 6.69966 12.8596 6.66866 12.9069C6.61943 12.982 6.62275 13.0375 6.70625 13.5319C6.75661 13.8304 6.80541 14.0868 6.81467 14.1018C6.82394 14.1168 6.28004 14.1249 5.60602 14.1198L4.38053 14.1105L4.26327 13.7934C4.19879 13.619 4.08395 13.2503 4.00809 12.974C3.93223 12.6978 3.83029 12.23 3.7816 11.9346C3.7329 11.6391 3.67674 11.215 3.65683 10.9922C3.63689 10.7693 3.62054 10.4958 3.62047 10.3843L3.62036 10.1817H4.07448H4.52863L4.54212 10.8072ZM12.123 12.4724C12.0805 12.4895 12.019 12.5444 11.9863 12.5943C11.9404 12.6644 11.8959 12.9996 11.7909 14.0672C11.7162 14.8275 11.6548 15.5022 11.6546 15.5667C11.6542 15.6497 11.6842 15.714 11.7571 15.7869C11.8381 15.868 11.8915 15.8899 12.0078 15.8899C12.1442 15.8899 12.177 15.869 12.4381 15.6168C12.5935 15.4666 12.7273 15.3596 12.7354 15.379C12.7435 15.3984 12.8246 15.579 12.9156 15.7804C13.0205 16.0126 13.1166 16.1731 13.1781 16.219C13.2338 16.2605 13.324 16.2898 13.3896 16.2876C13.4524 16.2855 13.6414 16.2203 13.8095 16.1426C13.9893 16.0594 14.1321 15.9695 14.1565 15.9238C14.1794 15.8811 14.1981 15.7965 14.1981 15.7357C14.1981 15.675 14.1251 15.4608 14.036 15.2598C13.9468 15.0587 13.8739 14.8825 13.8739 14.8681C13.8739 14.8538 14.0408 14.8347 14.2448 14.8256C14.5906 14.8102 14.6224 14.8025 14.7169 14.712C14.7727 14.6586 14.8261 14.5742 14.8356 14.5244C14.8451 14.4747 14.837 14.3883 14.8175 14.3325C14.7913 14.2572 14.491 14.011 13.6498 13.3749C13.0269 12.9039 12.4827 12.5002 12.4404 12.4777C12.398 12.4552 12.3267 12.4378 12.2818 12.439C12.2369 12.4403 12.1655 12.4553 12.123 12.4724ZM13.9584 14.4452C13.6411 14.4574 13.4786 14.478 13.4387 14.5112C13.4067 14.5378 13.3806 14.595 13.3806 14.6384C13.3806 14.6817 13.4757 14.9344 13.592 15.1999C13.7083 15.4654 13.8034 15.6947 13.8034 15.7093C13.8034 15.724 13.7151 15.7726 13.607 15.8174C13.4986 15.8623 13.3987 15.885 13.3841 15.8679C13.3695 15.8509 13.2578 15.6115 13.1357 15.3359C12.9881 15.0026 12.8917 14.8278 12.8477 14.8138C12.8114 14.8023 12.7526 14.8021 12.7171 14.8133C12.6816 14.8246 12.5212 14.9771 12.3606 15.1522C12.2 15.3273 12.0623 15.4642 12.0546 15.4565C12.0469 15.4488 12.0963 14.8784 12.1644 14.1888C12.2326 13.4993 12.2883 12.9101 12.2883 12.8793C12.2883 12.8448 12.6953 13.1298 13.3542 13.6256L14.4201 14.4276L13.9584 14.4452ZM12.2248 16.2687C12.1856 16.3026 12.0967 16.4637 12.0274 16.6266C11.958 16.7896 11.7969 17.1025 11.6694 17.3221C11.5022 17.6102 11.4441 17.7416 11.4608 17.7942C11.4735 17.8343 11.5232 17.8821 11.5713 17.9003C11.6278 17.9218 11.6825 17.9208 11.7262 17.8974C11.7634 17.8775 11.8841 17.7078 11.9945 17.5201C12.1049 17.3325 12.2715 17.0119 12.3646 16.8075C12.4706 16.5751 12.5262 16.4097 12.5132 16.3656C12.5019 16.3268 12.4674 16.2753 12.4366 16.2511C12.4057 16.2269 12.3616 16.207 12.3383 16.207C12.3151 16.207 12.264 16.2348 12.2248 16.2687Z" fill="white"/>
<path fill-rule="evenodd" clip-rule="evenodd" d="M9.25805 1.00753C9.17084 1.0155 8.933 1.04594 8.72951 1.07519C8.52603 1.1044 8.18009 1.16853 7.96078 1.21764C7.74144 1.2668 7.35808 1.37684 7.10885 1.46218C6.85963 1.54755 6.49206 1.69086 6.29202 1.78067C6.09196 1.87045 5.7618 2.0393 5.55832 2.1559C5.35483 2.27253 5.06149 2.45603 4.90646 2.56375C4.75142 2.67146 4.51358 2.84729 4.37792 2.95447C4.24227 3.06166 3.95112 3.32441 3.73093 3.5384C3.51074 3.75235 3.21579 4.0639 3.07551 4.23067C2.93521 4.39748 2.71699 4.68288 2.59053 4.86491C2.46407 5.04697 2.26513 5.3624 2.14847 5.56589C2.0318 5.76937 1.86288 6.09953 1.7731 6.29959C1.68329 6.49963 1.53998 6.8672 1.45461 7.11643C1.36927 7.36565 1.25849 7.75211 1.20845 7.97522C1.15838 8.1983 1.09105 8.55217 1.05874 8.76157C1.01589 9.03937 1 9.37566 1 10.0056C1 10.6355 1.01589 10.9718 1.05874 11.2496C1.09105 11.459 1.15838 11.8128 1.20845 12.0359C1.25849 12.259 1.36927 12.6455 1.45461 12.8947C1.53998 13.1439 1.68329 13.5115 1.7731 13.7115C1.86288 13.9116 2.03173 14.2418 2.14833 14.4452C2.26496 14.6487 2.44846 14.9421 2.55618 15.0971C2.66389 15.2521 2.83873 15.49 2.94468 15.6256C3.05064 15.7613 3.37681 16.1102 3.66951 16.401C3.96225 16.6919 4.35703 17.0461 4.54677 17.1883C4.73655 17.3304 5.04071 17.5403 5.22263 17.6547C5.40455 17.769 5.74274 17.9577 5.97416 18.0739C6.20556 18.1901 6.53621 18.3397 6.70893 18.4064C6.88166 18.4731 7.21033 18.5845 7.43936 18.6539C7.66836 18.7233 8.06423 18.8184 8.31905 18.8653C8.57388 18.9121 8.98057 18.9695 9.22281 18.9928C9.49539 19.0191 9.89828 19.0272 10.2799 19.0141C10.619 19.0025 11.0551 18.9696 11.2489 18.941C11.4426 18.9124 11.7598 18.8549 11.9536 18.8132C12.1474 18.7715 12.5358 18.6616 12.8168 18.569C13.0978 18.4764 13.4784 18.3327 13.6625 18.2498C13.8466 18.1668 14.1399 18.0201 14.3143 17.9237C14.4888 17.8274 14.7425 17.677 14.8781 17.5896C15.0138 17.5022 15.2754 17.3183 15.4595 17.181C15.6436 17.0436 16.0484 16.6772 16.359 16.3666C16.6696 16.0559 17.0397 15.6465 17.1815 15.4568C17.3232 15.267 17.5335 14.9617 17.6488 14.7782C17.764 14.5948 17.9532 14.2554 18.0691 14.0238C18.185 13.7923 18.3339 13.4628 18.4 13.2917C18.4661 13.1206 18.5751 12.7988 18.6422 12.5766C18.7094 12.3544 18.7972 12.0061 18.8374 11.8026C18.8776 11.5991 18.9307 11.2899 18.9553 11.1155C18.981 10.9342 19.0001 10.4588 19 10.0056C18.9999 9.54014 18.9806 9.07453 18.9531 8.87803C18.9275 8.69392 18.8668 8.35302 18.8185 8.12046C18.7701 7.88791 18.6546 7.46772 18.5618 7.18672C18.469 6.90572 18.3252 6.52517 18.2422 6.34107C18.1592 6.15696 18.0125 5.86363 17.9162 5.68921C17.8198 5.51479 17.6694 5.2611 17.5821 5.12544C17.4946 4.98978 17.3104 4.7289 17.1725 4.54568C17.0346 4.36245 16.7319 4.0158 16.4998 3.77539C16.2676 3.53494 15.9409 3.22343 15.7737 3.08312C15.6064 2.94281 15.3207 2.72456 15.1386 2.5981C14.9566 2.47164 14.6412 2.2727 14.4377 2.15604C14.2342 2.03937 13.9053 1.87102 13.7068 1.78194C13.5084 1.69287 13.1595 1.55538 12.9316 1.47641C12.7038 1.39749 12.3271 1.28734 12.0945 1.23167C11.862 1.17603 11.4893 1.10412 11.2665 1.07187C11.024 1.03682 10.5712 1.00923 10.1389 1.00317C9.74165 0.997598 9.34525 0.999572 9.25805 1.00753ZM11.3017 1.46045C11.5052 1.4928 11.8801 1.57264 12.1348 1.63786C12.3895 1.70312 12.7542 1.81383 12.9452 1.88391C13.1362 1.95403 13.5145 2.1202 13.7858 2.25318C14.0571 2.3862 14.4204 2.5844 14.5931 2.6937C14.7659 2.80296 15.0592 3.0062 15.245 3.14534C15.4308 3.28449 15.8129 3.62839 16.094 3.90953C16.3752 4.19068 16.7191 4.57277 16.8582 4.75857C16.9974 4.94437 17.2006 5.2377 17.3099 5.41043C17.4192 5.58315 17.6174 5.94643 17.7504 6.21774C17.8834 6.48906 18.0495 6.86734 18.1196 7.05836C18.1897 7.24937 18.3003 7.61406 18.3654 7.86877C18.4305 8.12349 18.5126 8.51422 18.5478 8.73708C18.597 9.04818 18.6119 9.34282 18.6119 10.0056C18.6119 10.6683 18.597 10.9629 18.5478 11.274C18.5126 11.4969 18.4305 11.8876 18.3654 12.1424C18.3003 12.3971 18.1896 12.7618 18.1193 12.9528C18.049 13.1438 17.8747 13.5379 17.7319 13.8286C17.5892 14.1193 17.3546 14.5341 17.2108 14.7503C17.067 14.9665 16.8482 15.2677 16.7246 15.4197C16.601 15.5718 16.3575 15.8439 16.1835 16.0246C16.0094 16.2053 15.7109 16.4827 15.52 16.6412C15.3291 16.7997 14.9877 17.0531 14.7612 17.2044C14.5348 17.3557 14.1117 17.5967 13.821 17.74C13.5304 17.8833 13.1362 18.0577 12.9452 18.1276C12.7542 18.1975 12.3895 18.3079 12.1348 18.3729C11.8801 18.438 11.4893 18.5201 11.2665 18.5554C10.9554 18.6046 10.6607 18.6195 9.99799 18.6195C9.33525 18.6195 9.04061 18.6046 8.72951 18.5554C8.50665 18.5201 8.11592 18.438 7.8612 18.3729C7.60649 18.3079 7.2418 18.1973 7.05079 18.1272C6.85977 18.0571 6.48149 17.8909 6.21017 17.7579C5.93886 17.6249 5.57558 17.4267 5.40286 17.3174C5.23013 17.2082 4.9368 17.0049 4.751 16.8658C4.5652 16.7266 4.18311 16.3827 3.90196 16.1016C3.62082 15.8204 3.27692 15.4384 3.13777 15.2526C2.99863 15.0668 2.79539 14.7734 2.68613 14.6007C2.57683 14.428 2.37863 14.0647 2.24561 13.7934C2.11263 13.5221 1.94646 13.1438 1.87634 12.9528C1.80626 12.7618 1.69534 12.3965 1.62991 12.1411C1.56444 11.8857 1.4822 11.495 1.44714 11.2728C1.39837 10.9637 1.3834 10.6661 1.3834 10.0056C1.3834 9.34504 1.39837 9.0474 1.44714 8.73835C1.4822 8.51616 1.56444 8.12543 1.62991 7.87001C1.69534 7.61462 1.80626 7.24937 1.87634 7.05836C1.94646 6.86734 2.11242 6.48906 2.24515 6.21774C2.37789 5.94643 2.57348 5.58667 2.67975 5.41825C2.78602 5.24986 2.98947 4.95652 3.13189 4.76639C3.27428 4.5763 3.62082 4.19068 3.90196 3.90953C4.18311 3.62839 4.56872 3.28185 4.75882 3.13946C4.94895 2.99704 5.23972 2.79567 5.40497 2.6919C5.57026 2.58813 5.87452 2.41682 6.08114 2.31118C6.28776 2.20554 6.62331 2.05276 6.82679 1.97172C7.03028 1.89068 7.37911 1.772 7.60198 1.70805C7.82484 1.64406 8.14196 1.56443 8.30669 1.53103C8.47141 1.49763 8.77268 1.44911 8.97616 1.42321C9.22196 1.39195 9.61223 1.38043 10.1389 1.38892C10.6472 1.3971 11.0645 1.42279 11.3017 1.46045ZM9.94715 2.01495C9.89933 2.08321 9.89229 2.31174 9.89229 3.79435V5.49541H8.5879H7.28352L7.30677 5.39852C7.31953 5.3452 7.39003 5.08756 7.46339 4.82594C7.53676 4.56432 7.65166 4.19963 7.71875 4.01552C7.7858 3.83142 7.90683 3.53131 7.98766 3.34862C8.06849 3.16592 8.22882 2.85525 8.34397 2.65825C8.45912 2.46125 8.55334 2.28285 8.55334 2.26185C8.55334 2.24081 8.51352 2.19229 8.46482 2.15399C8.41109 2.11175 8.34714 2.09201 8.30207 2.10378C8.26127 2.11446 8.16546 2.21995 8.08918 2.33824C8.01293 2.45649 7.85754 2.74352 7.74387 2.97607C7.63023 3.20863 7.46424 3.60175 7.37506 3.8497C7.28584 4.09766 7.15096 4.52577 7.07535 4.80106C6.9997 5.07636 6.92841 5.3452 6.91689 5.39852L6.89593 5.49541H5.73382C5.09465 5.49541 4.57172 5.4872 4.57172 5.47716C4.57172 5.46712 4.65223 5.29848 4.75061 5.10243C4.84899 4.90638 5.01428 4.60938 5.11794 4.4424C5.2216 4.27545 5.41068 3.99787 5.53809 3.82557C5.6655 3.65327 5.76973 3.49795 5.76973 3.48043C5.76973 3.46289 5.73079 3.40965 5.68323 3.36208C5.63566 3.31451 5.57773 3.27558 5.55447 3.27558C5.53118 3.27558 5.45113 3.33974 5.3765 3.41817C5.30191 3.49661 5.09743 3.77726 4.92214 4.04184C4.74684 4.30643 4.49716 4.74109 4.36735 5.00779L4.13128 5.49263L3.71807 5.49404C3.31994 5.49538 3.30282 5.49855 3.2487 5.58114C3.20529 5.64739 3.20127 5.68322 3.23108 5.73889C3.25229 5.7785 3.29993 5.82712 3.33696 5.84696C3.37399 5.8668 3.53389 5.88301 3.69228 5.88301C3.9526 5.88301 3.97786 5.88892 3.95517 5.94467C3.94136 5.9786 3.89287 6.11383 3.84742 6.24519C3.802 6.37659 3.71701 6.65406 3.65859 6.86181C3.60017 7.0696 3.51272 7.43777 3.46427 7.68002C3.41582 7.92226 3.35299 8.31073 3.32466 8.54329C3.29633 8.77584 3.26191 9.1524 3.24817 9.38013L3.22319 9.79415H2.65445C2.1967 9.79415 2.07038 9.80486 2.00738 9.84901C1.95879 9.88301 1.92906 9.94055 1.92906 10.0005C1.92906 10.0537 1.94808 10.1162 1.97134 10.1395C2.00094 10.1691 2.19494 10.1817 2.61819 10.1817H3.2228L3.24775 10.6134C3.26145 10.8508 3.29538 11.2294 3.32311 11.4547C3.35084 11.6801 3.3982 11.9972 3.42829 12.1594C3.45838 12.3217 3.5445 12.6926 3.61959 12.9837C3.69471 13.2748 3.80489 13.6465 3.86444 13.8097C3.92399 13.9729 3.97272 14.1113 3.97272 14.1172C3.97272 14.1232 3.83001 14.1281 3.6556 14.1281C3.38545 14.1281 3.32805 14.1385 3.26801 14.1986C3.22925 14.2373 3.19753 14.2928 3.19753 14.3219C3.19753 14.351 3.22925 14.4065 3.26801 14.4452C3.33016 14.5074 3.38545 14.5157 3.73667 14.5157H4.13487L4.38582 15.0192C4.52387 15.2961 4.75121 15.6965 4.89106 15.9089C5.03091 16.1213 5.21681 16.3863 5.30416 16.4977C5.42632 16.6535 5.4846 16.7003 5.55648 16.7003C5.60786 16.7003 5.66895 16.6813 5.69221 16.658C5.71547 16.6348 5.73449 16.5741 5.73449 16.5233C5.73449 16.4678 5.67304 16.3516 5.58122 16.2334C5.49693 16.1248 5.33027 15.8852 5.21089 15.7009C5.09151 15.5166 4.89888 15.185 4.78278 14.964C4.66672 14.743 4.57172 14.5517 4.57172 14.5389C4.57172 14.5262 5.09437 14.5157 5.73312 14.5157H6.89455L6.92848 14.6478C6.94712 14.7205 7.01122 14.9657 7.07087 15.1926C7.13052 15.4195 7.24863 15.8001 7.3333 16.0382C7.41798 16.2764 7.55226 16.6177 7.63171 16.7965C7.71117 16.9755 7.83714 17.2292 7.91166 17.3603C7.98618 17.4915 8.08572 17.6586 8.13287 17.7317C8.18002 17.8047 8.25422 17.8738 8.29781 17.8852C8.34136 17.8966 8.40094 17.8967 8.43022 17.8855C8.4595 17.8743 8.50126 17.826 8.523 17.7783C8.5576 17.7024 8.54481 17.6634 8.42085 17.4671C8.34291 17.3437 8.20398 17.093 8.11208 16.9101C8.02019 16.7272 7.87801 16.403 7.79609 16.1896C7.7142 15.9763 7.59796 15.6353 7.53778 15.4318C7.47759 15.2283 7.39768 14.939 7.36019 14.7888L7.29204 14.5157H8.59216H9.89229V16.2168C9.89229 17.6994 9.89933 17.9279 9.94715 17.9962C9.97731 18.0393 10.0383 18.0745 10.0826 18.0745C10.127 18.0745 10.1895 18.0455 10.2216 18.0101C10.2741 17.952 10.2799 17.777 10.2799 16.2307V14.5157H10.7664C11.1153 14.5157 11.2711 14.5025 11.317 14.4689C11.3529 14.4427 11.381 14.3781 11.381 14.3219C11.381 14.2657 11.3529 14.2011 11.317 14.1749C11.2711 14.1414 11.1153 14.1281 10.7664 14.1281H10.2799V13.2825V12.4368H10.9439C11.5424 12.4368 11.6136 12.4305 11.6662 12.3724C11.6983 12.3369 11.7245 12.2814 11.7245 12.249C11.7245 12.2167 11.6928 12.1585 11.6541 12.1197C11.5847 12.0504 11.5364 12.0492 8.615 12.0489L5.6464 12.0485L5.46825 11.9656C5.36963 11.9197 5.23143 11.8141 5.15864 11.729C5.08468 11.6426 5.00392 11.4954 4.974 11.3925C4.92992 11.2408 4.9226 10.9874 4.93126 9.91166L4.94169 8.61376L5.05036 8.41996C5.12108 8.29386 5.21762 8.18632 5.32671 8.11215C5.41892 8.04943 5.55497 7.98177 5.62903 7.96183C5.71881 7.93766 7.20064 7.92867 10.0743 7.93491L14.3848 7.94428L14.5758 8.04999C14.6891 8.11267 14.8137 8.22025 14.8821 8.31426C14.9454 8.40146 15.0141 8.53931 15.0346 8.62056C15.0574 8.71069 15.0719 9.25434 15.0719 10.0149C15.0719 11.0499 15.0626 11.2888 15.0172 11.4222C14.987 11.5106 14.9046 11.6504 14.8341 11.7328C14.7636 11.8152 14.6257 11.92 14.5277 11.9656C14.3615 12.043 14.3071 12.0486 13.7144 12.0489C13.1969 12.0492 13.0646 12.0594 13.0009 12.1041C12.9574 12.1345 12.9225 12.1961 12.9225 12.2425C12.9225 12.2885 12.9486 12.3521 12.9804 12.384C13.0311 12.4347 13.1268 12.4405 13.7468 12.4305C14.4431 12.4194 14.4591 12.4174 14.6766 12.317C14.8279 12.2471 14.958 12.1499 15.0877 12.0099C15.2049 11.8833 15.3079 11.7272 15.3573 11.6012C15.4267 11.4245 15.4392 11.3165 15.4519 10.7896L15.4665 10.1817H15.9262H16.3859L16.361 10.631C16.3473 10.8781 16.3123 11.2626 16.2832 11.4855C16.2541 11.7083 16.1907 12.0809 16.1422 12.3135C16.0938 12.546 16.0087 12.8949 15.9532 13.0887C15.8977 13.2825 15.7987 13.5917 15.7332 13.7758L15.6143 14.1105L15.4464 14.13C15.354 14.1407 15.2639 14.1724 15.2462 14.2005C15.2284 14.2285 15.2137 14.2873 15.2134 14.3313C15.213 14.3825 15.2507 14.434 15.3186 14.4753L15.4243 14.5396L15.2538 14.8744C15.1601 15.0586 15.0057 15.3399 14.9107 15.4995C14.8157 15.6591 14.623 15.9431 14.4823 16.1305C14.3418 16.3179 14.2266 16.4876 14.2265 16.5075C14.2264 16.5274 14.251 16.5789 14.2811 16.622C14.3128 16.6673 14.373 16.7003 14.4237 16.7003C14.472 16.7003 14.5464 16.6626 14.5891 16.6166C14.6318 16.5705 14.7563 16.408 14.8658 16.2554C14.9753 16.1028 15.1564 15.8274 15.2683 15.6432C15.3803 15.4591 15.5577 15.1301 15.6626 14.9121L15.8534 14.5157H16.2487C16.5217 14.5157 16.6638 14.5012 16.708 14.4689C16.7439 14.4427 16.772 14.3781 16.772 14.3219C16.772 14.2657 16.7439 14.2011 16.708 14.1749C16.6663 14.1444 16.536 14.1281 16.3337 14.1281C16.1629 14.1281 16.0233 14.1233 16.0233 14.1174C16.0233 14.1116 16.0793 13.9411 16.1479 13.7386C16.2164 13.5362 16.3187 13.1961 16.3752 12.983C16.4317 12.7698 16.5102 12.4251 16.5497 12.217C16.5891 12.009 16.6444 11.6443 16.6724 11.4066C16.7005 11.169 16.7342 10.7962 16.7472 10.5781L16.7709 10.1817H17.3766C17.8008 10.1817 17.995 10.1691 18.0246 10.1395C18.0479 10.1162 18.0669 10.0559 18.0669 10.0056C18.0669 9.95518 18.0479 9.89492 18.0246 9.87167C17.995 9.84207 17.801 9.82938 17.3778 9.82938H16.7732L16.7482 9.39775C16.7345 9.16037 16.7 8.77584 16.6716 8.54329C16.6431 8.31073 16.5803 7.92226 16.5319 7.68002C16.4836 7.43777 16.3886 7.04454 16.3208 6.80618C16.253 6.56781 16.1583 6.26862 16.1104 6.14132C16.0625 6.01401 16.0233 5.90379 16.0233 5.89643C16.0233 5.88903 16.166 5.88301 16.3404 5.88301C16.6105 5.88301 16.6679 5.87258 16.728 5.81253C16.7667 5.77377 16.7984 5.71828 16.7984 5.68921C16.7984 5.66014 16.7667 5.60464 16.728 5.56589C16.6659 5.50377 16.6105 5.49541 16.2604 5.49541H15.8633L15.6579 5.0814C15.5449 4.85367 15.363 4.51675 15.2537 4.33264C15.1443 4.14854 14.9398 3.84329 14.7993 3.65436C14.5756 3.35373 14.5306 3.31081 14.4387 3.31081C14.366 3.31081 14.3161 3.33748 14.2769 3.39735C14.2457 3.44495 14.232 3.5044 14.2465 3.52948C14.261 3.55457 14.3734 3.71327 14.4962 3.88215C14.6191 4.05104 14.8075 4.33419 14.9149 4.51139C15.0224 4.68859 15.1809 4.97425 15.2673 5.14616C15.3536 5.31811 15.4243 5.46701 15.4243 5.47709C15.4243 5.48717 14.9016 5.49541 14.2629 5.49541H13.1014L13.0648 5.34566C13.0446 5.26328 12.9859 5.03735 12.9344 4.84356C12.8829 4.64976 12.7728 4.29131 12.6898 4.04702C12.6067 3.8027 12.4666 3.43791 12.3783 3.23636C12.29 3.03485 12.1187 2.70353 11.9976 2.50018C11.7982 2.16541 11.7667 2.1294 11.6651 2.11953C11.5771 2.11101 11.5401 2.12792 11.4946 2.19737C11.4379 2.28394 11.4415 2.29486 11.6432 2.6487C11.757 2.84813 11.9171 3.15697 11.9989 3.33498C12.0808 3.51303 12.2112 3.83568 12.2888 4.05203C12.3662 4.26837 12.493 4.67633 12.5704 4.95864C12.6478 5.24094 12.7111 5.4772 12.7111 5.48368C12.7111 5.49013 12.1641 5.49541 11.4955 5.49541H10.2799V3.78417C10.2799 2.67196 10.2671 2.04906 10.2434 2.00477C10.2202 1.9614 10.1697 1.93663 10.1045 1.93663C10.0385 1.93663 9.98245 1.96453 9.94715 2.01495ZM6.81439 5.90978C6.8053 5.92451 6.75661 6.18075 6.70625 6.47919C6.62275 6.97362 6.61943 7.02908 6.66866 7.10423C6.69966 7.15152 6.75763 7.18672 6.80453 7.18672C6.84952 7.18672 6.91058 7.15899 6.94025 7.12506C6.97196 7.08877 7.0337 6.83151 7.09029 6.49963C7.14314 6.18955 7.19363 5.92395 7.20248 5.90943C7.21132 5.89492 7.82012 5.88301 8.55541 5.88301H9.89229V6.3763C9.89229 6.82263 9.89898 6.87629 9.96276 6.94007C10.0015 6.97883 10.0535 7.01054 10.0782 7.01054C10.103 7.01054 10.1585 6.98584 10.2015 6.95568C10.2764 6.90332 10.2799 6.87788 10.2799 6.39149V5.88212L11.538 5.89136L12.7961 5.90062L12.8215 6.02395C12.8354 6.09178 12.8874 6.41682 12.9371 6.74628C12.9868 7.07573 13.0345 7.39655 13.0432 7.45916L13.0589 7.57308L9.28215 7.58249L5.50546 7.59193L5.30398 7.69087C5.1932 7.74527 5.02964 7.86063 4.94057 7.94721C4.84659 8.03854 4.7318 8.20411 4.6671 8.34156C4.55731 8.57489 4.55541 8.58807 4.54212 9.20395L4.52863 9.82938H4.07448H3.62036L3.62047 9.62678C3.62054 9.51537 3.63713 9.24183 3.65732 9.01897C3.67751 8.7961 3.72653 8.40908 3.7662 8.1589C3.80591 7.90877 3.88382 7.51793 3.93938 7.29038C3.99495 7.06283 4.10562 6.68158 4.18533 6.44314C4.26506 6.20471 4.34551 5.9811 4.36415 5.94629C4.39575 5.88727 4.48004 5.88301 5.61448 5.88301C6.28353 5.88301 6.82352 5.89506 6.81439 5.90978ZM15.8182 6.49963C15.9283 6.82908 16.0658 7.32854 16.1238 7.60955C16.1817 7.89055 16.2538 8.31866 16.284 8.56091C16.3142 8.80315 16.3495 9.18764 16.3624 9.41537L16.386 9.82938H15.9227H15.4595V9.3202C15.4595 9.04014 15.4417 8.72701 15.4199 8.62429C15.3981 8.52162 15.3415 8.36059 15.2941 8.26648C15.2467 8.1724 15.1371 8.02663 15.0507 7.94259C14.9642 7.85856 14.8028 7.74527 14.692 7.69087C14.5037 7.59841 14.4564 7.59115 13.9707 7.57988C13.4711 7.56832 13.4502 7.56487 13.4351 7.49179C13.4266 7.44997 13.3861 7.16998 13.3452 6.8696C13.3043 6.56922 13.2499 6.22416 13.2243 6.10277L13.1778 5.88209L14.3979 5.89136L15.6181 5.90062L15.8182 6.49963ZM5.91296 9.04247C5.87159 9.07143 5.8402 9.13243 5.8402 9.1838C5.8402 9.23352 5.95975 9.64003 6.10584 10.0872C6.25193 10.5343 6.38868 10.9209 6.40964 10.9462C6.43064 10.9715 6.49893 10.9922 6.56136 10.9922C6.62785 10.9922 6.69984 10.9646 6.73501 10.9258C6.76806 10.8892 6.87056 10.6201 6.9628 10.3276C7.05501 10.0351 7.1387 9.78763 7.14874 9.77759C7.15875 9.76755 7.2425 10.0011 7.33479 10.2965C7.4271 10.5919 7.52534 10.8693 7.5531 10.9129C7.5889 10.969 7.6377 10.9922 7.72065 10.9922C7.78802 10.9922 7.86068 10.966 7.89186 10.9305C7.92163 10.8966 8.06677 10.5022 8.21444 10.0542C8.36208 9.60613 8.48286 9.20892 8.48286 9.17154C8.48286 9.13412 8.46384 9.08451 8.44058 9.06125C8.41733 9.03799 8.35788 9.01921 8.30845 9.0195C8.25905 9.01981 8.19763 9.03334 8.17202 9.04959C8.1464 9.06583 8.03928 9.36163 7.934 9.70694C7.82872 10.0522 7.73809 10.3392 7.73266 10.3447C7.7272 10.3501 7.63721 10.0695 7.53267 9.72104C7.42812 9.37259 7.32161 9.07009 7.29599 9.04881C7.27037 9.02757 7.20825 9.01016 7.15801 9.01016C7.10773 9.01016 7.03845 9.0399 7.00406 9.07623C6.96964 9.11255 6.87401 9.36428 6.79149 9.63559C6.70897 9.9069 6.62588 10.1841 6.60689 10.2516C6.57391 10.3686 6.56323 10.3446 6.37906 9.7407C6.27279 9.39222 6.17099 9.08895 6.15281 9.06682C6.13463 9.04469 6.0896 9.01869 6.05274 9.00907C6.01588 8.99941 5.95295 9.01446 5.91296 9.04247ZM8.69023 9.10191C8.65865 9.17115 8.6996 9.32735 8.93885 10.05C9.09635 10.5257 9.24853 10.9344 9.27697 10.958C9.30544 10.9816 9.36988 11.001 9.42013 11.001C9.47041 11.001 9.54046 10.9712 9.57576 10.9349C9.61111 10.8986 9.71452 10.631 9.80564 10.3403C9.89672 10.0496 9.98157 9.80031 9.99422 9.78633C10.0068 9.77234 10.0956 10.0148 10.1915 10.3252C10.2873 10.6355 10.3935 10.9146 10.4273 10.9452C10.4612 10.9759 10.5306 11.001 10.5816 11.001C10.6326 11.001 10.7029 10.9712 10.7378 10.9349C10.7726 10.8986 10.9231 10.4896 11.0721 10.0261C11.2964 9.3283 11.3365 9.16932 11.3054 9.10121C11.2766 9.03789 11.2397 9.01897 11.1448 9.01897C11.0455 9.01897 11.0124 9.03775 10.9739 9.11586C10.9477 9.16914 10.8497 9.47055 10.7561 9.78562C10.6624 10.1007 10.5821 10.3544 10.5775 10.3494C10.5729 10.3444 10.4866 10.0707 10.3858 9.7413C10.2849 9.41184 10.1777 9.11456 10.1476 9.08063C10.1174 9.0467 10.0501 9.01897 9.99799 9.01897C9.94584 9.01897 9.87854 9.0467 9.84842 9.08063C9.81826 9.11456 9.71107 9.41184 9.61022 9.7413C9.50935 10.0707 9.42309 10.3444 9.41851 10.3494C9.41389 10.3544 9.33356 10.1007 9.23993 9.78562C9.14631 9.47055 9.04829 9.16914 9.02204 9.11586C8.9836 9.03775 8.95051 9.01897 8.85118 9.01897C8.75605 9.01897 8.7194 9.03782 8.69023 9.10191ZM11.5442 9.10209C11.5126 9.17147 11.551 9.32157 11.7765 10.0094C11.9251 10.4627 12.0697 10.8693 12.0979 10.9129C12.134 10.9689 12.1833 10.9922 12.266 10.9922C12.3332 10.9922 12.4064 10.9659 12.4378 10.9305C12.4679 10.8966 12.5682 10.627 12.6608 10.3315C12.7534 10.036 12.8396 9.79415 12.8524 9.79415C12.8652 9.79415 12.9526 10.0401 13.0466 10.3408C13.1406 10.6414 13.2423 10.9095 13.2726 10.9366C13.3029 10.9637 13.3515 10.9891 13.3806 10.9931C13.4097 10.9972 13.4608 10.9986 13.4943 10.9963C13.5278 10.994 13.578 10.9565 13.606 10.9129C13.6339 10.8693 13.7778 10.4635 13.9258 10.0111C14.1812 9.23038 14.192 9.18436 14.1393 9.10382C14.1021 9.04698 14.0505 9.01897 13.9831 9.01897C13.9278 9.01897 13.8666 9.03881 13.8471 9.06301C13.8275 9.08725 13.7283 9.38454 13.6265 9.72368C13.5248 10.0628 13.4383 10.3444 13.4343 10.3494C13.4303 10.3544 13.3434 10.0848 13.2411 9.75035C13.1388 9.41593 13.0307 9.11456 13.001 9.08063C12.9712 9.0467 12.911 9.01897 12.8671 9.01897C12.8232 9.01897 12.7623 9.02859 12.7317 9.04032C12.6965 9.05385 12.6169 9.25117 12.5151 9.57766C12.4265 9.86145 12.3345 10.1558 12.3104 10.2317L12.2667 10.3698L12.0761 9.74218C11.9714 9.39701 11.8641 9.09307 11.8378 9.06678C11.8115 9.0405 11.7432 9.01897 11.686 9.01897C11.611 9.01897 11.5715 9.04208 11.5442 9.10209ZM4.54212 10.8072C4.55541 11.4231 4.55731 11.4362 4.6671 11.6696C4.7318 11.807 4.84659 11.9726 4.94057 12.0639C5.02964 12.1505 5.1932 12.2659 5.30398 12.3203L5.50546 12.4192L7.69887 12.429L9.89229 12.4389V13.2835V14.1281H8.55541C7.82012 14.1281 7.21143 14.1162 7.20272 14.1017C7.19402 14.0871 7.14405 13.8216 7.09166 13.5115C7.03366 13.1682 6.97489 12.9236 6.94138 12.8861C6.91111 12.8522 6.84952 12.8244 6.80453 12.8244C6.75763 12.8244 6.69966 12.8596 6.66866 12.9069C6.61943 12.982 6.62275 13.0375 6.70625 13.5319C6.75661 13.8304 6.80541 14.0868 6.81467 14.1018C6.82394 14.1168 6.28004 14.1249 5.60602 14.1198L4.38053 14.1105L4.26327 13.7934C4.19879 13.619 4.08395 13.2503 4.00809 12.974C3.93223 12.6978 3.83029 12.23 3.7816 11.9346C3.7329 11.6391 3.67674 11.215 3.65683 10.9922C3.63689 10.7693 3.62054 10.4958 3.62047 10.3843L3.62036 10.1817H4.07448H4.52863L4.54212 10.8072ZM12.123 12.4724C12.0805 12.4895 12.019 12.5444 11.9863 12.5943C11.9404 12.6644 11.8959 12.9996 11.7909 14.0672C11.7162 14.8275 11.6548 15.5022 11.6546 15.5667C11.6542 15.6497 11.6842 15.714 11.7571 15.7869C11.8381 15.868 11.8915 15.8899 12.0078 15.8899C12.1442 15.8899 12.177 15.869 12.4381 15.6168C12.5935 15.4666 12.7273 15.3596 12.7354 15.379C12.7435 15.3984 12.8246 15.579 12.9156 15.7804C13.0205 16.0126 13.1166 16.1731 13.1781 16.219C13.2338 16.2605 13.324 16.2898 13.3896 16.2876C13.4524 16.2855 13.6414 16.2203 13.8095 16.1426C13.9893 16.0594 14.1321 15.9695 14.1565 15.9238C14.1794 15.8811 14.1981 15.7965 14.1981 15.7357C14.1981 15.675 14.1251 15.4608 14.036 15.2598C13.9468 15.0587 13.8739 14.8825 13.8739 14.8681C13.8739 14.8538 14.0408 14.8347 14.2448 14.8256C14.5906 14.8102 14.6224 14.8025 14.7169 14.712C14.7727 14.6586 14.8261 14.5742 14.8356 14.5244C14.8451 14.4747 14.837 14.3883 14.8175 14.3325C14.7913 14.2572 14.491 14.011 13.6498 13.3749C13.0269 12.9039 12.4827 12.5002 12.4404 12.4777C12.398 12.4552 12.3267 12.4378 12.2818 12.439C12.2369 12.4403 12.1655 12.4553 12.123 12.4724ZM13.9584 14.4452C13.6411 14.4574 13.4786 14.478 13.4387 14.5112C13.4067 14.5378 13.3806 14.595 13.3806 14.6384C13.3806 14.6817 13.4757 14.9344 13.592 15.1999C13.7083 15.4654 13.8034 15.6947 13.8034 15.7093C13.8034 15.724 13.7151 15.7726 13.607 15.8174C13.4986 15.8623 13.3987 15.885 13.3841 15.8679C13.3695 15.8509 13.2578 15.6115 13.1357 15.3359C12.9881 15.0026 12.8917 14.8278 12.8477 14.8138C12.8114 14.8023 12.7526 14.8021 12.7171 14.8133C12.6816 14.8246 12.5212 14.9771 12.3606 15.1522C12.2 15.3273 12.0623 15.4642 12.0546 15.4565C12.0469 15.4488 12.0963 14.8784 12.1644 14.1888C12.2326 13.4993 12.2883 12.9101 12.2883 12.8793C12.2883 12.8448 12.6953 13.1298 13.3542 13.6256L14.4201 14.4276L13.9584 14.4452ZM12.2248 16.2687C12.1856 16.3026 12.0967 16.4637 12.0274 16.6266C11.958 16.7896 11.7969 17.1025 11.6694 17.3221C11.5022 17.6102 11.4441 17.7416 11.4608 17.7942C11.4735 17.8343 11.5232 17.8821 11.5713 17.9003C11.6278 17.9218 11.6825 17.9208 11.7262 17.8974C11.7634 17.8775 11.8841 17.7078 11.9945 17.5201C12.1049 17.3325 12.2715 17.0119 12.3646 16.8075C12.4706 16.5751 12.5262 16.4097 12.5132 16.3656C12.5019 16.3268 12.4674 16.2753 12.4366 16.2511C12.4057 16.2269 12.3616 16.207 12.3383 16.207C12.3151 16.207 12.264 16.2348 12.2248 16.2687Z" stroke="white" stroke-width="0.2" mask="url(#path-1-outside-1_1_4449)"/>
</svg>
