<svg width="45" height="45" viewBox="0 0 45 45" fill="none" xmlns="http://www.w3.org/2000/svg">
<path d="M32.6309 21.0197C32.3946 20.0209 31.9995 19.0666 31.4605 18.1931L32.3412 16.4313L30.0687 14.1588L28.3069 15.0395C27.4334 14.5005 26.4791 14.1054 25.4803 13.8691L24.8571 12H21.6429L21.0197 13.8691C20.0209 14.1054 19.0666 14.5005 18.1931 15.0395L16.4313 14.1588L14.1588 16.4313L15.0395 18.1931C14.5005 19.0666 14.1054 20.0209 13.8691 21.0197L12 21.6429V24.8571L13.8691 25.4803C14.1054 26.4791 14.5005 27.4334 15.0395 28.3069L14.1588 30.0687L16.4313 32.3412L18.1931 31.4605C19.0666 31.9995 20.0209 32.3946 21.0197 32.6309L21.6429 34.5H24.8571L25.4803 32.6309C26.4791 32.3946 27.4334 31.9995 28.3069 31.4605L30.0687 32.3412L32.3412 30.0687L31.4605 28.3069C31.9995 27.4334 32.3946 26.4791 32.6309 25.4803L34.5 24.8571V21.6429L32.6309 21.0197ZM23.25 30.4821C21.8196 30.4821 20.4214 30.058 19.232 29.2633C18.0427 28.4686 17.1158 27.3391 16.5684 26.0176C16.021 24.6961 15.8778 23.242 16.1568 21.8391C16.4359 20.4362 17.1247 19.1475 18.1361 18.1361C19.1475 17.1247 20.4362 16.4359 21.8391 16.1568C23.242 15.8778 24.6961 16.021 26.0176 16.5684C27.3391 17.1158 28.4686 18.0427 29.2633 19.232C30.058 20.4214 30.4821 21.8196 30.4821 23.25C30.4821 25.1681 29.7202 27.0076 28.3639 28.3639C27.0076 29.7202 25.1681 30.4821 23.25 30.4821Z" stroke="#C4C4C4"/>
<path d="M27.2679 22.3621C27.2689 21.8891 27.1588 21.4226 26.9464 21L25.8817 18.8746C25.8152 18.7407 25.7126 18.628 25.5856 18.5492C25.4585 18.4704 25.312 18.4287 25.1625 18.4286H24.8571V21.6429C24.8565 21.8558 24.7716 22.0598 24.6211 22.2104C24.4705 22.3609 24.2665 22.4458 24.0536 22.4464H22.4464C22.2335 22.4458 22.0295 22.3609 21.8789 22.2104C21.7284 22.0598 21.6435 21.8558 21.6429 21.6429V18.4286H21.3375C21.188 18.4287 21.0415 18.4704 20.9144 18.5492C20.7874 18.628 20.6848 18.7407 20.6183 18.8746L19.5536 21C19.3456 21.4156 19.2357 21.8733 19.2323 22.338C19.2288 22.8027 19.332 23.262 19.5337 23.6806C19.7355 24.0993 20.0305 24.4661 20.3961 24.7529C20.7617 25.0398 21.1882 25.239 21.6429 25.3353V29.4668C22.6957 29.7491 23.8043 29.7491 24.8571 29.4668V25.3353C25.5388 25.191 26.1503 24.8169 26.5891 24.2757C27.028 23.7344 27.2676 23.0589 27.2679 22.3621Z" stroke="#C4C4C4"/>
<mask id="path-2-inside-1_405_2" fill="white">
<path d="M0 10C0 4.47715 4.47715 0 10 0H35C40.5228 0 45 4.47715 45 10V35C45 40.5228 40.5228 45 35 45H10C4.47715 45 0 40.5228 0 35V10Z"/>
</mask>
<path d="M-2 10C-2 3.37258 3.37258 -2 10 -2H35C41.6274 -2 47 3.37258 47 10H43C43 5.58172 39.4183 2 35 2H10C5.58172 2 2 5.58172 2 10H-2ZM47 35C47 41.6274 41.6274 47 35 47H10C3.37258 47 -2 41.6274 -2 35H2C2 39.4183 5.58172 43 10 43H35C39.4183 43 43 39.4183 43 35H47ZM10 47C3.37258 47 -2 41.6274 -2 35V10C-2 3.37258 3.37258 -2 10 -2V2C5.58172 2 2 5.58172 2 10V35C2 39.4183 5.58172 43 10 43V47ZM35 -2C41.6274 -2 47 3.37258 47 10V35C47 41.6274 41.6274 47 35 47V43C39.4183 43 43 39.4183 43 35V10C43 5.58172 39.4183 2 35 2V-2Z" fill="#C4C4C4" mask="url(#path-2-inside-1_405_2)"/>
</svg>
