<svg width="9" height="20" viewBox="0 0 9 20" fill="none" xmlns="http://www.w3.org/2000/svg">
<path d="M8.39078 2.25807H6.11445C5.91767 0.965856 4.87578 -0.0195052 3.62978 0.000293142C2.26793 0.0219463 1.18519 1.25715 1.18519 2.73997V12.7979C1.18519 12.9634 1.12733 13.1232 1.02178 13.2423C0.355112 13.9946 -0.0133698 14.998 0.00037097 16.0657C0.0285932 18.2592 1.70363 20.0301 3.71845 19.9996C6.93012 19.951 8.5146 15.7316 6.31326 13.2442C6.20719 13.1244 6.14815 12.9643 6.14815 12.7979V11.6129H6.9093C7.22849 11.6129 7.503 11.3457 7.51786 10.9986C7.53371 10.6281 7.26275 10.3226 6.92593 10.3226H6.14815V7.58064H7.65004C7.96923 7.58064 8.24375 7.31347 8.2586 6.96637C8.27445 6.59589 8.00349 6.29032 7.66667 6.29032H6.14815V3.54839H8.40741C8.74423 3.54839 9.01519 3.24287 8.99934 2.87234C8.98449 2.52525 8.70997 2.25807 8.39078 2.25807ZM2.83874 14.8199C2.98652 14.6975 3.07408 14.5078 3.07408 14.3057V8.60681C3.07408 8.25931 3.31948 7.96044 3.6383 7.94427C3.9786 7.92701 4.25926 8.22201 4.25926 8.58871V14.2975C4.25926 14.5001 4.34245 14.6948 4.49096 14.817C5.57808 15.7113 4.9243 17.6004 3.56782 17.4962C2.32282 17.4005 1.82822 15.657 2.83874 14.8199Z" fill="#9B9596" fill-opacity="0.5"/>
</svg>
