<svg width="35" height="36" viewBox="0 0 35 36" fill="none" xmlns="http://www.w3.org/2000/svg">
<path fill-rule="evenodd" clip-rule="evenodd" d="M16.8663 0.699802C16.6969 0.791303 16.4659 0.997302 16.353 1.15758L16.1477 1.44899L16.1286 4.57689L16.1096 7.70472L16.2707 8.0101C16.3594 8.17797 16.5631 8.40779 16.7234 8.52071C16.9784 8.70036 17.0734 8.72603 17.4822 8.72603C17.891 8.72603 17.986 8.70036 18.241 8.52071C18.4013 8.40779 18.6042 8.17969 18.6917 8.01379C18.8488 7.71629 18.851 7.68214 18.851 5.53291C18.851 4.33428 18.8666 3.35363 18.8857 3.35363C18.9047 3.35363 19.221 3.3988 19.5884 3.45396C19.9558 3.50919 20.583 3.63149 20.9822 3.7258C21.3813 3.8201 21.9967 4.00249 22.3497 4.13109C22.7027 4.25968 23.2435 4.47643 23.5515 4.61269C23.8594 4.74895 24.4015 5.02475 24.756 5.22548C25.1105 5.42628 25.613 5.74007 25.8727 5.92287C26.1325 6.10567 26.5759 6.44635 26.8582 6.68C27.1406 6.91365 27.6807 7.42337 28.0587 7.81279C28.4366 8.20213 28.8697 8.6747 29.0212 8.8629C29.1728 9.05111 29.4665 9.45147 29.6739 9.7526C29.8814 10.0537 30.1906 10.5465 30.3611 10.8476C30.5315 11.1487 30.7813 11.6415 30.9162 11.9426C31.051 12.2437 31.2582 12.7519 31.3766 13.0719C31.495 13.3918 31.6814 14.0138 31.7909 14.4542C31.9004 14.8944 32.0364 15.5566 32.0933 15.9256C32.1502 16.2945 32.2159 17.0276 32.2392 17.5546C32.2634 18.1005 32.2493 18.8265 32.2066 19.2421C32.1449 19.8425 32.1491 20.0305 32.2306 20.3048C32.2885 20.4997 32.4226 20.7281 32.5539 20.8551C32.6772 20.9745 32.8926 21.1199 33.0326 21.1783C33.1726 21.2367 33.4035 21.2837 33.5459 21.2829C33.6882 21.2821 33.9301 21.2245 34.0833 21.1549C34.2366 21.0853 34.4589 20.9108 34.5773 20.767C34.7098 20.6063 34.8254 20.3591 34.8775 20.1251C34.9312 19.8838 34.9631 19.1561 34.9645 18.1363C34.9658 17.1597 34.9311 16.2726 34.8759 15.8778C34.826 15.5202 34.7082 14.8581 34.6141 14.4064C34.52 13.9547 34.351 13.2926 34.2386 12.935C34.1261 12.5774 33.9227 11.9922 33.7865 11.6346C33.6503 11.2771 33.3521 10.6149 33.1236 10.1632C32.8952 9.71154 32.4971 9.01983 32.2391 8.62611C31.9811 8.23231 31.5919 7.67796 31.3743 7.39422C31.1566 7.11041 30.7318 6.60595 30.4302 6.27313C30.1287 5.94039 29.6097 5.42135 29.2769 5.11981C28.9441 4.81827 28.4397 4.39341 28.1558 4.17578C27.8721 3.95814 27.3177 3.56894 26.924 3.31092C26.5302 3.05291 25.8385 2.65488 25.3868 2.42643C24.9351 2.19798 24.273 1.89973 23.9154 1.76354C23.5578 1.62734 22.9727 1.42429 22.6151 1.31219C22.2575 1.20008 21.6569 1.04199 21.2805 0.960893C20.9041 0.879726 20.2882 0.769129 19.9118 0.715063C19.5354 0.660997 18.7654 0.597966 18.2008 0.575107C17.2044 0.534729 17.1652 0.538356 16.8663 0.699802ZM5.29386 5.29228C5.12796 5.37981 4.90533 5.57493 4.79905 5.72577C4.69276 5.8766 4.58894 6.12633 4.56821 6.2808C4.54747 6.4352 4.55082 6.6698 4.57567 6.80216C4.60612 6.96443 5.5401 8.36324 7.44603 11.101C8.99992 13.333 10.8666 15.9904 11.5943 17.0062C12.322 18.0221 13.1955 19.2232 13.5356 19.6753C13.8756 20.1275 14.3715 20.7139 14.6374 20.9785C14.9135 21.2531 15.3029 21.555 15.5445 21.6817C15.7773 21.8038 16.2057 21.9646 16.4964 22.039C16.7872 22.1133 17.2308 22.1741 17.4822 22.1741C17.7337 22.1741 18.1773 22.1133 18.468 22.039C18.7587 21.9646 19.1872 21.8039 19.42 21.6819C19.6729 21.5494 20.0509 21.2525 20.3589 20.9446C20.6669 20.6365 20.9638 20.2585 21.0963 20.0056C21.2183 19.7728 21.379 19.3443 21.4533 19.0536C21.5277 18.7629 21.5885 18.3193 21.5885 18.0678C21.5885 17.8164 21.5277 17.3728 21.4533 17.0821C21.379 16.7913 21.2182 16.3629 21.0961 16.1301C20.9695 15.8886 20.6673 15.4988 20.3929 15.2229C20.1283 14.9568 19.4806 14.4159 18.9536 14.021C18.4267 13.6259 16.9792 12.5791 15.737 11.6947C14.4949 10.8102 11.9541 9.02661 10.0909 7.73107C8.22766 6.43554 6.59658 5.32102 6.46634 5.25429C6.33603 5.18757 6.08678 5.13302 5.91247 5.13302C5.7127 5.13302 5.48398 5.19188 5.29386 5.29228ZM2.38318 9.78107C2.22796 9.85156 2.01854 10.0126 1.91766 10.139C1.81685 10.2653 1.6125 10.6385 1.46351 10.9683C1.31452 11.2981 1.05637 11.9659 0.88979 12.4522C0.723211 12.9385 0.508863 13.6849 0.413391 14.1109C0.317989 14.5369 0.186314 15.2242 0.120887 15.6383C0.0330805 16.1935 0.00132518 16.8132 2.48507e-05 17.9994C-0.00107016 18.9703 0.0341071 19.8654 0.0887892 20.2579C0.138544 20.6155 0.256257 21.2776 0.35036 21.7293C0.444462 22.181 0.613436 22.8431 0.72588 23.2007C0.838324 23.5583 1.04172 24.1434 1.17791 24.501C1.31411 24.8586 1.61236 25.5208 1.84081 25.9725C2.06925 26.4241 2.46729 27.1158 2.7253 27.5096C2.98331 27.9034 3.37252 28.4577 3.59016 28.7415C3.80779 29.0253 4.23265 29.5297 4.53419 29.8625C4.83573 30.1953 5.35477 30.7143 5.68751 31.0159C6.02033 31.3174 6.52479 31.7423 6.8086 31.9599C7.09234 32.1775 7.64669 32.5667 8.04049 32.8248C8.43421 33.0828 9.12591 33.4808 9.57761 33.7093C10.0293 33.9377 10.6914 34.236 11.049 34.3721C11.4066 34.5083 11.9918 34.7114 12.3494 34.8235C12.7069 34.9356 13.3075 35.0937 13.6839 35.1748C14.0603 35.256 14.6763 35.3665 15.0527 35.4206C15.4291 35.4747 16.199 35.5377 16.7636 35.5606C17.76 35.601 17.7992 35.5973 18.0982 35.4359C18.2675 35.3444 18.4985 35.1384 18.6114 34.978C18.7911 34.723 18.8168 34.628 18.8168 34.2193C18.8168 33.8105 18.7911 33.7155 18.6114 33.4605C18.4985 33.3001 18.2704 33.0973 18.1045 33.0097C17.876 32.8891 17.6922 32.8505 17.3464 32.8505C17.0954 32.8505 16.5536 32.8178 16.1425 32.7777C15.7313 32.7377 15.0099 32.6287 14.5394 32.5356C14.0689 32.4425 13.2835 32.231 12.7942 32.0657C12.3049 31.9004 11.6321 31.6398 11.299 31.4867C10.9659 31.3334 10.4023 31.0367 10.0464 30.8273C9.69053 30.6178 9.03907 30.1752 8.59874 29.8435C8.15847 29.5119 7.46321 28.9056 7.05381 28.4962C6.64441 28.0868 6.03812 27.3916 5.70654 26.9513C5.37489 26.511 4.93223 25.8595 4.72281 25.5036C4.51332 25.1478 4.21664 24.5841 4.06341 24.2511C3.91024 23.918 3.64963 23.2452 3.48435 22.7559C3.31907 22.2665 3.1076 21.4812 3.01445 21.0107C2.92131 20.5402 2.81236 19.8188 2.77232 19.4076C2.73228 18.9964 2.69957 18.3959 2.69964 18.073C2.69964 17.7502 2.73153 17.1473 2.77047 16.7333C2.80934 16.3192 2.91789 15.6002 3.01165 15.1355C3.10541 14.6707 3.293 13.947 3.4285 13.5272C3.56401 13.1074 3.80498 12.4701 3.96396 12.1111C4.12295 11.752 4.27433 11.3445 4.30048 11.2053C4.32655 11.0661 4.3145 10.8282 4.27365 10.6767C4.23286 10.525 4.10091 10.2887 3.98046 10.1516C3.86008 10.0144 3.63806 9.84616 3.48722 9.77758C3.33632 9.70901 3.08967 9.65295 2.9391 9.65295C2.78854 9.65295 2.5384 9.71058 2.38318 9.78107ZM13.9919 13.8265C15.1776 14.6676 16.6096 15.7003 17.1742 16.1215C17.7389 16.5428 18.287 16.9681 18.3922 17.0667C18.4975 17.1653 18.6431 17.377 18.7158 17.5372C18.7885 17.6973 18.8487 17.9403 18.8495 18.0771C18.8504 18.219 18.769 18.4828 18.6605 18.6907C18.5062 18.986 18.4004 19.0918 18.1051 19.2461C17.8972 19.3546 17.6333 19.436 17.4915 19.4351C17.3546 19.4343 17.1117 19.3741 16.9515 19.3014C16.7914 19.2288 16.5797 19.0831 16.4811 18.9779C16.3825 18.8726 15.9571 18.3245 15.5359 17.7599C15.1147 17.1953 14.0819 15.7632 13.2409 14.5775C12.3999 13.3918 11.6478 12.3297 11.5696 12.2173L11.4273 12.0129L11.6317 12.1552C11.7441 12.2334 12.8062 12.9855 13.9919 13.8265ZM22.31 23.0453C22.2363 23.064 22.0977 23.1282 22.002 23.1879C21.9063 23.2477 21.1659 23.81 20.3566 24.4375C19.5237 25.0835 18.831 25.6724 18.7602 25.7949C18.6915 25.9138 18.6182 26.1768 18.5973 26.3794C18.5668 26.675 18.5899 26.8108 18.7142 27.0677C18.8024 27.2498 18.9857 27.4721 19.1394 27.5836C19.2882 27.6913 19.5456 27.7997 19.7117 27.8247C19.8777 27.8495 20.1195 27.8501 20.249 27.8257C20.3786 27.8014 20.6714 27.6441 20.8997 27.476L21.3148 27.1704V30.8552V34.5399L21.474 34.8416C21.5615 35.0075 21.7644 35.2356 21.9247 35.3485C22.1797 35.5281 22.2747 35.5538 22.6835 35.5538C23.0923 35.5538 23.1873 35.5281 23.4423 35.3485C23.6026 35.2356 23.8055 35.0075 23.893 34.8416L24.0523 34.5399V29.3744C24.0523 25.6115 24.0304 24.136 23.9717 23.9402C23.9275 23.7923 23.7802 23.5569 23.6445 23.4171C23.5085 23.277 23.2722 23.1253 23.1182 23.0792C22.9645 23.0331 22.7499 22.9989 22.6414 23.0033C22.5328 23.0077 22.3837 23.0266 22.31 23.0453ZM29.5958 23.1018C29.3511 23.1544 28.8892 23.326 28.5692 23.4832C28.1135 23.7072 27.8674 23.8891 27.4333 24.3233C26.9987 24.7579 26.8176 25.0029 26.5937 25.4592C26.4367 25.7791 26.2632 26.2565 26.208 26.52C26.1316 26.8856 26.1078 27.5421 26.1078 29.2917C26.1078 31.0413 26.1316 31.6979 26.208 32.0634C26.2632 32.3269 26.4367 32.8043 26.5937 33.1242C26.8176 33.5805 26.9987 33.8255 27.4333 34.2601C27.868 34.6948 28.1129 34.8758 28.5692 35.0997C28.8892 35.2567 29.3665 35.4303 29.63 35.4854C29.8935 35.5405 30.3092 35.5856 30.5539 35.5856C30.7986 35.5856 31.2143 35.5405 31.4778 35.4854C31.7413 35.4303 32.2187 35.2567 32.5386 35.0997C32.9949 34.8758 33.2398 34.6948 33.6745 34.2601C34.1091 33.8255 34.2902 33.5805 34.5141 33.1242C34.6711 32.8043 34.8446 32.3269 34.8998 32.0634C34.9763 31.6979 35 31.0413 35 29.2917C35 27.5421 34.9763 26.8856 34.8998 26.52C34.8446 26.2565 34.6711 25.7791 34.5141 25.4592C34.2902 25.0029 34.1091 24.7579 33.6745 24.3233C33.2398 23.8886 32.9949 23.7076 32.5386 23.4837C32.2187 23.3267 31.7413 23.1531 31.4778 23.098C31.2143 23.0429 30.7832 22.9997 30.5197 23.002C30.2562 23.0044 29.8404 23.0492 29.5958 23.1018ZM31.2783 25.9113C31.4184 25.9779 31.6304 26.1295 31.7493 26.2485C31.8683 26.3674 32.0252 26.585 32.0981 26.7319C32.2213 26.9801 32.2306 27.1616 32.2306 29.2917C32.2306 31.4218 32.2213 31.6033 32.0981 31.8515C32.0252 31.9984 31.8683 32.216 31.7493 32.3349C31.6304 32.4539 31.4128 32.6099 31.2659 32.6817C31.0866 32.7693 30.8525 32.8122 30.5539 32.8122C30.2553 32.8122 30.0213 32.7693 29.8419 32.6817C29.695 32.6099 29.4774 32.4539 29.3585 32.3349C29.2396 32.216 29.0826 31.9984 29.0097 31.8515C28.8887 31.6077 28.8753 31.3988 28.8563 29.4628C28.8428 28.092 28.8617 27.2366 28.9098 27.0456C28.9507 26.883 29.0627 26.6314 29.1586 26.4864C29.2545 26.3415 29.4504 26.1452 29.594 26.0502C29.7375 25.9552 29.9584 25.8459 30.0847 25.8074C30.211 25.7688 30.474 25.7493 30.669 25.7639C30.8641 25.7786 31.1382 25.8449 31.2783 25.9113Z" fill="#C4C4C4"/>
</svg>
