<svg width="15" height="20" viewBox="0 0 15 20" fill="none" xmlns="http://www.w3.org/2000/svg">
<path d="M14.3424 7.47794L14.3129 7.43712L14.3071 7.42517L11.626 3.35962L8.94485 7.42521L8.93927 7.43662L8.90947 7.47798C8.47926 8.07314 8.25188 8.78021 8.25188 9.52283C8.25188 11.4233 9.7655 12.9694 11.6259 12.9694C13.4864 12.9694 15 11.4233 15 9.52283C15.0001 8.78017 14.7727 8.07302 14.3424 7.47794Z" fill="#9B9596" fill-opacity="0.5"/>
<path d="M11.626 14.1437C9.13162 14.1437 7.10235 12.0708 7.10235 9.52283C7.10235 8.53236 7.40442 7.58857 7.97601 6.79255L9.73851 4.11993L7.02143 0L1.36039 8.58412C0.470328 9.82139 0 11.2883 0 12.8277C0 16.7825 3.14981 20 7.02147 20C10.6899 20 13.7098 17.1113 14.0167 13.4438C13.3226 13.8871 12.5032 14.1437 11.626 14.1437Z" fill="#9B9596" fill-opacity="0.5"/>
</svg>
